<?xml version="1.0" encoding="UTF-8"?>
<svg id="Layer_1" data-name="Layer 1" xmlns="http://www.w3.org/2000/svg" viewBox="0 0 485.06 502.29">
  <defs>
    <style>
      .cls-1 {
        fill: #857dfb;
      }

      .cls-2 {
        fill: #fff;
      }

      .cls-3 {
        fill: #a0a0a0;
      }

      .cls-4 {
        fill: #8c8c8c;
      }

      .cls-5 {
        fill: #dcdbdb;
      }

      .cls-6 {
        fill: #e6e6e6;
      }

      .cls-7 {
        fill: #d5cfcf;
      }

      .cls-8 {
        fill: #6c63ff;
      }

      .cls-9 {
        opacity: .72;
      }

      .cls-10 {
        fill: #aaa;
      }

      .cls-11 {
        fill: #7e7e7e;
      }

      .cls-12 {
        stroke-miterlimit: 10;
        stroke-width: 2px;
      }

      .cls-12, .cls-13 {
        fill: none;
        stroke: #6c63ff;
      }

      .cls-14 {
        fill: #29abe2;
      }

      .cls-15 {
        fill: #eeecec;
      }

      .cls-13 {
        stroke-linecap: round;
        stroke-linejoin: round;
        stroke-width: 2.5px;
      }
    </style>
  </defs>
  <g>
    <g>
      <g>
        <path class="cls-5" d="m483.96,65.4c-3.2,9.14-25.22,25.63-31.59,30.26-.65.48-1.57.35-2.07-.29-.11-.14-.19-.31-.24-.48-2.14-7.43-9.23-33.54-6.02-42.68,3.81-10.69,15.82-16.35,26.82-12.65,10.7,3.42,16.61,14.86,13.19,25.57-.03.09-.06.19-.09.28Z"/>
        <ellipse class="cls-2" cx="464.48" cy="57.44" rx="10.73" ry="10.42"/>
        <ellipse class="cls-8" cx="447.56" cy="105.73" rx="4.81" ry="4.67"/>
      </g>
      <g class="cls-9">
        <path class="cls-7" d="m2.39,239.67l47.27-17.62c1.85-.7,3.92.19,4.67,2.02l10.76,27.23h0l-54.12,20.18h0L.25,244.33c-.71-1.84.2-3.92,2.05-4.63.03-.01.06-.02.09-.03h0Z"/>
        <path class="cls-1" d="m11.01,271.47l54.08-20.16,1.93,4.89c.41,1.07-.12,2.27-1.19,2.69-.02,0-.03.01-.05.02l-49.85,18.58c-1.21.46-2.57-.13-3.07-1.33l-1.85-4.7Z"/>
        <path class="cls-8" d="m36.29,269.9l8.9-3.32,2.09,5.28-8.9,3.32-2.09-5.28Z"/>
        <path class="cls-1" d="m32.99,277.19l19.49-7.27c.92-.35,1.96.1,2.34,1.01l.54,1.36h0l-22.66,8.45h0l-.62-1.56c-.3-.78.09-1.67.87-1.97.01,0,.03,0,.04-.01h0Z"/>
        <path class="cls-2" d="m9.71,243.9l11.28-4.2,2.96,7.5-11.28,4.2-2.96-7.5Z"/>
        <path class="cls-2" d="m13.49,253.48l11.28-4.2.7,1.76-11.28,4.2-.7-1.76Z"/>
      </g>
      <g>
        <path class="cls-11" d="m340.56,0h-162.46c-26.54.03-48.04,20.91-48.07,46.68v14.26c-1.17-.33-2.39.35-2.74,1.51-.06.2-.08.4-.08.6v10.97c0,1.21.99,2.2,2.21,2.19.21,0,.42-.02.62-.08v16.6c-1.17-.33-2.39.35-2.74,1.51-.06.2-.08.4-.08.6v27.42c0,1.21.99,2.19,2.2,2.19.21,0,.42-.02.62-.08v10.03c-1.17-.33-2.39.35-2.74,1.51-.06.2-.08.4-.08.6v27.42c0,1.21.99,2.19,2.2,2.19.21,0,.42-.02.62-.08v289.54c.03,25.77,21.53,46.65,48.07,46.68h162.46c26.53-.03,48.04-20.91,48.07-46.68V46.68c-.02-25.77-21.52-46.66-48.06-46.68Zm37.91,455.61c-.02,20.32-16.98,36.79-37.91,36.81h-162.46c-20.92-.02-37.88-16.49-37.91-36.81V46.68c.02-20.32,16.98-36.79,37.91-36.81h162.46c20.92.02,37.88,16.49,37.91,36.81v408.93Z"/>
        <path class="cls-6" d="m340.55,497.91h-162.46c-24.04-.03-43.52-18.95-43.55-42.3V46.69c.03-23.35,19.51-42.27,43.55-42.3h162.46c24.04.03,43.53,18.95,43.55,42.3v408.93c-.03,23.35-19.51,42.27-43.55,42.3Z"/>
        <path class="cls-2" d="m344.58,491.33h-170.49c-16.21-.02-29.36-12.78-29.37-28.53V39.49c.02-15.75,13.16-28.51,29.37-28.53h22.23c2.64-.04,4.82,2.07,4.86,4.72.12,7.8,6.54,14.04,14.34,13.93h85.37c7.8.1,14.22-6.13,14.34-13.93.04-2.64,2.21-4.75,4.86-4.71h24.49c16.21.02,29.35,12.78,29.37,28.53v423.3c-.02,15.75-13.16,28.51-29.38,28.53Z"/>
        <path class="cls-2" d="m266.67,20.56h-20.33c-1.21-.03-2.17-1.03-2.15-2.24.03-1.17.97-2.12,2.15-2.15h20.33c1.21-.13,2.29.74,2.42,1.95s-.74,2.29-1.95,2.42c-.09,0-.17.01-.26.01h-.21Z"/>
      </g>
      <g>
        <path class="cls-15" d="m188.12,53.61h138.94c7.17-.1,13.06,5.62,13.17,12.79h0c-.11,7.17-6,12.89-13.17,12.79h-138.94c-7.17.1-13.06-5.62-13.17-12.79h0c.11-7.17,6-12.89,13.17-12.79Z"/>
        <g>
          <path class="cls-4" d="m324.61,59.99c-2.47-2.37-6.38-2.37-8.85,0-2.37,2.28-2.45,6.05-.18,8.42.06.06.12.12.18.18,2.47,2.37,6.37,2.37,8.85,0,2.37-2.28,2.45-6.05.17-8.43-.05-.06-.11-.11-.17-.17Zm-7.52,7.3c-1.66-1.59-1.72-4.23-.12-5.89.04-.04.08-.08.12-.12,1.73-1.66,4.46-1.66,6.19,0,1.66,1.59,1.72,4.23.12,5.89-.04.04-.08.08-.12.12h0c-1.73,1.66-4.46,1.66-6.19,0h0Z"/>
          <path class="cls-4" d="m323.63,68.8l1.21-1.17h0l4.88,4.74s.04.09,0,.13c0,0,0,0,0,0h0l-1.07,1.04s-.1.03-.13,0h0l-4.88-4.74Z"/>
        </g>
      </g>
      <ellipse class="cls-6" cx="257.77" cy="443.85" rx="14.55" ry="14.13"/>
    </g>
    <g>
      <rect class="cls-8" x="167.08" y="145.97" width="188.17" height="38.35" rx="5.84" ry="5.84"/>
      <g>
        <path class="cls-2" d="m184.04,163.89v8.07c-.03.68.5,1.26,1.18,1.3h3.98v-5.53h3.55v5.53h4.31c.6,0,1.09-.5,1.08-1.1,0-.07,0-.14-.02-.2v-8.06l-7.04-4.89-7.05,4.88Z"/>
        <path class="cls-2" d="m199.78,161.08l-8.13-5.64c-.09-.06-.19-.11-.3-.13-.01,0-.02-.01-.03-.01-.12,0-.24,0-.35,0-.01,0-.02,0-.03.01-.11.02-.21.07-.3.13l-8.14,5.64c-.42.27-.53.83-.26,1.25.27.42.83.53,1.25.26.01,0,.02-.02.04-.03l7.63-5.29,7.62,5.29c.41.28.97.18,1.25-.23.28-.41.18-.97-.23-1.25h0Z"/>
      </g>
    </g>
    <g>
      <path class="cls-8" d="m182.36,210.91c-1.24,0-2.24,1.01-2.24,2.24v2.24h1.37v-2.24c0-.48.39-.88.88-.88h2.35v-1.37h-2.35Zm18.18,16.98v2.57c0,.48-.39.88-.88.88h-2.46v1.37h2.46c1.24,0,2.24-1.01,2.24-2.24v-2.57h-1.37Zm-19.06,2.57v-2.57h-1.37v2.57c0,1.24,1.01,2.24,2.24,2.24h2.35v-1.37h-2.35c-.48,0-.88-.39-.88-.87h0s0,0,0,0Zm18.18-19.55h-2.46v1.37h2.46c.48,0,.88.39.88.88h0v2.24h1.37v-2.24c0-1.24-1.01-2.24-2.24-2.24h0,0Z"/>
      <g>
        <path class="cls-8" d="m193.94,218.39c.47,1.34-.24,2.81-1.59,3.27-1.34.47-2.81-.24-3.27-1.59-.47-1.34.24-2.81,1.59-3.27.55-.19,1.14-.19,1.69,0,.75.25,1.34.84,1.59,1.59Z"/>
        <path class="cls-8" d="m195.79,226.69h-8.57c0-1.48,1.92-3.12,4.28-3.12s4.28,1.63,4.28,3.12Z"/>
      </g>
    </g>
    <g>
      <g>
        <path class="cls-8" d="m198.72,276.1c-.06,0-.12-.02-.18-.05l-.81-.33c-.68-.52-.82-1.5-.3-2.18.09-.12.19-.22.31-.31l.81-.33c.06-.02.12-.04.18-.04v-.03l.12-.04-.12-.3v-.32h-.12v-.03c-.07.02-.13.03-.19.03h-.89c-.47-.12-.85-.46-1.03-.91-.18-.45-.15-.96.09-1.38l.63-.63s.09-.07.15-.09v-.04s.07-.09.07-.09l-.22-.22-.12-.29-.12.05-.02-.02s-.11.07-.16.09l-.81.34c-.48.06-.96-.11-1.3-.45-.34-.35-.5-.83-.45-1.32l.34-.81c.03-.05.07-.1.11-.15l-.03-.03.05-.12-.29-.12-.22-.22-.09.09h-.03s-.07.09-.11.13l-.63.63c-.42.24-.93.27-1.38.09-.45-.2-.78-.58-.91-1.05v-.87c0-.06.02-.12.05-.18h-.05v-.15h-.32l-.29-.12-.04.12h-.04c0,.06-.03.12-.03.18l-.34.81c-.29.39-.74.61-1.23.61-.51,0-.99-.25-1.29-.67l-.28-.67c-.02-.08-.04-.17-.05-.25h-.06l-.05-.12-.28.12h-.3v.13h-.06c.04.09.03.18.06.27v.73c-.11.49-.45.91-.91,1.11-.32.12-.67.15-1,.06l-1.06-1.11-.3.3-.39.16.6,1.41c-.12.84-.9,1.43-1.75,1.31,0,0-.02,0-.03,0l-.81-.34s-.11-.06-.15-.11l-.03.03-.12-.06-.12.3-.22.21.09.09v.04s.08.08.13.11l.61.63c.23.42.26.93.07,1.38-.21.44-.59.77-1.06.9l-.88-.02c-.06,0-.12-.02-.18-.04v.04h-.13v.32l-.13.28.12.04v.05c.06,0,.12.03.18.03l.81.36c.67.52.8,1.49.28,2.16-.09.12-.2.23-.32.31l-.81.33c-.06,0-.12.03-.18.03v.04l-.12.05.12.28-.02.32h.13l.02.04c.06-.03.12-.01.18-.04h.88c.47.15.84.49,1.02.94.18.45.14.96-.11,1.38l-.63.61c-.06.03-.09.08-.15.11l.02.03-.09.09.21.22.12.3.12-.06.03.03s.1-.07.15-.09l.82-.33c.48-.06.95.11,1.29.45.34.35.5.83.44,1.32l-.34.81c-.03.06-.06.11-.11.15l.03.03-.05.12.29.12.21.22.11-.09h.03s.07-.07.11-.13l.63-.61c.42-.24.93-.27,1.38-.08.45.19.78.58.9,1.05v.88c-.03.06-.01.12-.04.18l.03.02v.12l.32.02.29.12.06-.12h.03c0-.06.02-.12.05-.18l.34-.81c.3-.38.76-.6,1.24-.6.49,0,.95.24,1.24.63l.33.81c0,.06.03.12.03.18h.03l.06.12.28-.12h.32v-.12h.03c-.01-.08-.01-.13-.03-.2v-.88c.14-.47.48-.85.93-1.03.45-.18.96-.14,1.38.11l.61.63s.09.09.11.15l.03-.02.11.09.21-.21.3-.12-.04-.12v-.03s-.05-.1-.07-.15l-.33-.82c-.06-.48.1-.96.44-1.3.36-.34.85-.5,1.33-.44l.81.34c.05.03.1.07.15.11l.03-.03.12.04.12-.28.22-.22-.11-.09.02-.03s-.1-.07-.15-.11l-.61-.63c-.24-.42-.27-.93-.09-1.38.19-.45.59-.78,1.06-.9h.87c.06.02.12.02.18.03l.02-.03h.13v-.32l.12-.29-.12-.06v-.03Zm-9.98,4.85c-3.6,0-6.52-2.92-6.52-6.52s2.92-6.52,6.52-6.52,6.52,2.92,6.52,6.52c0,3.6-2.91,6.52-6.5,6.52h-.01Z"/>
        <circle class="cls-14" cx="188.75" cy="274.44" r="2.3"/>
      </g>
      <g>
        <path class="cls-8" d="m204.73,265.31s-.08-.01-.11-.03l-.47-.19c-.23-.18-.37-.45-.37-.74,0-.29.14-.56.37-.74l.48-.18s.06-.03.1-.03h0s.07-.04.07-.04l-.07-.19v-.18h-.07s-.08,0-.11,0h-.53c-.27-.07-.5-.27-.6-.54-.11-.26-.1-.56.04-.81l.37-.37s.06-.04.1-.04v-.03s.04-.06.04-.06l-.14-.13-.07-.17-.07.03h0s-.06.03-.1.04l-.48.2c-.28.03-.56-.07-.77-.27-.2-.2-.29-.49-.26-.77l.2-.48s.04-.06.06-.08h-.01s.03-.09.03-.09l-.17-.07-.13-.13-.06.04h-.01s-.04.06-.06.08l-.38.37c-.25.14-.54.16-.81.06-.26-.12-.46-.35-.54-.62v-.51s.01-.07.03-.1h-.03v-.1h-.19l-.16-.06-.03.06h-.03s-.01.07-.01.11l-.21.47c-.17.23-.44.37-.72.37-.3,0-.58-.15-.75-.4l-.17-.4c0-.06-.03-.1-.03-.16h-.03l-.03-.06-.17.06h-.17v.08h-.04c.03.06.01.11.04.16v.44c-.06.29-.26.53-.54.65-.19.07-.4.08-.6.03l-.62-.65-.17.18-.23.08.34.84c-.03.19-.12.37-.25.51-.21.2-.5.29-.78.25l-.47-.2s-.07-.04-.1-.07h-.01s-.07-.01-.07-.01l-.07.17-.13.13.06.06v.03s.04.04.07.06l.37.37c.13.25.15.55.04.81-.12.26-.35.46-.62.54h-.53s-.07-.03-.1-.04v.03h-.07v.18l-.08.17.07.03v.03s.07.01.11.01l.47.21c.22.17.35.44.36.72,0,.04,0,.09-.01.13.2-.04.41-.06.61-.06.17,0,.33.01.5.04v-.04c0-2.12,1.71-3.84,3.83-3.85,2.12,0,3.84,1.71,3.85,3.83,0,2.12-1.71,3.84-3.83,3.85h-.06c.03.16.04.33.04.5,0,.2-.01.4-.04.6.29,0,.56.15.72.38l.2.47s.01.07.01.11h.01l.04.06.17-.06h.18v-.07h.01c-.01-.05-.02-.09-.01-.13v-.51c.08-.28.27-.5.54-.61.26-.1.56-.08.81.06l.37.37s.06.06.06.1h.01s.07.04.07.04l.11-.13.19-.07-.03-.07h.01s-.04-.07-.06-.1l-.2-.5c-.04-.28.06-.56.25-.77.22-.19.51-.28.8-.25l.47.21s.06.03.08.06h.03s.07.01.07.01l.07-.17.13-.13-.07-.06h.01s-.05-.07-.08-.09l-.37-.37c-.13-.25-.15-.55-.04-.81.11-.26.35-.46.62-.53h.51s.07,0,.1.01h.01s.08-.01.08-.01v-.18l.06-.17-.06-.04h0Z"/>
        <circle class="cls-14" cx="198.85" cy="264.34" r="1.36"/>
      </g>
    </g>
    <g>
      <rect class="cls-12" x="179.02" y="361.97" width="27.69" height="19.51" rx="2.89" ry="2.89"/>
      <line class="cls-13" x1="184.15" y1="367.96" x2="191.29" y2="367.96"/>
      <line class="cls-13" x1="184.15" y1="371.72" x2="191.29" y2="371.72"/>
      <line class="cls-13" x1="184.15" y1="375.49" x2="199.68" y2="375.49"/>
      <circle class="cls-14" cx="198.02" cy="369.43" r="2.63"/>
    </g>
  </g>
  <g>
    <path class="cls-12" d="m202.22,327.16c0,.74-.29,1.42-.81,1.93l-.44.43s-.03.03-.05.05c-.41.32-.88.59-1.37.78-.52.21-.98.33-1.4.38-.04,0-.18.02-.4.02-1.16,0-5.29-.38-10.19-5.27-4.11-4.12-5.63-7.19-5.21-10.61.05-.45.16-.9.34-1.37h0c.19-.49.46-.97.78-1.37.02-.02.03-.04.05-.06l.43-.43c.51-.52,1.2-.81,1.94-.81s1.41.28,1.93.8l1.58,1.59c.51.51.8,1.19.8,1.92s-.28,1.41-.8,1.93l-.1.1s0,0-.02,0l-.63.61c.52.88,1.65,2.5,2.89,3.73,1.25,1.26,2.92,2.41,3.79,2.92l.72-.72c.52-.52,1.2-.8,1.93-.8s1.41.28,1.93.8l1.52,1.52c.52.52.8,1.21.8,1.94Z"/>
    <path class="cls-14" d="m201.17,316.89c-.18,0-.36-.04-.53-.13-.4-.2-.64-.6-.65-1.05h-3.25c-1.01,0-1.83-.82-1.83-1.83v-1.24c0-1.01.82-1.83,1.83-1.83h.43c.37,0,.67.3.67.67s-.3.67-.67.67h-.43c-.27,0-.49.22-.49.49v1.24c0,.27.22.49.49.49h3.93c.37,0,.67.3.67.67v.35l2.9-2.12-2.9-2.12v.35c0,.37-.3.67-.67.67h-1.08c-.37,0-.67-.3-.67-.67s.3-.67.67-.67h.41c0-.44.25-.85.65-1.05.4-.2.87-.16,1.23.1l3.34,2.45c.3.22.48.58.48.95,0,.37-.18.73-.48.95l-3.34,2.45c-.21.15-.45.23-.7.23Z"/>
  </g>
  <rect class="cls-10" x="223.6" y="215.89" width="48.4" height="4.03" rx="1.31" ry="1.31"/>
  <rect class="cls-3" x="223.6" y="107" width="48.4" height="3.39" rx="1.31" ry="1.31"/>
  <rect class="cls-8" x="223.6" y="225.3" width="75.12" height="4.22" rx="1.51" ry="1.51"/>
  <rect class="cls-2" x="223.6" y="158.33" width="48.4" height="4.03" rx="1.31" ry="1.31"/>
  <rect class="cls-2" x="223.6" y="167.73" width="75.12" height="4.22" rx="1.51" ry="1.51"/>
  <rect class="cls-10" x="223.6" y="262.98" width="48.4" height="4.03" rx="1.31" ry="1.31"/>
  <rect class="cls-8" x="223.6" y="272.39" width="75.12" height="4.22" rx="1.51" ry="1.51"/>
  <rect class="cls-10" x="223.6" y="313.96" width="48.4" height="4.03" rx="1.31" ry="1.31"/>
  <rect class="cls-8" x="223.6" y="323.37" width="75.12" height="4.22" rx="1.51" ry="1.51"/>
  <rect class="cls-10" x="223.6" y="364.91" width="48.4" height="4.03" rx="1.31" ry="1.31"/>
  <rect class="cls-8" x="223.6" y="374.31" width="75.12" height="4.22" rx="1.51" ry="1.51"/>
  <circle class="cls-8" cx="188.74" cy="108.7" r="12.35"/>
</svg>