<?xml version="1.0" encoding="UTF-8"?>
<svg id="Layer_1" data-name="Layer 1" xmlns="http://www.w3.org/2000/svg" viewBox="0 0 627.87 460.19">
  <defs>
    <style>
      .cls-1 {
        fill: #bbf;
      }

      .cls-2 {
        fill: #f4f4f4;
      }

      .cls-3, .cls-4, .cls-5, .cls-6 {
        fill: #fff;
      }

      .cls-7 {
        stroke-width: 3px;
      }

      .cls-7, .cls-8, .cls-9, .cls-10, .cls-11, .cls-12, .cls-13, .cls-14, .cls-15, .cls-16, .cls-17, .cls-18, .cls-19, .cls-20, .cls-21, .cls-22 {
        fill: none;
      }

      .cls-7, .cls-8, .cls-9, .cls-10, .cls-11, .cls-12, .cls-14, .cls-15, .cls-18, .cls-19, .cls-20, .cls-21 {
        stroke-miterlimit: 10;
      }

      .cls-7, .cls-9 {
        stroke: #eaeaea;
      }

      .cls-23 {
        fill: #7d7dff;
        opacity: .12;
      }

      .cls-23, .cls-24, .cls-25, .cls-4, .cls-26, .cls-27, .cls-5, .cls-28, .cls-29, .cls-17, .cls-6, .cls-30 {
        isolation: isolate;
      }

      .cls-31, .cls-32 {
        fill: #716eff;
      }

      .cls-8 {
        stroke: #444;
      }

      .cls-24 {
        fill: #b5b5b5;
        font-size: 9.13px;
      }

      .cls-24, .cls-26 {
        font-family: SegoeUI, 'Segoe UI';
      }

      .cls-33 {
        fill: #7cc5fc;
      }

      .cls-32, .cls-34 {
        fill-rule: evenodd;
      }

      .cls-35 {
        fill: #e0e0e0;
      }

      .cls-10 {
        stroke: #8c71ff;
      }

      .cls-11 {
        stroke: #bababa;
      }

      .cls-34, .cls-36 {
        fill: #c4c4c4;
      }

      .cls-37 {
        fill: #5555c9;
      }

      .cls-38 {
        fill: #c7c7ff;
      }

      .cls-12, .cls-16, .cls-18, .cls-20 {
        stroke-width: 2px;
      }

      .cls-12, .cls-17, .cls-20, .cls-22 {
        stroke: #fff;
      }

      .cls-13, .cls-16, .cls-17, .cls-20, .cls-22 {
        stroke-linecap: round;
      }

      .cls-13, .cls-16, .cls-17, .cls-22 {
        stroke-linejoin: round;
      }

      .cls-13, .cls-19 {
        stroke: #5b5b5b;
      }

      .cls-39 {
        fill: #f2f2f9;
      }

      .cls-40 {
        fill: #6c63ff;
      }

      .cls-4, .cls-17 {
        opacity: .15;
      }

      .cls-14 {
        stroke: #c4c4c4;
      }

      .cls-26 {
        fill: #a0a0a0;
        font-size: 6.94px;
      }

      .cls-27 {
        opacity: .33;
      }

      .cls-27, .cls-29, .cls-30 {
        fill: #ededed;
      }

      .cls-5, .cls-29 {
        opacity: .31;
      }

      .cls-28 {
        fill: #8e8e8e;
        opacity: .17;
      }

      .cls-41 {
        fill: #8c71ff;
      }

      .cls-42 {
        opacity: .28;
      }

      .cls-43 {
        fill: #bcbcbc;
      }

      .cls-44 {
        fill: #ccc;
      }

      .cls-15 {
        stroke: #e6e6ff;
      }

      .cls-16 {
        stroke: #5555c9;
      }

      .cls-17, .cls-22 {
        stroke-width: 4px;
      }

      .cls-45 {
        fill: #f7f7f7;
      }

      .cls-6 {
        opacity: .4;
      }

      .cls-18 {
        stroke: #716eff;
      }

      .cls-30 {
        opacity: .71;
      }

      .cls-46 {
        fill: #9f9fa3;
      }

      .cls-21 {
        stroke: #000;
        stroke-width: .5px;
      }

      .cls-47 {
        fill: #f95f5f;
      }
    </style>
  </defs>
  <g>
    <g>
      <rect class="cls-39" x="46.4" y="46.52" width="577.27" height="413.67"/>
      <g>
        <path class="cls-37" d="m447.48,192.3v63.57c0,3.89-2.87,7.04-6.41,7.04h-126.78c-3.54,0-6.41-3.15-6.41-7.04v-63.57c0-3.89,2.87-7.04,6.41-7.04h126.77c3.54,0,6.41,3.15,6.41,7.04Z"/>
        <line class="cls-22" x1="325.55" y1="245.07" x2="398.59" y2="245.07"/>
        <path class="cls-4" d="m447.48,192.13v22.66c-12.44,10.63-31.15,9.17-41.78-3.27-4.59-5.37-7.11-12.2-7.11-19.26,0-2.36.28-4.71.84-7h41.18c3.79,0,6.87,3.07,6.87,6.87h0Z"/>
        <line class="cls-17" x1="325.27" y1="245.07" x2="421.19" y2="245.07"/>
        <rect class="cls-3" x="324.95" y="207.75" width="45.31" height="4.32" rx=".93" ry=".93"/>
        <rect class="cls-6" x="324.95" y="218.57" width="57.75" height="4.32" rx=".93" ry=".93"/>
        <g>
          <rect class="cls-39" x="416.92" y="195.36" width="19.42" height="12.4" rx="2.53" ry="2.53"/>
          <line class="cls-16" x1="420.73" y1="199.67" x2="427.09" y2="199.67"/>
          <line class="cls-16" x1="420.73" y1="203.42" x2="431.77" y2="203.42"/>
        </g>
      </g>
      <g>
        <rect class="cls-3" x="463.69" y="70.41" width="137.17" height="192.2" rx="7.59" ry="7.59"/>
        <g>
          <rect class="cls-41" x="474.51" y="81.52" width="117.29" height="65.21" rx="5.17" ry="5.17"/>
          <circle class="cls-30" cx="488.7" cy="95.94" r="3.99"/>
          <circle class="cls-3" cx="494.09" cy="95.94" r="3.99"/>
          <path class="cls-29" d="m591.8,85.56v25.03c-2.37.79-4.85,1.19-7.35,1.18-12.96,0-23.46-10.51-23.46-23.47,0-2.3.34-4.59,1.01-6.79h25.75c2.23,0,4.04,1.8,4.05,4.04h0Z"/>
          <path class="cls-27" d="m513.68,146.73h-35.12c-2.23,0-4.04-1.81-4.05-4.04h0v-28.54c18.93.72,35.01,14.09,39.16,32.58Z"/>
          <line class="cls-12" x1="497.14" y1="121.86" x2="505.67" y2="121.86"/>
          <line class="cls-12" x1="510.39" y1="121.86" x2="518.93" y2="121.86"/>
          <line class="cls-12" x1="523.64" y1="121.86" x2="532.18" y2="121.86"/>
          <line class="cls-12" x1="536.9" y1="121.86" x2="545.43" y2="121.86"/>
          <line class="cls-12" x1="550.15" y1="121.86" x2="558.69" y2="121.86"/>
        </g>
      </g>
      <g>
        <rect class="cls-3" x="64.93" y="70.41" width="117.26" height="192.5" rx="7.59" ry="7.59"/>
        <path class="cls-41" d="m71.08,70.41h104.95c3.28,0,5.94,2.66,5.94,5.94v95.61h-116.82v-95.61c0-3.28,2.66-5.94,5.94-5.94Z"/>
        <circle class="cls-3" cx="90.95" cy="101.78" r="12.35"/>
        <g>
          <path class="cls-2" d="m172.73,246.9h-90.67c-.89-.13-1.51-.94-1.41-1.83h0c-.1-.89.52-1.7,1.41-1.83h90.67c.89.13,1.51.94,1.41,1.83h0c.1.89-.52,1.7-1.41,1.83Z"/>
          <path class="cls-31" d="m151.18,246.9h-69.46c-.59,0-1.08-.82-1.08-1.83h0c0-1.01.48-1.83,1.08-1.83h69.46c.59,0,1.08.82,1.08,1.83h0c0,1.01-.48,1.83-1.08,1.83Z"/>
        </g>
        <rect class="cls-3" x="80.65" y="136.52" width="45.31" height="4.32" rx=".93" ry=".93"/>
        <rect class="cls-6" x="80.65" y="147.33" width="57.75" height="4.32" rx=".93" ry=".93"/>
      </g>
      <rect class="cls-3" x="198.74" y="70.35" width="248.73" height="101.62" rx="8.8" ry="8.8"/>
      <g>
        <rect class="cls-3" x="198.74" y="185.26" width="91.82" height="77.65" rx="6.25" ry="6.25"/>
        <circle class="cls-31" cx="220.74" cy="214.08" r="9.63"/>
        <rect class="cls-31" x="212.45" y="233.57" width="32.2" height="4.73" rx="1.11" ry="1.11"/>
        <rect class="cls-38" x="212.45" y="246.36" width="62.63" height="4.73" rx="1.11" ry="1.11"/>
      </g>
      <g>
        <rect class="cls-3" x="67.11" y="276.19" width="195.77" height="164.28" rx="6.25" ry="6.25"/>
        <g>
          <rect class="cls-39" x="91.12" y="302.85" width="38.35" height="14.46" rx="3.06" ry="3.06"/>
          <g>
            <line class="cls-21" x1="126.25" y1="308.44" x2="123.56" y2="311.13"/>
            <line class="cls-21" x1="126.25" y1="311.13" x2="123.56" y2="308.44"/>
          </g>
          <rect class="cls-46" x="95.53" y="308.99" width="13.52" height="2.15"/>
        </g>
        <g>
          <rect class="cls-39" x="136.21" y="302.85" width="38.35" height="14.46" rx="3.06" ry="3.06"/>
          <g>
            <line class="cls-21" x1="170.94" y1="308.44" x2="168.24" y2="311.13"/>
            <line class="cls-21" x1="170.94" y1="311.13" x2="168.24" y2="308.44"/>
          </g>
          <rect class="cls-46" x="142.1" y="308.99" width="13.52" height="2.15"/>
        </g>
        <g>
          <rect class="cls-39" x="181.31" y="302.85" width="38.35" height="14.46" rx="3.06" ry="3.06"/>
          <g>
            <line class="cls-21" x1="215.62" y1="308.44" x2="212.93" y2="311.13"/>
            <line class="cls-21" x1="215.62" y1="311.13" x2="212.93" y2="308.44"/>
          </g>
          <rect class="cls-46" x="186.99" y="308.99" width="13.52" height="2.15"/>
        </g>
        <line class="cls-9" x1="91.12" y1="339.11" x2="241.59" y2="339.11"/>
        <line class="cls-9" x1="91.12" y1="359.24" x2="241.59" y2="359.24"/>
        <line class="cls-9" x1="91.12" y1="379.37" x2="241.59" y2="379.37"/>
        <line class="cls-9" x1="91.12" y1="399.5" x2="241.59" y2="399.5"/>
        <line class="cls-9" x1="91.12" y1="419.63" x2="241.59" y2="419.63"/>
        <line class="cls-9" x1="122.66" y1="339.11" x2="122.66" y2="419.63"/>
        <line class="cls-9" x1="146.42" y1="339.11" x2="146.42" y2="419.63"/>
        <line class="cls-9" x1="170.18" y1="339.11" x2="170.18" y2="419.63"/>
        <line class="cls-9" x1="193.94" y1="339.11" x2="193.94" y2="419.63"/>
        <line class="cls-9" x1="217.7" y1="339.11" x2="217.7" y2="419.63"/>
        <rect class="cls-35" x="93.97" y="413.09" width="22.39" height="3.02" rx=".79" ry=".79"/>
        <rect class="cls-35" x="93.97" y="392.1" width="22.39" height="3.02" rx=".79" ry=".79"/>
        <rect class="cls-35" x="121.38" y="426.84" width="11.19" height="3.02" rx=".79" ry=".79"/>
        <rect class="cls-35" x="145.78" y="426.84" width="11.19" height="3.02" rx=".79" ry=".79"/>
        <rect class="cls-35" x="169" y="426.84" width="11.19" height="3.02" rx=".79" ry=".79"/>
        <rect class="cls-35" x="193.04" y="426.84" width="11.19" height="3.02" rx=".79" ry=".79"/>
        <rect class="cls-35" x="216.93" y="426.84" width="11.19" height="3.02" rx=".79" ry=".79"/>
        <rect class="cls-35" x="93.97" y="371.88" width="22.39" height="3.02" rx=".79" ry=".79"/>
        <rect class="cls-35" x="93.97" y="351.65" width="22.39" height="3.02" rx=".79" ry=".79"/>
        <line class="cls-9" x1="217.57" y1="81.6" x2="430.65" y2="81.6"/>
        <line class="cls-9" x1="217.57" y1="101.73" x2="430.65" y2="101.73"/>
        <line class="cls-9" x1="217.57" y1="121.86" x2="430.65" y2="121.86"/>
        <line class="cls-9" x1="217.57" y1="141.99" x2="430.65" y2="141.99"/>
        <line class="cls-9" x1="217.57" y1="162.12" x2="430.65" y2="162.12"/>
        <path class="cls-41" d="m222.72,150.36h29.48c.61,0,1.11.35,1.11.79v1.45c0,.43-.5.79-1.11.79h-29.48c-.61,0-1.11-.35-1.11-.79v-1.45c0-.43.5-.79,1.11-.79Z"/>
        <path class="cls-35" d="m222.72,129.38h29.48c.61,0,1.11.35,1.11.79v1.45c0,.43-.5.79-1.11.79h-29.48c-.61,0-1.11-.35-1.11-.79v-1.45c0-.43.5-.79,1.11-.79Z"/>
        <path class="cls-41" d="m222.72,109.15h29.48c.61,0,1.11.35,1.11.79v1.45c0,.43-.5.79-1.11.79h-29.48c-.61,0-1.11-.35-1.11-.79v-1.45c0-.43.5-.79,1.11-.79Z"/>
        <path class="cls-35" d="m222.72,88.93h29.48c.61,0,1.11.35,1.11.79v1.45c0,.43-.5.79-1.11.79h-29.48c-.61,0-1.11-.35-1.11-.79v-1.45c0-.43.5-.79,1.11-.79Z"/>
        <rect class="cls-41" x="122.66" y="348.17" width="9.92" height="71.46"/>
        <rect class="cls-41" x="146.42" y="367.95" width="9.92" height="51.67"/>
        <rect class="cls-33" x="169.64" y="381.24" width="9.92" height="38.39"/>
        <rect class="cls-41" x="193.67" y="359.24" width="9.92" height="60.39"/>
        <rect class="cls-33" x="217.57" y="367.95" width="9.92" height="51.67"/>
      </g>
      <g>
        <rect class="cls-3" x="279.41" y="276.19" width="168.06" height="164.28" rx="6.25" ry="6.25"/>
        <rect class="cls-41" x="291.79" y="295.91" width="133.32" height="30.82" rx="10.1" ry="10.1"/>
        <g>
          <g>
            <rect class="cls-3" x="326.74" y="305.89" width="32.76" height="2.36" rx=".62" ry=".62"/>
            <rect class="cls-5" x="326.74" y="314.74" width="62.08" height="2.36" rx=".62" ry=".62"/>
          </g>
          <circle class="cls-3" cx="311.48" cy="310.34" r="6.76"/>
        </g>
        <g class="cls-42">
          <g>
            <rect class="cls-1" x="326.74" y="346.36" width="32.76" height="2.36" rx=".62" ry=".62"/>
            <rect class="cls-40" x="326.74" y="355.26" width="62.08" height="2.36" rx=".62" ry=".62"/>
          </g>
          <circle class="cls-40" cx="311.48" cy="350.81" r="7.37"/>
        </g>
        <g class="cls-42">
          <g>
            <rect class="cls-1" x="326.74" y="379.45" width="32.76" height="2.36" rx=".62" ry=".62"/>
            <rect class="cls-40" x="326.74" y="388.91" width="62.08" height="2.36" rx=".62" ry=".62"/>
          </g>
          <circle class="cls-40" cx="311.48" cy="383.9" r="7.37"/>
        </g>
        <rect class="cls-41" x="304.72" y="411.45" width="53.04" height="16.35" rx="4.56" ry="4.56"/>
        <rect class="cls-10" x="372.07" y="410.49" width="53.04" height="16.35" rx="4.56" ry="4.56"/>
        <rect class="cls-3" x="325.35" y="418.66" width="11.79" height="1.93" rx=".74" ry=".74"/>
        <rect class="cls-41" x="392.69" y="418.66" width="11.79" height="1.93" rx=".74" ry=".74"/>
      </g>
      <g>
        <rect class="cls-3" x="463.94" y="276.19" width="137.17" height="42.54" rx="7.66" ry="7.66"/>
        <circle class="cls-45" cx="489.04" cy="297.46" r="11.96"/>
        <rect class="cls-41" x="511.16" y="292.56" width="23.98" height="3.34" rx="1.03" ry="1.03"/>
        <rect class="cls-35" x="511.16" y="301.33" width="48.53" height="3.34" rx="1.03" ry="1.03"/>
        <path class="cls-41" d="m493.58,291.82l-12.34,4.82c-.23.08-.35.33-.27.56.05.14.16.24.3.28l2.34.7c.51.14.91.53,1.06,1.04l.92,2.92c.09.28.38.44.67.35.09-.03.16-.07.23-.14l1.25-1.28c.2-.21.53-.24.77-.07l2.77,2.02c.29.22.7.15.92-.14.06-.08.1-.17.12-.27l2.1-10.07c.1-.32-.07-.65-.39-.75-.14-.05-.3-.04-.43.03Zm-1.54,2.22l-4.96,4.39c-.27.24-.45.58-.48.94-.03.19-.2.32-.4.3-.13-.02-.24-.1-.28-.23l-.22-.72c-.17-.52.04-1.09.5-1.37l5.66-3.52c.06-.04.15-.02.19.04.04.06.03.13-.02.18h0Z"/>
        <rect class="cls-33" x="584.12" y="285.5" width="5.79" height="5.79" rx="1.62" ry="1.62"/>
      </g>
      <g>
        <rect class="cls-3" x="463.94" y="337.06" width="137.17" height="42.54" rx="7.66" ry="7.66"/>
        <circle class="cls-45" cx="489.04" cy="358.33" r="11.96"/>
        <rect class="cls-41" x="511.16" y="353.44" width="23.98" height="3.34" rx="1.03" ry="1.03"/>
        <rect class="cls-35" x="511.16" y="362.2" width="48.53" height="3.34" rx="1.03" ry="1.03"/>
        <path class="cls-41" d="m484.56,361.63c-.08.3-.16.67-.26,1.05-.11.42.15.86.57.97.13.03.27.03.4,0l1.03-.26c.34-.08.71-.04,1.03.1.98.45,2.08.59,3.15.42,3.08-.47,5.2-3.35,4.73-6.43-.47-3.08-3.35-5.2-6.43-4.73-3.08.47-5.2,3.35-4.73,6.43.08.5.22.98.42,1.44.14.32.18.67.1,1.01Zm2.9-5.76c.1-.09.23-.16.36-.18.08,0,.46-.04.58.24s.4.95.42,1.03c.05.07.06.16.02.24-.03.08-.08.16-.14.22-.06.08-.13.17-.2.24-.09.06-.12.19-.06.28.21.35.47.67.77.95.33.28.71.51,1.11.69.14.06.22.06.3-.04s.34-.4.44-.54.18-.12.32-.06c.12.04.81.38.95.44.1.03.19.09.26.16.04.22.02.44-.08.65-.12.31-.35.56-.65.71-.26.1-.56.14-1.87-.38-.99-.46-1.83-1.18-2.44-2.08-.32-.41-.51-.91-.56-1.43-.02-.43.15-.84.47-1.13h0Z"/>
        <rect class="cls-33" x="584.12" y="347.65" width="5.79" height="5.79" rx="1.62" ry="1.62"/>
      </g>
      <g>
        <rect class="cls-3" x="463.94" y="397.4" width="137.17" height="42.54" rx="7.66" ry="7.66"/>
        <circle class="cls-45" cx="489.04" cy="419.2" r="11.96"/>
        <rect class="cls-40" x="511.16" y="414.31" width="23.98" height="3.34" rx="1.03" ry="1.03"/>
        <rect class="cls-35" x="511.16" y="423.07" width="48.53" height="3.34" rx="1.03" ry="1.03"/>
        <path class="cls-41" d="m486.47,421.12h.74c.07,0,.13.06.13.13v4.67c0,.24.2.44.44.44h1.7c.24,0,.44-.2.44-.44v-4.67c0-.07.06-.13.13-.13h1.22c.22,0,.41-.15.44-.37l.28-1.7c.04-.25-.14-.48-.39-.52-.02,0-.03,0-.05,0h-1.44c-.11,0-.2-.09-.2-.2v-1.09c-.03-.21.13-.41.34-.44.03,0,.06,0,.09,0h1.29c.24,0,.44-.2.44-.44v-1.75c0-.24-.2-.44-.44-.44h-1.55c-2.84,0-2.77,2.29-2.77,2.62v1.59c0,.07-.06.13-.13.13h-.74c-.24,0-.44.2-.44.44v1.7c0,.25.21.45.46.46Z"/>
        <rect class="cls-33" x="584.12" y="407.25" width="5.79" height="5.79" rx="1.62" ry="1.62"/>
      </g>
    </g>
    <g>
      <rect class="cls-28" x="50.01" y="46.46" width="573.65" height="1.6"/>
      <path class="cls-3" d="m623.67,46.46V5.95c0-3.29-2.66-5.95-5.95-5.95H0v46.46"/>
      <line class="cls-15" x1="47.2" x2="47.2" y2="46.46"/>
      <g>
        <rect class="cls-39" x="79.32" y="10.82" width="246.23" height="24.83" rx="6.49" ry="6.49"/>
        <g>
          <path class="cls-44" d="m106.15,18.02c-1.56-1.76-4.26-1.91-6.01-.35-.12.11-.24.23-.35.35-1.76,1.96-1.76,4.93,0,6.9,1.56,1.76,4.26,1.91,6.01.35.12-.11.24-.23.35-.35,1.76-1.96,1.76-4.93,0-6.9Zm-5.41,5.86c-1.23-1.37-1.23-3.45,0-4.82,1.1-1.23,2.98-1.34,4.21-.24.09.08.17.16.24.24,1.23,1.37,1.23,3.45,0,4.82h0c-1.1,1.23-2.98,1.34-4.21.24-.09-.08-.17-.16-.24-.24h0Z"/>
          <path class="cls-44" d="m105.45,25.09l.87-.94h0l3.51,3.8s.02.07,0,.1h0l-.77.84s-.06.03-.09,0c0,0,0,0,0,0h0l-3.51-3.8h0Z"/>
          <g class="cls-25">
            <text class="cls-24" transform="translate(121.41 26.65)"><tspan x="0" y="0">Search for your topic , authour</tspan></text>
          </g>
        </g>
        <g>
          <g>
            <rect class="cls-8" x="443.99" y="17.64" width="11.41" height="7.13" rx="1.33" ry="1.33"/>
            <path class="cls-8" d="m444.37,17.88l4.57,2.85c.46.29,1.05.29,1.51,0l4.57-2.85"/>
          </g>
          <line class="cls-11" x1="471.28" y1="12.54" x2="471.28" y2="29.87"/>
          <line class="cls-11" x1="507.42" y1="12.54" x2="507.42" y2="29.87"/>
          <line class="cls-11" x1="543.55" y1="12.54" x2="543.55" y2="29.87"/>
          <g>
            <path class="cls-19" d="m485.42,22.13v-2.26c-.07-1.15.8-2.15,1.95-2.23h6.21c1.15.08,2.02,1.08,1.95,2.23v1.44c.07,1.15-.8,2.15-1.95,2.23l-5.73.09"/>
            <path class="cls-19" d="m485.42,22.13l-.89,3.25c-.06.16.1.3.22.21l3.22-2.05"/>
          </g>
          <g>
            <path class="cls-13" d="m528.83,25.62h-5.62l.96-.73s-.07-5.37,0-6.1,2.57-1.4,2.57-1.4"/>
            <path class="cls-13" d="m527.65,17.38s2.5.66,2.57,1.4,0,6.1,0,6.1l.96.73h-2.36"/>
            <line class="cls-13" x1="527.19" y1="17.38" x2="527.19" y2="15.66"/>
            <circle class="cls-47" cx="530.22" cy="17.71" r="2.06"/>
          </g>
          <circle class="cls-43" cx="562.36" cy="20.64" r="7.37"/>
          <g class="cls-25">
            <text class="cls-26" transform="translate(578.93 23.7)"><tspan x="0" y="0">Androw</tspan></text>
          </g>
        </g>
      </g>
    </g>
    <g>
      <rect class="cls-3" y="46.46" width="46.4" height="413.73"/>
      <g>
        <circle class="cls-14" cx="23.68" cy="111.9" r="2.47"/>
        <path class="cls-14" d="m22.91,114.36s-2.47.79-2.47,2.54v2.36"/>
        <path class="cls-14" d="m24.91,114.36s2.47.79,2.47,2.54v2.36"/>
      </g>
      <g>
        <g>
          <circle class="cls-14" cx="25.86" cy="153.47" r="1.98"/>
          <path class="cls-14" d="m26.84,155.44s1.98.63,1.98,2.03v2.23"/>
        </g>
        <g>
          <circle class="cls-14" cx="21.32" cy="156.45" r="2.12"/>
          <path class="cls-14" d="m20.66,158.57s-2.12.68-2.12,2.18v2.07"/>
          <path class="cls-14" d="m22.38,158.57s2.12.68,2.12,2.18v2.07"/>
        </g>
      </g>
      <g>
        <path class="cls-36" d="m23.93,202.8c1.75,0,3.43.7,4.67,1.94h0c2.58,2.58,2.58,6.75,0,9.33,0,0,0,0,0,0h0c-2.58,2.58-6.75,2.58-9.33,0h0c-.61-.62-1.1-1.35-1.43-2.15-.1-.25-.19-.51-.27-.77.14.01.28.02.42.02.26,0,.53-.02.79-.07.04.13.09.25.14.38,1.15,2.77,4.33,4.09,7.1,2.94,2.77-1.15,4.09-4.33,2.94-7.1-1.15-2.77-4.32-4.08-7.09-2.94-.06.02-.11.05-.17.07-.22-.34-.48-.65-.78-.92.16-.08.33-.16.5-.23.8-.33,1.66-.5,2.53-.5h0Zm-.76,3.46c0-.16.06-.3.17-.41.23-.23.6-.23.83,0,.11.11.17.26.17.42v3.08l2.3,1.37c.13.08.23.21.27.36.04.15.02.31-.06.44h0c-.08.13-.21.23-.36.27-.15.04-.31.02-.44-.06h0l-2.58-1.53c-.19-.1-.3-.3-.3-.51v-3.42h0Z"/>
        <path class="cls-32" d="m17.8,203.15c1.98,0,3.58,1.6,3.58,3.58s-1.6,3.58-3.58,3.58-3.58-1.6-3.58-3.58,1.6-3.58,3.58-3.58h0Zm0,5.64l1.92-2.38h-1.19v-1.26h-1.46v1.26h-1.19l1.92,2.38h0Z"/>
      </g>
      <g>
        <path class="cls-36" d="m25.84,255.38c-.34-.03-.63.22-.67.55v2.38c.07.37.42.61.79.54.27-.05.49-.27.54-.54v-2.37c-.03-.34-.33-.58-.66-.55Zm-.63,6.98h-1.81s-.07.16-.07.36.04.37.07.37h1.81s.07-.16.07-.37-.04-.36-.07-.36h0Zm3.05,0h-1.81s-.07.16-.07.36.03.37.07.37h1.81s.08-.16.08-.37-.04-.36-.08-.36h0Zm-5.94,2.11h-1.81s-.08.16-.08.36.04.37.08.37h1.81s.07-.16.07-.37-.03-.36-.07-.36h0Zm2.89,0h-1.81s-.07.16-.07.36.04.37.07.37h1.81s.07-.16.07-.37-.04-.36-.07-.36h0Zm3.05,0h-1.81s-.07.16-.07.36.03.37.07.37h1.81s.08-.16.08-.37-.04-.36-.08-.36h0Zm-8.83,2.11h-1.81s-.08.16-.08.36.04.37.08.37h1.81s.07-.16.07-.37-.03-.36-.07-.36h0Zm2.89,0h-1.81s-.07.16-.07.36.03.37.07.37h1.81s.08-.16.08-.37-.04-.36-.08-.36h0Zm2.89,0h-1.81s-.07.16-.07.36.04.37.07.37h1.81s.07-.16.07-.37-.04-.36-.07-.36h0Zm3.05,0h-1.81s-.07.16-.07.36.03.37.07.37h1.81s.08-.16.08-.37-.04-.36-.08-.36h0Zm-4.2-9.8h-2.46c-.2,0-.37.16-.37.36,0,0,0,0,0,.01,0,.2.17.37.37.37h2.46c.2,0,.37-.17.37-.37,0-.2-.15-.37-.35-.38,0,0-.01,0-.02,0h0Z"/>
        <path class="cls-32" d="m19.47,256.53c-1.4-1.4-3.68-1.4-5.08,0s-1.4,3.68,0,5.08h0c.67.68,1.59,1.06,2.54,1.06,1.98,0,3.59-1.61,3.59-3.59,0-.96-.38-1.87-1.06-2.55h0Zm-.98,1.81s-.01.05-.02.07c0,.03-.02.05-.03.08-.01.02-.03.04-.05.06l-1.6,1.68s-.03.03-.06.04c-.02.02-.04.03-.07.05-.03.01-.05.02-.08.02-.03,0-.05.01-.08.01h-.09s-.05-.01-.07-.02l-.07-.03h-.01s-.04-.03-.06-.05c-.1-.09-.19-.18-.29-.27-.2-.17-.39-.34-.57-.53-.02-.02-.03-.04-.05-.06-.01-.02-.03-.04-.04-.06-.03-.08-.04-.16-.02-.24.01-.08.05-.15.1-.2l.02-.02c.13-.13.34-.15.49-.06.02.01.05.03.07.05h0c.11.11.3.29.43.41l.1.09,1.33-1.37s.03-.04.06-.06c.02-.01.05-.03.07-.03s.06-.02.08-.03h.16s.05.01.08.02l.07.03s.04.03.07.05h.01s.04.06.05.08c.01.02.03.04.03.07l.04.07v.17Z"/>
        <path class="cls-34" d="m29.93,257.86v11.03c0,.35-.28.62-.63.63h-12.42c-.28,0-.56-.11-.76-.31-.2-.2-.32-.47-.31-.76v-4.76h.73v4.76c0,.09.03.17.09.24.07.06.15.09.24.09h11.69c.34,0,.62-.28.63-.63v-6.81h-7.95v-.73h7.96v-2.75c0-.09-.03-.18-.1-.24-.06-.06-.15-.1-.24-.1h-1.21c-.2,0-.37-.17-.37-.37,0-.2.16-.37.36-.37h1.22c.59,0,1.07.48,1.07,1.07h0s0,.01,0,.01Z"/>
      </g>
      <g>
        <circle class="cls-31" cx="23.26" cy="384.33" r="11.35"/>
        <g>
          <line class="cls-20" x1="28.83" y1="384.33" x2="18.12" y2="384.33"/>
          <path class="cls-20" d="m24.77,380.03l4.3,4.3-4.3,4.3"/>
        </g>
      </g>
      <path class="cls-36" d="m22.27,308.98c.06-.06.15-.09.23-.09.02,0,.04,0,.06,0h5.44c.2,0,.4.08.54.23.15.14.23.34.23.55v12.91c0,.43-.35.77-.77.77h-9.09c-.43,0-.77-.35-.77-.77v-9.18s-.01-.06-.01-.09c0-.1.05-.19.12-.26l3.99-4.04s.02-.02.03-.03h.01Zm5.81.69s0-.04-.03-.06c-.01-.01-.03-.02-.05-.03h-5.15v3.02c0,.58-.47,1.05-1.04,1.05h-2.97v8.92s0,.04.02.06c.01.02.03.02.06.03h9.09s.04,0,.06-.03c.02-.01.02-.03.03-.06v-12.91h0Zm-7.3,11.15c-.17,0-.3-.16-.29-.33,0-.16.13-.28.29-.29h3.3c.17,0,.32.12.33.29s-.12.32-.29.33c-.01,0-.02,0-.04,0h-3.3Zm0-2.09c-.17,0-.3-.16-.29-.33,0-.16.13-.28.29-.29h5.04c.17,0,.3.16.29.33,0,.16-.13.28-.29.29h-5.04Zm0-2.09c-.17,0-.3-.16-.29-.33,0-.16.13-.28.29-.29h5.81c.17,0,.32.12.33.29s-.12.32-.29.33c-.01,0-.02,0-.04,0h-5.81Zm1.38-4.03v-2.53l-2.85,2.89h2.49c.09,0,.18-.04.25-.1.07-.07.1-.16.1-.25h0Z"/>
      <rect class="cls-23" y="46.46" width="47.2" height="36.59"/>
      <rect class="cls-31" y="46.52" width="2.05" height="36.46"/>
      <path class="cls-31" d="m15.07,59.63c-.29,0-.52-.24-.52-.53,0-.29.23-.52.52-.52h.78c.44,0,.88.11,1.27.33.43.28.74.71.85,1.21,0,.01,0,.03.01.04l.13.54h1.54c.1.4.32.77.63,1.04h-1.88l1.19,4.47h8.41l1.1-4.47h-1.83c.31-.27.53-.64.63-1.04h1.86c.29,0,.52.23.52.52,0,.05-.01.11-.03.16l-1.36,5.48c-.05.24-.26.4-.51.4h-8.54c.06.47.29.91.63,1.24.55.21,1.15.28,1.73.2h6.04c.29,0,.52.23.52.52s-.23.52-.52.52h-6.03c-.8.11-1.61-.02-2.33-.37-.64-.55-1.05-1.33-1.15-2.17h0l-1.79-6.76s0-.01-.01-.03c-.05-.25-.19-.46-.4-.6-.22-.13-.48-.19-.73-.17h-.76,0Zm8.32,2.82l-2.16-1.77c-.26-.22-.29-.61-.06-.87.21-.24.58-.28.84-.09l1.16.97v-3.48c-.01-.34.25-.62.59-.64s.62.25.64.59c0,.02,0,.03,0,.05v3.48l1.17-.97c.27-.21.65-.17.86.09s.17.65-.09.86h0l-2.16,1.77h0c-.22.19-.54.19-.77,0h0s0,0,0,0Zm1.97,1.85c.04-.2.23-.33.43-.29.15.03.26.14.29.29v.62c-.04.2-.23.33-.43.29-.15-.03-.26-.14-.29-.29v-.62Zm-2.17,0c.04-.2.24-.33.44-.29.15.03.26.14.29.29v.62c-.04.2-.24.33-.44.29-.15-.03-.26-.14-.29-.29v-.62Zm-2.17,0c.04-.2.24-.33.44-.29.15.03.26.14.29.29v.62c-.04.2-.24.33-.44.29-.15-.03-.26-.14-.29-.29v-.62Zm5.69,6.04c.71,0,1.28.57,1.28,1.28s-.57,1.28-1.28,1.28-1.28-.57-1.28-1.28h0c0-.71.57-1.28,1.28-1.28h0Zm-5.61,0c.71,0,1.28.57,1.28,1.28s-.57,1.28-1.28,1.28-1.28-.57-1.28-1.28h0c0-.71.57-1.28,1.28-1.28Z"/>
    </g>
  </g>
  <path class="cls-18" d="m279.41,141.99s24.96-43.28,55.68,0,47.33-19.23,47.33-19.23"/>
  <path class="cls-7" d="m279.41,108.67s24.96-43.28,55.68,0,47.33-19.23,47.33-19.23"/>
  <rect class="cls-35" x="414.83" y="86.05" width="11.8" height="11.8" rx="3.16" ry="3.16"/>
  <rect class="cls-41" x="414.83" y="106.68" width="11.8" height="11.8" rx="3.16" ry="3.16"/>
  <rect class="cls-35" x="414.83" y="127.31" width="11.8" height="11.8" rx="3.16" ry="3.16"/>
  <rect class="cls-41" x="414.83" y="147.94" width="11.8" height="11.8" rx="3.16" ry="3.16"/>
</svg>