<svg xmlns="http://www.w3.org/2000/svg" width="826.799" height="698.759" viewBox="0 0 826.799 698.759">
  <g id="contactsvg" transform="translate(-383 -150.436)">
    <g id="contactsvg-2" data-name="contactsvg">
      <g id="contactsvg-3" data-name="contactsvg">
        <g id="contactsvg-4" data-name="contactsvg">
          <g id="contactsvg-5" data-name="contactsvg">
            <g id="undraw_Developer_activity_re_39tg" transform="translate(383 150)">
              <path id="Path_1377" data-name="Path 1377" d="M913.554,460.3c.111,89.754-35.322,176.054-98.85,240.76q-5.745,5.889-11.8,11.495c-6.15,5.728-73.351,45.954-79.914,51.238-61.4,49.527-110.7-39.675-190.231-38.03q-3.975.088-7.98.088c-63.43,0-81.66,45.92-154.06,0q-8.985-5.7-17.81-11.661-4.125-2.761-8.21-5.6a727.575,727.575,0,0,1-79.32-63.446,507.805,507.805,0,0,1-45.75-47.9c-55.63-67.186-67.9-127.724,11.41-140.168q14.085-2.2,27.34-4.709,19.2-3.613,36.75-7.8,23.64-5.625,44.42-12.2,6.99-2.2,13.66-4.494c65.74-22.607,109.74-52.088,139.69-84.075q7.62-8.122,14.05-16.439a230.731,230.731,0,0,0,17.83-26.553,247.022,247.022,0,0,0,18.41-40.192l.27-.764c23.83-67.3,16.58-129.731,42.87-150.625,112.38-89.323,224.235,41.1,289.905,191.11q4.965,11.338,9.34,22.813,1.965,5.126,3.79,10.271,4.8,13.409,8.71,26.886,1.5,5.14,2.86,10.271c.97,3.691,1.9,7.373,2.76,11.054C910.084,408.581,913.554,435.163,913.554,460.3Z" transform="translate(-174.731 -79.585)" fill="#f2f2f2"/>
              <path id="Path_1381" data-name="Path 1381" d="M601.829,335.535h-22.26a2.6,2.6,0,0,0-2.6,2.6V360.4a2.595,2.595,0,0,0,2.6,2.6h22.26a2.6,2.6,0,0,0,2.6-2.6v-22.26A2.608,2.608,0,0,0,601.829,335.535Z" transform="translate(-174.731 -79.585)" fill="#e6e6e6"/>
              <path id="Path_1382" data-name="Path 1382" d="M604.389,375.625a2.617,2.617,0,0,0-2.56-2.14h-22.26a2.6,2.6,0,0,0-2.6,2.6v22.26a2.595,2.595,0,0,0,2.6,2.6h22.26a2.6,2.6,0,0,0,2.6-2.6v-22.26a2.311,2.311,0,0,0-.04-.46Z" transform="translate(-174.731 -79.585)" fill="#e6e6e6"/>
              <path id="Path_1383" data-name="Path 1383" d="M602.839,411.635a2.634,2.634,0,0,0-1.01-.2h-22.26a2.595,2.595,0,0,0-2.6,2.6v22.26a2.588,2.588,0,0,0,2.6,2.6h22.26a2.6,2.6,0,0,0,2.6-2.6v-22.26a2.616,2.616,0,0,0-1.59-2.4Z" transform="translate(-174.731 -79.585)" fill="#e6e6e6"/>
              <path id="Path_1388" data-name="Path 1388" d="M648.589,411.435h-22.26a2.595,2.595,0,0,0-2.6,2.6V436.3a2.595,2.595,0,0,0,2.6,2.6h22.26a2.6,2.6,0,0,0,2.6-2.6v-22.26a2.6,2.6,0,0,0-2.6-2.6Z" transform="translate(-174.731 -79.585)" fill="#e6e6e6"/>
              <path id="Path_1429" data-name="Path 1429" d="M336.1,660.051h-.62l.53-.07Z" fill="#2f2e41"/>
              <path id="Path_1430" data-name="Path 1430" d="M634.279,420.676l-.22,1.1-2.47,12.348-17.07,85.41-1.01,5.028-2.12,10.634-2.9,14.506-6.43,32.147-1.84,9.213-.69,3.456-.24,1.212-1.91,9.535-.58,2.878-4.66,32.7-4.07,28.492,13.62,12.9-8.12,7.689-5.33,28.909,3.2,20.81s-16.856-10.805-36.928-10.822-39,0-39,0a222.945,222.945,0,0,0-33.1,6.659c-16.431,4.8-27.325,7.951-44.758,9.634s-30.1-2.367-30.1-2.367c-1.9-1.166-19.3-7.418-24.349-10.145-8.618-4.652-16.905-9.634-24.413-14.623-4.162-2.766-7.923-4.8-11.856-8.245-8.138-4.419-7.006-6.736-6.677-7.9l6.221-12.313s6.16-22.659,3.57-25.367-8.24-7.547-8.24-7.547l7.13-15.756.99-2.187-1.66-32.6-.04-.786-.55-10.747-.07-1.383-.11-2.074L345.4,549.7l-.04-.682-.64-12.537-.6-11.921-.26-5.028-2.57-50.309-1.74-34.164-1.52-29.742,6.11-1.96,65.35-21.031L436.559,349l56.34.4,27.58.2,46.02,40.414,10.47,4.734.08.038,7.51,3.4,19.04,8.607,20.13,9.109,10.33,4.668Z" transform="translate(-174.731 -79.585)" fill="#cacaca"/>
              <path id="Path_1431" data-name="Path 1431" d="M443.84,637.136a30.286,30.286,0,0,1-40.664-22.43L296.617,599.588l37.043-41.9,95.511,20.78a30.45,30.45,0,0,1,14.669,58.67Z" transform="translate(-174.731 -79.585)" fill="#ffb6b6"/>
              <path id="Path_1432" data-name="Path 1432" d="M396.329,560.955a13.522,13.522,0,0,0-7.89-4.87l-43.72-9.09-4.49-.93a18.933,18.933,0,0,1-12.53-9.07,19.16,19.16,0,0,1-2.45-7.9,18.9,18.9,0,0,1,.89-7.48l15.15-45.65,9.83-29.62a41.794,41.794,0,0,0,2.09-11.05,43.349,43.349,0,0,0-9.07-28.89,42.693,42.693,0,0,0-49.01-13.64c-.25.09-.51.19-.76.29a42.583,42.583,0,0,0-25.31,28.41l-10.68,38.85-22.03,80.09a57.766,57.766,0,0,0,48.96,72.68l62.97,7.38,29.14,3.42a13.5,13.5,0,0,0,14.84-10.73,4.9,4.9,0,0,0,.11-.55l.7-4.32,5.93-36.38.06-.37a13.475,13.475,0,0,0-2.73-10.58Z" transform="translate(-174.731 -79.585)" fill="#cacaca"/>
              <path id="Path_1433" data-name="Path 1433" d="M511.714,638.3a30.286,30.286,0,0,0,37.095-27.94L652.17,580.368l-42.581-36.259-91.626,34.042a30.45,30.45,0,0,0-6.249,60.152Z" transform="translate(-174.731 -79.585)" fill="#ffb6b6"/>
              <path id="Path_1434" data-name="Path 1434" d="M703.489,513.275l-49.16-113.14a42.819,42.819,0,0,0-20.27-21.35,43.357,43.357,0,0,0-8.78-3.2c-.47-.12-.94-.23-1.41-.32a42.132,42.132,0,0,0-19.48.36,42.813,42.813,0,0,0-27.34,21.73,1,1,0,0,0-.08.14,43.1,43.1,0,0,0-.37,38.85l.61,1.22,34.74,69.77a18.9,18.9,0,0,1-10.5,26.19l-2.44.88-43.88,15.85a13.5,13.5,0,0,0-8.33,16.79l.11.35,12.3,39.36c.06.18.12.36.19.54a7.052,7.052,0,0,0,.4.99,13.482,13.482,0,0,0,15.81,7.53l23.68-6.25,4.83-1.28,61.15-16.15a57.76,57.76,0,0,0,38.22-78.86Z" transform="translate(-174.731 -79.585)" fill="#cacaca"/>
              <path id="Path_1435" data-name="Path 1435" d="M219.629,608.285a590.6,590.6,0,0,0,58.145,48.92L840,656.958c11.269.014,28.379,3.9,43.809-48.674.342-.617-10.391.836-9.922,0Z" transform="translate(-174.731 -79.585)" fill="#3f3d56"/>
              <path id="Path_1436" data-name="Path 1436" d="M842.759,711.025q-5.745,6.015-11.8,11.74h-96.21v-11.74Z" transform="translate(-174.731 -79.585)" fill="#fff"/>
              <path id="Path_1437" data-name="Path 1437" d="M633.379,335.535a5.538,5.538,0,0,0-4.87-2.9H300.669a5.554,5.554,0,0,0-5.54,5.55v196.22h338.93V338.185A5.385,5.385,0,0,0,633.379,335.535Z" transform="translate(-174.731 -79.585)" fill="#3f3d56"/>
              <path id="Path_1438" data-name="Path 1438" d="M294.832,529.092v24.214a7.644,7.644,0,0,0,7.644,7.644h125.1v47.787h-1.662a.993.993,0,0,0-.993.993v3.324a.993.993,0,0,0,.993.993H503.57a.993.993,0,0,0,.993-.993v-3.324a.993.993,0,0,0-.993-.993h-1.662V560.95H627a7.644,7.644,0,0,0,7.644-7.644V529.092Z" transform="translate(-174.731 -79.585)" fill="#3f3d56"/>
              <circle id="Ellipse_172" data-name="Ellipse 172" cx="31.306" cy="31.306" r="31.306" transform="translate(254.597 317.398)" fill="#6c63ff"/>
              <g id="Group_481" data-name="Group 481" transform="translate(21.557 -33.344) rotate(7)">
                <circle id="ab6171fa-7d69-4734-b81c-8dff60f9761b" cx="68.322" cy="68.322" r="68.322" transform="translate(214.492 108.411)" fill="#ffb6b6"/>
                <path id="bf427902-b9bf-4946-b5d7-5c1c7e04535e" d="M517.377,206.226s17.869-34.161-21.444-37.266c0,0-33.515-30.4-67.676-5.558,0,0-18.633,0-28.823,21.086,0,0-14.655-5.558-17.875,9.317,0,0-10.724,31.055,0,59.005s14.285,31.055,14.285,31.055-17.621-58.6,25.27-61.7,90.887-29.909,94.461,4.251,8.953,42.578,8.953,42.578S558.479,220.2,517.377,206.226Z" transform="translate(-174.731 -79.585)" fill="#2f2e41"/>
                <path id="Path_1439" data-name="Path 1439" d="M540.4,252.585h-5c0-37.8-37.41-62.57-75.15-62.59a82.384,82.384,0,0,0-16.35,1.59c-6.06,1.21-12.35,2.66-18.53,4.55-24.37,7.47-46.97,21.91-46.97,56.45a78.589,78.589,0,0,0,2.54,19.88l-4.84,1.26a83.875,83.875,0,0,1-2.7-21.14c0-30.18,12.39-50.91,33.79-63.27,11.25-6.5,24.98-10.69,40.71-12.73a97.131,97.131,0,0,1,19.75-.6C511.049,179.1,540.4,212.385,540.4,252.585Z" transform="translate(-174.731 -79.585)" fill="#6c63ff"/>
                <path id="Path_1440" data-name="Path 1440" d="M548.729,255.355l-1.97-14.56a15.914,15.914,0,0,0-18.25-13.56l-3.13.43a6.581,6.581,0,0,0-5.64,7.4l4.55,33.54a6.577,6.577,0,0,0,5.3,5.57,6.154,6.154,0,0,0,1.22.12,6.49,6.49,0,0,0,.879-.06l3.5-.47a15.792,15.792,0,0,0,10.74-6.43c.27-.38.53-.77.77-1.17A16.749,16.749,0,0,0,548.729,255.355Z" transform="translate(-174.731 -79.585)" fill="#6c63ff"/>
                <path id="Path_1441" data-name="Path 1441" d="M523.359,228.275a6.431,6.431,0,0,0-2.33,1.92,6.548,6.548,0,0,0-1.29,4.87l4.55,33.54a6.577,6.577,0,0,0,5.3,5.57Z" transform="translate(-174.731 -79.585)" fill="#fff"/>
                <path id="Path_1442" data-name="Path 1442" d="M548.729,255.355l-1.97-14.56a15.71,15.71,0,0,0-5-9.56l4.53,33.37a6.175,6.175,0,0,0,.41,1.56,16.748,16.748,0,0,0,2.03-10.81Z" transform="translate(-174.731 -79.585)" fill="#3f3d56"/>
                <ellipse id="Ellipse_173" data-name="Ellipse 173" cx="2.5" cy="7" rx="2.5" ry="7" transform="translate(354.067 172.721) rotate(-7.726)" fill="#3f3d56"/>
                <ellipse id="Ellipse_174" data-name="Ellipse 174" cx="2.5" cy="7" rx="2.5" ry="7" transform="translate(351.067 154.721) rotate(-7.726)" fill="#3f3d56"/>
                <ellipse id="Ellipse_175" data-name="Ellipse 175" cx="2.5" cy="7" rx="2.5" ry="7" transform="translate(370.067 161.721) rotate(-7.726)" fill="#3f3d56"/>
                <path id="Path_1444" data-name="Path 1444" d="M396.409,287.285l-7.7-32.01a6.024,6.024,0,0,0-4.88-4.55,6.734,6.734,0,0,0-1-.08,6.027,6.027,0,0,0-1.4.17l-2.98.72a14.9,14.9,0,0,0-10.99,17.96l3.45,14.36a15.845,15.845,0,0,0,5.34,8.62,14.048,14.048,0,0,0,1.36.97,14.809,14.809,0,0,0,11.37,1.84l2.97-.72a5.84,5.84,0,0,0,2.17-1.01,5.993,5.993,0,0,0,2.29-6.27Z" transform="translate(-174.731 -79.585)" fill="#6c63ff"/>
                <ellipse id="Ellipse_176" data-name="Ellipse 176" cx="2.5" cy="7" rx="2.5" ry="7" transform="translate(199.83 188.719) rotate(-13.53)" fill="#3f3d56"/>
                <ellipse id="Ellipse_177" data-name="Ellipse 177" cx="2.5" cy="7" rx="2.5" ry="7" transform="translate(189.83 191.719) rotate(-13.53)" fill="#3f3d56"/>
                <path id="Path_1445" data-name="Path 1445" d="M396.9,287.165l-7.7-32.01a6.532,6.532,0,0,0-5.29-4.92l10.51,43.72a6.511,6.511,0,0,0,2.48-6.79Z" transform="translate(-174.731 -79.585)" fill="#fff"/>
                <path id="Path_1446" data-name="Path 1446" d="M369.2,263.155a6.476,6.476,0,0,0-1.17-2.45,14.725,14.725,0,0,0-.57,8.79l3.45,14.36a15.845,15.845,0,0,0,5.34,8.62Z" transform="translate(-174.731 -79.585)" fill="#3f3d56"/>
              </g>
            </g>
          </g>
        </g>
      </g>
      <g id="undraw_Instant_information_re_c5v5" transform="translate(1109 593)">
        <rect id="Rectangle_871" data-name="Rectangle 871" width="96" height="54" rx="12" transform="translate(-207.201 -313)" fill="#b6b8fb"/>
        <rect id="Rectangle_872" data-name="Rectangle 872" width="96" height="54" rx="10" transform="translate(-10.201 -323)" fill="#f1f1f1"/>
        <rect id="Rectangle_873" data-name="Rectangle 873" width="96" height="54" rx="11" transform="translate(4.799 -226.563)" fill="#f1f1f1"/>
        <rect id="Rectangle_874" data-name="Rectangle 874" width="96" height="54" rx="9" transform="translate(-65.201 -360)" fill="#e5e5e5"/>
        <rect id="Rectangle_875" data-name="Rectangle 875" width="163" height="91.875" rx="15" transform="translate(-154.201 -271)" fill="#585df9"/>
        <circle id="Ellipse_179" data-name="Ellipse 179" cx="14.242" cy="14.242" r="14.242" transform="translate(-142.753 -217.935)" fill="#fefeff"/>
        <path id="Path_1447" data-name="Path 1447" d="M-267.612-163.8h139.1v-39.057" transform="translate(0 20.731)" fill="none" stroke="#707070" stroke-linecap="round" stroke-width="3" stroke-dasharray="6 9"/>
      </g>
    </g>
    <line id="Line_87" data-name="Line 87" x2="27" transform="translate(1063.5 342.5)" fill="none" stroke="#fefeff" stroke-linecap="round" stroke-width="5"/>
    <line id="Line_88" data-name="Line 88" x2="53.044" transform="translate(1037.456 357.5)" fill="none" stroke="#fefeff" stroke-linecap="round" stroke-width="5"/>
    <line id="Line_89" data-name="Line 89" x2="53.044" transform="translate(1037.456 372.5)" fill="none" stroke="#fefeff" stroke-linecap="round" stroke-width="5"/>
  </g>
</svg>
