<svg xmlns="http://www.w3.org/2000/svg" width="527.182" height="245.69" viewBox="0 0 527.182 245.69">
  <g id="devopssvg" transform="translate(-130.88 -184.38)">
    <path id="Path_956" data-name="Path 956" d="M622.28,393.28a121.626,121.626,0,0,1-67.37,34.28l-19.76-20.4,13.08-24.08a77.277,77.277,0,0,0,63.47-90.95l23.74,7.58L655,279.45A122.385,122.385,0,0,1,622.28,393.28Z" fill="#6c63ff"/>
    <path id="Path_957" data-name="Path 957" d="M651.89,268.27l-19.33,20.02-23.99-7.65a77.354,77.354,0,0,0-127.54-28.6l-1.06,1.06-3.48-28.56-27.95-3.65.67-.67a122.336,122.336,0,0,1,202.68,48.05Z" fill="#6c63ff"/>
    <path id="Path_958" data-name="Path 958" d="M471,262.07l-36.46,36.47-3.88,3.87-39.12,39.13-51.75,51.74A123.288,123.288,0,0,1,323,407.34V380.73l-24.91-10.9a77.331,77.331,0,0,0,9.88-8.37l94.75-94.74,36.89-36.9,27.9,3.64Z" fill="#3ea8f7"/>
    <path id="Path_959" data-name="Path 959" d="M451.88,332.31l-25,6.06-3.26,29.32-21.74-21.74,31.3-32.34Z" fill="#3ea8f7"/>
    <path id="Path_960" data-name="Path 960" d="M543.27,429.89h-.03c-2.16.12-4.33.18-6.49.18a122.005,122.005,0,0,1-86.54-35.79l-18.44-18.44,3.35-30.21,24.21-5.87,22.7,22.7a77.062,77.062,0,0,0,53.74,22.61l-12.92,23.77,19.42,20.05h.03Z" fill="#6c63ff"/>
    <path id="Path_961" data-name="Path 961" d="M313,387.27V413.6A122.414,122.414,0,0,1,130.88,306.75c0-.2,0-.41.01-.61l23.2,15.99,21.83-16a77.411,77.411,0,0,0,111.64,70.01Z" fill="#3ea8f7"/>
    <path id="Path_962" data-name="Path 962" d="M271.16,207.91l7.68,25.82a77.594,77.594,0,0,0-80.3,18.31,76.917,76.917,0,0,0-21.37,40.77l-23.26,17.06L131.49,294.4A122.568,122.568,0,0,1,295.11,191.69Z" fill="#3ea8f7"/>
    <path id="Path_963" data-name="Path 963" d="M387.19,268.19l-31.18,31.89-48.04-48.04a76.893,76.893,0,0,0-17.09-12.9l-8.04-27.05,23.27-15.77a122.133,122.133,0,0,1,33.68,23.9Z" fill="#3ea8f7"/>
  </g>
</svg>
