<svg xmlns="http://www.w3.org/2000/svg" width="30.321" height="30.321" viewBox="0 0 30.321 30.321">
  <g id="Email" transform="translate(-124.567 -80.146)">
    <path id="Path_1" data-name="Path 1" d="M154.888,87.35v15.913a7.215,7.215,0,0,1-7.2,7.2H131.8a7.222,7.222,0,0,1-7.236-7.2V87.35a7.222,7.222,0,0,1,7.236-7.2h15.881a7.215,7.215,0,0,1,7.2,7.2" transform="translate(0 0)" fill="#41529f"/>
    <path id="Path_2" data-name="Path 2" d="M147.218,83.815,141.439,89.6l5.779,5.779a1.773,1.773,0,0,0,.067-.455V84.27a1.752,1.752,0,0,0-.067-.455m-8.2,5.693,6.945-6.948a1.794,1.794,0,0,0-.455-.067H127.751a1.794,1.794,0,0,0-.455.067l6.948,6.948a3.386,3.386,0,0,0,4.774,0m-2.389,2.76a5.125,5.125,0,0,1-3.541-1.425L127.3,96.632a1.794,1.794,0,0,0,.455.067h17.757a1.794,1.794,0,0,0,.455-.067l-5.789-5.789a5.127,5.127,0,0,1-3.544,1.425m-10.588-8.453a1.752,1.752,0,0,0-.067.455V94.922a1.772,1.772,0,0,0,.067.455l5.782-5.779Z" transform="translate(3.098 5.168)" fill="#fff"/>
  </g>
</svg>
