<svg xmlns="http://www.w3.org/2000/svg" width="51.596" height="51.595" viewBox="0 0 51.596 51.595">
  <g id="Linkedin" transform="translate(-320.396 -27.29)">
    <rect id="Rectangle_1" data-name="Rectangle 1" width="51.596" height="51.595" rx="11" transform="translate(320.396 27.29)" fill="#0064b0"/>
    <path id="Path_6" data-name="Path 6" d="M322.4,39.333h7.166V63.695H322.4Zm3.562-2.868h-.043a3.626,3.626,0,1,1,.043,0M356.8,63.695h-7.166V50.656c0-3.151-1.755-5.3-4.572-5.3a4.1,4.1,0,0,0-3.878,2.855,10.2,10.2,0,0,0-.15,2.594V63.695h-7.161V39.333h7.161v3.746a7.258,7.258,0,0,1,6.789-3.746c5.133,0,8.977,3.223,8.977,10.424Z" transform="translate(6.591 6.59)" fill="#fff"/>
  </g>
</svg>
