<svg xmlns="http://www.w3.org/2000/svg" width="485.058" height="502.294" viewBox="0 0 485.058 502.294"><g transform="translate(-272.954 -161)"><g transform="translate(272.954 161)"><g transform="translate(442.751 38.423)"><path d="M798.576,230.011c-3.2,9.14-25.22,25.632-31.585,30.256a1.506,1.506,0,0,1-2.068-.285,1.441,1.441,0,0,1-.242-.48c-2.141-7.432-9.226-33.544-6.024-42.684,3.809-10.687,15.816-16.351,26.82-12.653A20.342,20.342,0,0,1,798.576,230.011Z" transform="translate(-757.363 -203.034)" fill="#dcdbdb"/><ellipse cx="10.727" cy="10.417" rx="10.727" ry="10.417" transform="translate(11.004 8.603)" fill="#fff"/><ellipse cx="4.808" cy="4.67" rx="4.808" ry="4.67" transform="translate(0 62.641)" fill="#6c63ff"/></g><g transform="translate(0 221.813)" opacity="0.72"><path d="M275.341,421.516l47.267-17.621a3.652,3.652,0,0,1,4.675,2.021l10.764,27.234h0L283.93,453.325h0L273.2,426.181a3.58,3.58,0,0,1,2.139-4.665Z" transform="translate(-272.954 -403.661)" fill="#d5cfcf"/><path d="M285,456.084l54.081-20.161,1.932,4.89a2.078,2.078,0,0,1-1.24,2.707L289.92,462.105a2.4,2.4,0,0,1-3.066-1.326Z" transform="translate(-273.989 -406.432)" fill="#857dfb"/><path d="M312.657,455.95l8.9-3.316,2.088,5.281-8.9,3.316Z" transform="translate(-276.365 -407.868)" fill="#6c63ff"/><path d="M308.952,463.543l19.492-7.267a1.827,1.827,0,0,1,2.337,1.011l.537,1.359h0l-22.659,8.447h0l-.618-1.564a1.524,1.524,0,0,1,.91-1.986Z" transform="translate(-275.959 -408.171)" fill="#857dfb"/><path d="M283.571,427.426l11.279-4.2,2.964,7.5-11.279,4.2Z" transform="translate(-273.866 -405.341)" fill="#fff"/><path d="M287.715,437.911l11.279-4.2.7,1.761-11.279,4.2Z" transform="translate(-274.222 -406.242)" fill="#fff"/></g><g transform="translate(127.211)"><path d="M625.472,161H463.013c-26.535.03-48.037,20.913-48.068,46.682v14.262a2.239,2.239,0,0,0-2.743,1.513,2.128,2.128,0,0,0-.08.6v10.967a2.2,2.2,0,0,0,2.207,2.192,2.3,2.3,0,0,0,.617-.078v16.605a2.24,2.24,0,0,0-2.743,1.514,2.128,2.128,0,0,0-.08.6v27.418a2.2,2.2,0,0,0,2.2,2.192,2.28,2.28,0,0,0,.619-.078v10.026a2.24,2.24,0,0,0-2.743,1.514,2.117,2.117,0,0,0-.08.6v27.425a2.2,2.2,0,0,0,2.2,2.192,2.281,2.281,0,0,0,.619-.078V616.612c.03,25.769,21.533,46.652,48.068,46.682h162.46c26.535-.03,48.038-20.913,48.068-46.682V207.682C673.518,181.91,652.011,161.022,625.472,161Zm37.906,455.613c-.024,20.322-16.981,36.791-37.906,36.814H463.013c-20.925-.023-37.882-16.492-37.906-36.814V207.682c.024-20.322,16.981-36.79,37.906-36.813h162.46c20.925.023,37.882,16.491,37.906,36.813Z" transform="translate(-412.121 -161)" fill="#7e7e7e"/><path d="M626.154,659.324H463.694c-24.041-.026-43.525-18.948-43.553-42.3V208.1c.027-23.349,19.511-42.271,43.553-42.3H626.154c24.042.027,43.525,18.948,43.552,42.3V617.027C669.679,640.376,650.2,659.3,626.154,659.324Z" transform="translate(-412.81 -161.412)" fill="#e6e6e6"/><path d="M631.131,653.36H460.638c-16.215-.017-29.356-12.78-29.374-28.528V201.525c.018-15.748,13.159-28.509,29.374-28.528h22.234a4.788,4.788,0,0,1,4.857,4.717,14.156,14.156,0,0,0,14.343,13.931h85.368a14.157,14.157,0,0,0,14.343-13.93A4.788,4.788,0,0,1,606.641,173h24.493c16.214.019,29.353,12.78,29.372,28.527V624.832C660.487,640.581,647.347,653.343,631.131,653.36Z" transform="translate(-413.766 -162.031)" fill="#fff"/><path d="M562.575,183.084H542.248a2.194,2.194,0,0,1,0-4.387h20.327a2.2,2.2,0,1,1,.213,4.387c-.071,0-.143,0-.213,0Z" transform="translate(-423.115 -162.52)" fill="#fff"/></g><g transform="translate(174.954 53.611)"><path d="M477.521,219.65H616.461a12.983,12.983,0,0,1,13.169,12.79h0a12.984,12.984,0,0,1-13.169,12.79H477.521a12.984,12.984,0,0,1-13.169-12.79h0A12.983,12.983,0,0,1,477.521,219.65Z" transform="translate(-464.352 -219.65)" fill="#eeecec"/><g transform="translate(138.976 4.598)"><path d="M627.071,226.459a6.389,6.389,0,0,0-8.849,0,5.954,5.954,0,0,0,0,8.594,6.39,6.39,0,0,0,8.847,0A5.96,5.96,0,0,0,627.071,226.459Zm-7.517,7.305a4.164,4.164,0,0,1,0-6.012,4.47,4.47,0,0,1,6.191,0,4.165,4.165,0,0,1,0,6.013l0,0a4.471,4.471,0,0,1-6.188,0Z" transform="translate(-616.39 -224.68)" fill="#8c8c8c"/><path d="M627,236.158l1.206-1.171h0l4.882,4.74a.089.089,0,0,1,0,.129h0l-1.074,1.043a.1.1,0,0,1-.133,0h0L627,236.158Z" transform="translate(-617.302 -225.565)" fill="#8c8c8c"/></g></g><ellipse cx="14.553" cy="14.133" rx="14.553" ry="14.133" transform="translate(243.214 429.722)" fill="#e6e6e6"/></g><g transform="translate(440.031 306.969)"><rect width="188.173" height="38.347" rx="5.842" transform="translate(0 0)" fill="#6c63ff"/><g transform="translate(15.016 9.324)"><path d="M474.289,339.834V347.9a1.249,1.249,0,0,0,1.184,1.3h3.977V343.67H483V349.2h4.314a1.09,1.09,0,0,0,1.061-1.3v-8.061l-7.036-4.887Z" transform="translate(-472.345 -331.238)" fill="#fff"/><path d="M489.844,336.681l-8.133-5.643a.88.88,0,0,0-.3-.131c-.011,0-.02-.01-.03-.012a5.7,5.7,0,0,0-.354,0c-.01,0-.019.008-.029.011a.882.882,0,0,0-.3.132l-8.142,5.643a.9.9,0,1,0,1.025,1.479l7.627-5.285,7.616,5.285a.9.9,0,0,0,1.027-1.479Z" transform="translate(-472.162 -330.889)" fill="#fff"/></g><text transform="translate(62.82 6.02)" fill="#fff" font-size="12.254" font-family="SegoeUI, Segoe UI"><tspan x="0" y="13">Home</tspan></text><text transform="translate(62.82 22.078)" fill="#fff" font-size="6.684" font-family="SegoeUI, Segoe UI"><tspan x="0" y="7">Click to navigate to the </tspan></text></g><g transform="translate(453.068 371.913)"><path d="M472.242,391.737A2.245,2.245,0,0,0,470,393.982v2.236h1.369v-2.236a.876.876,0,0,1,.876-.876h2.346v-1.369Zm18.183,16.979v2.573a.876.876,0,0,1-.876.877h-2.464v1.368h2.464a2.245,2.245,0,0,0,2.245-2.245v-2.573Zm-19.059,2.573v-2.573H470v2.573a2.245,2.245,0,0,0,2.245,2.245h2.346v-1.368h-2.346A.876.876,0,0,1,471.366,411.289Zm18.183-19.552h-2.464v1.369h2.464a.876.876,0,0,1,.876.876v2.236h1.369v-2.236A2.245,2.245,0,0,0,489.549,391.737Z" transform="translate(-469.997 -391.737)" fill="#6c63ff"/><g transform="translate(7.111 5.753)"><g transform="translate(1.718)"><path d="M484.655,399.754a2.573,2.573,0,1,1-1.587-1.587A2.5,2.5,0,0,1,484.655,399.754Z" transform="translate(-479.655 -398.03)" fill="#6c63ff"/></g><g transform="translate(0 6.903)"><path d="M486.341,408.7h-8.565c0-1.485,1.917-3.116,4.282-3.116S486.341,407.213,486.341,408.7Z" transform="translate(-477.776 -405.582)" fill="#6c63ff"/></g></g><text transform="translate(50.259 2.142)" fill="#606060" font-size="12.254" font-family="SegoeUI, Segoe UI"><tspan x="0" y="13">Experienc</tspan></text></g><g transform="translate(452.334 420.153)"><g transform="translate(0 0)"><g transform="translate(0 5.599)"><path d="M488.13,461.721a.726.726,0,0,1-.17-.043l-.762-.31a1.466,1.466,0,0,1,.014-2.345l.763-.311a.751.751,0,0,1,.169-.042v-.028l.113-.042-.113-.282v-.3h-.113l-.014-.027a.732.732,0,0,1-.169.027h-.834a1.449,1.449,0,0,1-.974-.861,1.491,1.491,0,0,1,.085-1.3l.593-.593a.482.482,0,0,1,.141-.085l-.014-.042.084-.085-.211-.211-.113-.269-.112.043-.015-.015a.551.551,0,0,1-.155.085l-.762.324a1.494,1.494,0,0,1-1.229-.423,1.534,1.534,0,0,1-.423-1.243l.324-.762a.881.881,0,0,1,.1-.141l-.028-.028.043-.113-.269-.113-.212-.211-.084.084-.028-.014a1.17,1.17,0,0,1-.1.141l-.593.593a1.5,1.5,0,0,1-1.3.085,1.537,1.537,0,0,1-.862-.988v-.819a.771.771,0,0,1,.043-.17l-.043-.014v-.127h-.3l-.269-.113-.042.113h-.042c0,.057-.028.112-.028.169l-.325.762a1.454,1.454,0,0,1-1.157.579,1.5,1.5,0,0,1-1.215-.635l-.268-.636a1.356,1.356,0,0,1-.043-.239h-.056l-.043-.113-.268.113h-.282v.127l-.057.014c.042.07.028.155.057.24v.692a1.5,1.5,0,0,1-.862,1.045,1.555,1.555,0,0,1-.946.057l-1-1.045-.282.282-.367.155.565,1.327A1.455,1.455,0,0,1,472,454.873l-.762-.325c-.042-.042-.1-.057-.142-.1l-.027.028-.113-.057-.113.282-.211.2.084.085-.014.042c.057.015.085.071.141.1l.579.592a1.5,1.5,0,0,1,.07,1.3,1.574,1.574,0,0,1-1,.847l-.833-.015a.721.721,0,0,1-.17-.042l-.014.042h-.113v.3l-.127.268.113.042v.043c.057,0,.112.028.169.028l.762.338a1.451,1.451,0,0,1-.042,2.33l-.762.311c-.057,0-.113.028-.169.028v.042l-.113.043.113.268-.015.3h.127l.015.042c.056-.028.112-.014.169-.042l.833.014a1.478,1.478,0,0,1,.961.876,1.5,1.5,0,0,1-.1,1.3l-.593.579c-.057.028-.085.071-.142.1l.015.028-.085.085.2.212.113.282.113-.057.027.028a.751.751,0,0,1,.142-.085l.777-.311a1.462,1.462,0,0,1,1.214.424,1.478,1.478,0,0,1,.41,1.242l-.325.762a.51.51,0,0,1-.1.142l.028.028-.043.112.269.113.2.212.1-.085.028.014c.028-.056.07-.084.1-.141l.593-.579a1.449,1.449,0,0,1,1.3-.071,1.476,1.476,0,0,1,.847.989v.833c-.028.057-.014.113-.042.169l.028.015v.112l.3.015.269.112.056-.112h.028a.706.706,0,0,1,.043-.169l.324-.763a1.476,1.476,0,0,1,1.172-.565,1.5,1.5,0,0,1,1.172.593l.311.762c0,.057.028.113.028.17h.028l.057.112.268-.112h.3v-.113l.027-.014c-.014-.057-.014-.113-.027-.17l.014-.833a1.478,1.478,0,0,1,.861-.974,1.5,1.5,0,0,1,1.3.1l.579.593c.028.042.085.085.1.142l.028-.015.1.085.2-.2.282-.112-.042-.113.014-.028a.763.763,0,0,1-.084-.141l-.311-.777a1.5,1.5,0,0,1,.41-1.229,1.558,1.558,0,0,1,1.257-.41l.762.325a.823.823,0,0,1,.141.1l.028-.028.113.042.112-.268.212-.212-.1-.085.015-.028a1.406,1.406,0,0,0-.142-.1l-.579-.593a1.494,1.494,0,0,1-.085-1.3,1.472,1.472,0,0,1,1-.847h.819c.056.015.112.015.169.028l.015-.028h.127v-.3l.112-.269-.112-.056Zm-9.39,4.575a6.143,6.143,0,1,1,6.143-6.143A6.138,6.138,0,0,1,478.74,466.3Z" transform="translate(-469.194 -450.636)" fill="#6c63ff"/><circle cx="2.171" cy="2.171" r="2.171" transform="translate(7.368 7.347)" fill="#6c63ff"/></g><g transform="translate(13.464)"><path d="M495.055,451.027a.328.328,0,0,1-.107-.027l-.441-.175a.887.887,0,0,1-.348-.7.929.929,0,0,1,.348-.7l.454-.174a.251.251,0,0,1,.094-.027v-.013l.067-.026-.067-.175v-.174h-.067v-.014a.288.288,0,0,1-.107.014h-.5a.82.82,0,0,1-.562-.508.852.852,0,0,1,.04-.762l.348-.348a.194.194,0,0,1,.093-.04l-.013-.026.053-.054-.134-.121-.067-.16-.068.027v-.013a.346.346,0,0,1-.093.053l-.455.187a.887.887,0,0,1-.722-.254.86.86,0,0,1-.241-.723l.187-.454c.014-.026.04-.054.054-.08l-.014-.014.027-.067-.161-.067-.121-.121-.053.04h-.014c-.014.026-.04.054-.054.08l-.361.348a.893.893,0,0,1-.762.053.928.928,0,0,1-.508-.589v-.482c.013-.026.013-.067.026-.093l-.026-.014v-.08h-.175l-.147-.053-.027.053h-.026c0,.04-.014.067-.014.107l-.2.442a.824.824,0,0,1-.683.348.86.86,0,0,1-.708-.375l-.161-.375c0-.053-.026-.093-.026-.147h-.027l-.027-.053-.161.053h-.16v.08l-.04.014c.026.04.014.093.04.133v.415a.875.875,0,0,1-.508.615,1.008,1.008,0,0,1-.562.027l-.589-.615-.161.174-.214.08.321.79a.832.832,0,0,1-.24.482.9.9,0,0,1-.736.24l-.442-.187c-.027-.027-.067-.04-.094-.067l-.013.014-.068-.027-.067.161-.12.121.053.053-.014.027c.027,0,.054.039.08.053l.348.348a.9.9,0,0,1,.04.762.956.956,0,0,1-.589.508l-.5-.013a.808.808,0,0,1-.093-.027l-.014.027H484v.174l-.08.16.067.027v.027c.04,0,.067.014.107.014l.442.2a.868.868,0,0,1,.335.683.38.38,0,0,1-.013.12,2.763,2.763,0,0,1,.575-.053,2.669,2.669,0,0,1,.468.04v-.04a3.619,3.619,0,1,1,3.612,3.612h-.04a2.587,2.587,0,0,1,.04.468,3.744,3.744,0,0,1-.04.562.856.856,0,0,1,.683.361l.187.442c0,.04.013.067.013.107h.014l.04.054.161-.054h.174v-.067l.014-.014a.288.288,0,0,1-.014-.107v-.482a.87.87,0,0,1,.508-.575.89.89,0,0,1,.762.054l.348.347c.014.027.053.054.053.093l.014-.013.067.053.107-.12.175-.068-.027-.067.014-.013a.31.31,0,0,1-.054-.08l-.186-.468a.872.872,0,0,1,.24-.723,1.032,1.032,0,0,1,.75-.24l.442.2a.291.291,0,0,1,.08.054l.027-.014.067.027.067-.16.121-.121-.067-.053.013-.014a.344.344,0,0,0-.08-.067l-.348-.348a.892.892,0,0,1-.04-.762.873.873,0,0,1,.589-.5h.482a.22.22,0,0,1,.093.014l.014-.014h.08v-.174l.054-.161-.054-.04Z" transform="translate(-483.923 -444.511)" fill="#6c63ff"/><circle cx="1.282" cy="1.282" r="1.282" transform="translate(4.317 4.317)" fill="#29abe2"/></g></g><text transform="translate(50.993 2.044)" fill="#545454" font-size="12.254" font-family="SegoeUI, Segoe UI"><tspan x="0" y="13">Technolog</tspan></text></g><g transform="translate(451.977 525.258)"><rect width="27.687" height="19.507" rx="2.887" fill="none" stroke="#6c63ff" stroke-miterlimit="10" stroke-width="2"/><line x2="7.142" transform="translate(5.126 5.99)" fill="none" stroke="#6c63ff" stroke-linecap="round" stroke-linejoin="round" stroke-width="2.5"/><line x2="7.142" transform="translate(5.126 9.754)" fill="none" stroke="#6c63ff" stroke-linecap="round" stroke-linejoin="round" stroke-width="2.5"/><line x2="15.532" transform="translate(5.126 13.517)" fill="none" stroke="#6c63ff" stroke-linecap="round" stroke-linejoin="round" stroke-width="2.5"/><circle cx="2.627" cy="2.627" r="2.627" transform="translate(16.368 4.837)" fill="#29abe2"/><text transform="translate(51.35 0.055)" fill="#606060" font-size="12.254" font-family="SegoeUI, Segoe UI"><tspan x="0" y="13">About</tspan></text></g><text transform="translate(447.908 258.619)" fill="#4d4d4d" font-size="14.179" font-family="SegoeUI, Segoe UI"><tspan x="0" y="15">Menu</tspan></text></g></svg>