<?xml version="1.0" encoding="utf-8"?>
<!-- Generator: Adobe Illustrator 27.1.1, SVG Export Plug-In . SVG Version: 6.00 Build 0)  -->
<svg version="1.1" id="Layer_1" xmlns="http://www.w3.org/2000/svg" xmlns:xlink="http://www.w3.org/1999/xlink" x="0px" y="0px"
	 viewBox="0 0 485.1 502.3" style="enable-background:new 0 0 485.1 502.3;" xml:space="preserve">
<style type="text/css">
	.st0{fill:#DCDBDB;}
	.st1{fill:#FFFFFF;}
	.st2{fill:#6C63FF;}
	.st3{opacity:0.72;}
	.st4{fill:#D5CFCF;}
	.st5{fill:#857DFB;}
	.st6{fill:#7E7E7E;}
	.st7{fill:#E6E6E6;}
	.st8{fill:#EEECEC;}
	.st9{fill:#8C8C8C;}
	.st10{fill:#29ABE2;}
	.st11{fill:none;stroke:#6C63FF;stroke-width:2;stroke-miterlimit:10;}
	.st12{fill:none;stroke:#6C63FF;stroke-width:2.5;stroke-linecap:round;stroke-linejoin:round;}
	.st13{fill:#AAAAAA;}
	.st14{fill:#A0A0A0;}
</style>
<g transform="translate(-272.954 -161)">
	<g transform="translate(272.954 161)">
		<g transform="translate(442.751 38.423)">
			<path class="st0" d="M41.2,27C38,36.1,16,52.6,9.6,57.2c-0.7,0.5-1.6,0.3-2.1-0.3c-0.1-0.1-0.2-0.3-0.2-0.5
				c-2.1-7.4-9.2-33.5-6-42.7C5.1,3.1,17.1-2.6,28.1,1.1C38.8,4.5,44.7,16,41.3,26.7C41.3,26.8,41.2,26.9,41.2,27z"/>
			<ellipse class="st1" cx="21.7" cy="19" rx="10.7" ry="10.4"/>
			<ellipse class="st2" cx="4.8" cy="67.3" rx="4.8" ry="4.7"/>
		</g>
		<g transform="translate(0 221.813)" class="st3">
			<path class="st4" d="M2.4,17.9L49.7,0.2c1.8-0.7,3.9,0.2,4.7,2l10.8,27.2l0,0L11,49.7l0,0L0.2,22.5C-0.5,20.7,0.4,18.6,2.4,17.9
				C2.3,17.9,2.4,17.9,2.4,17.9L2.4,17.9z"/>
			<path class="st5" d="M11,49.7l54.1-20.2l1.9,4.9c0.4,1.1-0.1,2.3-1.2,2.7c0,0,0,0-0.1,0L15.9,55.7c-1.2,0.5-2.6-0.1-3.1-1.3
				L11,49.7z"/>
			<path class="st2" d="M36.3,48.1l8.9-3.3l2.1,5.3l-8.9,3.3L36.3,48.1z"/>
			<path class="st5" d="M33,55.4l19.5-7.3c0.9-0.4,2,0.1,2.3,1l0.5,1.4l0,0l-22.7,8.4l0,0l-0.6-1.6C31.8,56.6,32.2,55.7,33,55.4
				C33,55.4,33,55.4,33,55.4L33,55.4z"/>
			<path class="st1" d="M9.7,22.1L21,17.9l3,7.5l-11.3,4.2L9.7,22.1z"/>
			<path class="st1" d="M13.5,31.7l11.3-4.2l0.7,1.8l-11.3,4.2L13.5,31.7z"/>
		</g>
		<g transform="translate(127.211)">
			<path class="st6" d="M213.4,0H50.9C24.4,0,2.9,20.9,2.8,46.7v14.3c-1.2-0.3-2.4,0.3-2.7,1.5C0,62.7,0,62.9,0,63.1v11
				c0,1.2,1,2.2,2.2,2.2c0.2,0,0.4,0,0.6-0.1v16.6c-1.2-0.3-2.4,0.3-2.7,1.5C0,94.5,0,94.7,0,94.9v27.4c0,1.2,1,2.2,2.2,2.2
				c0.2,0,0.4,0,0.6-0.1v10c-1.2-0.3-2.4,0.3-2.7,1.5C0,136.1,0,136.3,0,136.5V164c0,1.2,1,2.2,2.2,2.2c0.2,0,0.4,0,0.6-0.1v289.5
				c0,25.8,21.5,46.7,48.1,46.7h162.5c26.5,0,48-20.9,48.1-46.7V46.7C261.4,20.9,239.9,0,213.4,0z M251.3,455.6
				c0,20.3-17,36.8-37.9,36.8H50.9C30,492.4,13,475.9,13,455.6V46.7C13,26.4,30,9.9,50.9,9.9h162.5c20.9,0,37.9,16.5,37.9,36.8
				L251.3,455.6z"/>
			<path class="st7" d="M213.3,497.9H50.9c-24,0-43.5-18.9-43.6-42.3V46.7c0-23.3,19.5-42.3,43.6-42.3h162.5
				c24,0,43.5,18.9,43.6,42.3v408.9C256.9,479,237.4,497.9,213.3,497.9z"/>
			<path class="st1" d="M217.4,491.3H46.9c-16.2,0-29.4-12.8-29.4-28.5V39.5C17.5,23.7,30.7,11,46.9,11h22.2c2.6,0,4.8,2.1,4.9,4.7
				c0.1,7.8,6.5,14,14.3,13.9h85.4c7.8,0.1,14.2-6.1,14.3-13.9c0-2.6,2.2-4.8,4.9-4.7h24.5c16.2,0,29.4,12.8,29.4,28.5v423.3
				C246.7,478.5,233.6,491.3,217.4,491.3z"/>
			<path class="st1" d="M139.5,20.6h-20.3c-1.2,0-2.2-1-2.1-2.2c0-1.2,1-2.1,2.1-2.1h20.3c1.2-0.1,2.3,0.7,2.4,1.9s-0.7,2.3-1.9,2.4
				c-0.1,0-0.2,0-0.3,0C139.6,20.6,139.5,20.6,139.5,20.6z"/>
		</g>
		<g transform="translate(174.954 53.611)">
			<path class="st8" d="M13.2,0h138.9c7.2-0.1,13.1,5.6,13.2,12.8l0,0c-0.1,7.2-6,12.9-13.2,12.8H13.2C6,25.7,0.1,20,0,12.8l0,0
				C0.1,5.6,6-0.1,13.2,0z"/>
			<g transform="translate(138.976 4.598)">
				<path class="st9" d="M10.7,1.8c-2.5-2.4-6.4-2.4-8.8,0c-2.4,2.3-2.5,6-0.2,8.4c0.1,0.1,0.1,0.1,0.2,0.2c2.5,2.4,6.4,2.4,8.8,0
					c2.4-2.3,2.4-6.1,0.2-8.4C10.8,1.9,10.7,1.8,10.7,1.8z M3.2,9.1C1.5,7.5,1.4,4.9,3,3.2c0,0,0.1-0.1,0.1-0.1
					c1.7-1.7,4.5-1.7,6.2,0C11,4.7,11.1,7.3,9.5,9c0,0-0.1,0.1-0.1,0.1l0,0C7.6,10.7,4.9,10.7,3.2,9.1L3.2,9.1z"/>
				<path class="st9" d="M9.7,10.6l1.2-1.2l0,0l4.9,4.7c0,0,0,0.1,0,0.1c0,0,0,0,0,0l0,0l-1.1,1c0,0-0.1,0-0.1,0l0,0L9.7,10.6z"/>
			</g>
		</g>
		<ellipse class="st7" cx="257.8" cy="443.9" rx="14.6" ry="14.1"/>
	</g>
	<g transform="translate(440.031 306.969)">
		<path class="st2" d="M5.8,0h176.5c3.2,0,5.8,2.6,5.8,5.8v26.7c0,3.2-2.6,5.8-5.8,5.8H5.8c-3.2,0-5.8-2.6-5.8-5.8V5.8
			C0,2.6,2.6,0,5.8,0z"/>
		<g transform="translate(15.016 9.324)">
			<path class="st1" d="M1.9,8.6v8.1c0,0.7,0.5,1.3,1.2,1.3h4v-5.5h3.6V18H15c0.6,0,1.1-0.5,1.1-1.1c0-0.1,0-0.1,0-0.2V8.6L9,3.7
				L1.9,8.6z"/>
			<path class="st1" d="M17.7,5.8L9.5,0.1C9.5,0.1,9.4,0,9.2,0c0,0,0,0,0,0C9.1,0,9,0,8.9,0c0,0,0,0,0,0C8.7,0,8.6,0.1,8.5,0.1
				L0.4,5.8C0,6.1-0.1,6.6,0.1,7C0.4,7.5,1,7.6,1.4,7.3c0,0,0,0,0,0L9,2l7.6,5.3c0.4,0.3,1,0.2,1.3-0.2C18.2,6.6,18.1,6.1,17.7,5.8
				L17.7,5.8L17.7,5.8z"/>
		</g>
	</g>
	<g transform="translate(453.068 371.913)">
		<path class="st2" d="M2.2,0C1,0,0,1,0,2.2v2.2h1.4V2.2c0-0.5,0.4-0.9,0.9-0.9l0,0h2.3V0H2.2z M20.4,17v2.6c0,0.5-0.4,0.9-0.9,0.9
			c0,0,0,0,0,0h-2.5v1.4h2.5c1.2,0,2.2-1,2.2-2.2V17L20.4,17z M1.4,19.6V17H0v2.6c0,1.2,1,2.2,2.2,2.2h2.3v-1.4H2.2
			C1.8,20.4,1.4,20,1.4,19.6C1.4,19.6,1.4,19.6,1.4,19.6L1.4,19.6z M19.6,0h-2.5v1.4h2.5c0.5,0,0.9,0.4,0.9,0.9l0,0v2.2h1.4V2.2
			C21.8,1,20.8,0,19.6,0C19.6,0,19.6,0,19.6,0L19.6,0z"/>
		<g transform="translate(7.111 5.753)">
			<g transform="translate(1.718)">
				<path class="st2" d="M5,1.7C5.5,3.1,4.8,4.5,3.4,5C2.1,5.5,0.6,4.8,0.1,3.4c-0.5-1.3,0.2-2.8,1.6-3.3c0.5-0.2,1.1-0.2,1.7,0
					C4.2,0.4,4.8,1,5,1.7z"/>
			</g>
			<g transform="translate(0 6.903)">
				<path class="st2" d="M8.6,3.1H0C0,1.6,1.9,0,4.3,0S8.6,1.6,8.6,3.1z"/>
			</g>
		</g>
	</g>
	<g transform="translate(452.334 420.153)">
		<g transform="translate(0 0)">
			<g transform="translate(0 5.599)">
				<path class="st2" d="M19.3,11.4c-0.1,0-0.1,0-0.2,0L18.4,11c-0.7-0.5-0.8-1.5-0.3-2.2c0.1-0.1,0.2-0.2,0.3-0.3l0.8-0.3
					c0.1,0,0.1,0,0.2,0v0l0.1,0l-0.1-0.3V7.4h-0.1l0,0c-0.1,0-0.1,0-0.2,0h-0.9c-0.5-0.1-0.9-0.5-1-0.9c-0.2-0.4-0.1-1,0.1-1.4
					l0.6-0.6c0,0,0.1-0.1,0.1-0.1l0,0l0.1-0.1l-0.2-0.2l-0.1-0.3l-0.1,0l0,0c0,0-0.1,0.1-0.2,0.1l-0.8,0.3c-0.5,0.1-1-0.1-1.3-0.4
					c-0.3-0.4-0.5-0.8-0.4-1.3l0.3-0.8c0-0.1,0.1-0.1,0.1-0.1l0,0l0-0.1L15,1.2L14.8,1l-0.1,0.1l0,0c0,0.1-0.1,0.1-0.1,0.1L14,1.9
					C13.5,2.1,13,2.1,12.6,2c-0.4-0.2-0.8-0.6-0.9-1V0c0-0.1,0-0.1,0-0.2l0,0v-0.1h-0.3l-0.3-0.1l0,0.1h0c0,0.1,0,0.1,0,0.2
					l-0.3,0.8c-0.3,0.4-0.7,0.6-1.2,0.6c-0.5,0-1-0.3-1.3-0.7L7.8,0c0-0.1,0-0.2,0-0.3H7.7l0-0.1L7.4-0.3H7.1v0.1L7-0.1
					C7-0.1,7,0,7.1,0.1v0.7C7,1.3,6.6,1.8,6.1,2C5.8,2.1,5.5,2.1,5.1,2L4.1,0.9L3.8,1.2L3.4,1.4L4,2.8C3.9,3.6,3.1,4.2,2.3,4.1
					c0,0,0,0,0,0L1.4,3.7c0,0-0.1-0.1-0.2-0.1l0,0L1.1,3.6L1,3.9L0.8,4.1l0.1,0.1l0,0c0.1,0,0.1,0.1,0.1,0.1L1.6,5
					c0.2,0.4,0.3,0.9,0.1,1.4C1.5,6.8,1.1,7.1,0.6,7.3l-0.9,0c-0.1,0-0.1,0-0.2,0l0,0h-0.1v0.3l-0.1,0.3l0.1,0v0c0.1,0,0.1,0,0.2,0
					l0.8,0.4c0.7,0.5,0.8,1.5,0.3,2.2c-0.1,0.1-0.2,0.2-0.3,0.3l-0.8,0.3c-0.1,0-0.1,0-0.2,0v0l-0.1,0l0.1,0.3l0,0.3h0.1l0,0
					c0.1,0,0.1,0,0.2,0l0.9,0c0.5,0.1,0.8,0.5,1,0.9c0.2,0.5,0.1,1-0.1,1.4l-0.6,0.6c-0.1,0-0.1,0.1-0.2,0.1l0,0L0.6,15l0.2,0.2
					L1,15.5l0.1-0.1l0,0c0,0,0.1-0.1,0.2-0.1l0.8-0.3c0.5-0.1,1,0.1,1.3,0.4c0.3,0.3,0.5,0.8,0.4,1.3l-0.3,0.8
					c0,0.1-0.1,0.1-0.1,0.2l0,0l0,0.1l0.3,0.1l0.2,0.2l0.1-0.1l0,0c0-0.1,0.1-0.1,0.1-0.1l0.6-0.6c0.4-0.2,0.9-0.3,1.4-0.1
					c0.4,0.2,0.8,0.6,0.9,1v0.9c0,0.1,0,0.1,0,0.2l0,0v0.1l0.3,0l0.3,0.1l0.1-0.1h0c0-0.1,0-0.1,0-0.2L8,18.7
					c0.3-0.4,0.8-0.6,1.2-0.6c0.5,0,0.9,0.2,1.2,0.6l0.3,0.8c0,0.1,0,0.1,0,0.2h0l0.1,0.1l0.3-0.1h0.3v-0.1l0,0c0-0.1,0-0.1,0-0.2
					l0-0.9c0.1-0.5,0.5-0.8,0.9-1c0.5-0.2,1-0.1,1.4,0.1l0.6,0.6c0,0,0.1,0.1,0.1,0.2l0,0l0.1,0.1l0.2-0.2l0.3-0.1l0-0.1l0,0
					c0,0-0.1-0.1-0.1-0.1L14.8,17c-0.1-0.5,0.1-1,0.4-1.3c0.4-0.3,0.8-0.5,1.3-0.4l0.8,0.3c0.1,0,0.1,0.1,0.1,0.1l0,0l0.1,0l0.1-0.3
					l0.2-0.2l-0.1-0.1l0,0c0,0-0.1-0.1-0.2-0.1l-0.6-0.6c-0.2-0.4-0.3-0.9-0.1-1.4c0.2-0.4,0.6-0.8,1.1-0.9H19c0.1,0,0.1,0,0.2,0
					l0,0h0.1v-0.3l0.1-0.3L19.3,11.4L19.3,11.4z M9.4,16.2c-3.6,0-6.5-2.9-6.5-6.5s2.9-6.5,6.5-6.5c3.6,0,6.5,2.9,6.5,6.5
					C15.9,13.3,13,16.2,9.4,16.2C9.4,16.2,9.4,16.2,9.4,16.2L9.4,16.2z"/>
				<circle class="st10" cx="9.4" cy="9.7" r="2.3"/>
			</g>
			<g transform="translate(13.464)">
				<path class="st2" d="M11.9,6.2c0,0-0.1,0-0.1,0l-0.5-0.2c-0.2-0.2-0.4-0.5-0.4-0.7c0-0.3,0.1-0.6,0.4-0.7l0.5-0.2
					c0,0,0.1,0,0.1,0v0l0.1,0L11.9,4V3.8h-0.1v0c0,0-0.1,0-0.1,0h-0.5c-0.3-0.1-0.5-0.3-0.6-0.5c-0.1-0.3-0.1-0.6,0-0.8L11,2.1
					c0,0,0.1,0,0.1,0l0,0L11.1,2L11,1.9l-0.1-0.2l-0.1,0v0c0,0-0.1,0-0.1,0.1L10.3,2C10,2,9.7,1.9,9.5,1.7C9.3,1.5,9.2,1.2,9.2,0.9
					l0.2-0.5c0,0,0-0.1,0.1-0.1l0,0l0-0.1L9.3,0.2L9.2,0.1l-0.1,0h0c0,0,0,0.1-0.1,0.1L8.7,0.6C8.4,0.7,8.1,0.7,7.9,0.6
					C7.6,0.5,7.4,0.3,7.3,0v-0.5c0,0,0-0.1,0-0.1l0,0v-0.1H7.2L7-0.8l0,0.1h0c0,0,0,0.1,0,0.1L6.7-0.1C6.6,0.1,6.3,0.2,6,0.2
					c-0.3,0-0.6-0.1-0.8-0.4L5.1-0.6c0-0.1,0-0.1,0-0.2h0l0-0.1L4.8-0.7H4.6v0.1l0,0c0,0,0,0.1,0,0.1V0C4.6,0.3,4.4,0.5,4.1,0.6
					c-0.2,0.1-0.4,0.1-0.6,0L2.9,0L2.7,0.2L2.5,0.3l0.3,0.8c0,0.2-0.1,0.4-0.3,0.5C2.4,1.8,2.1,1.9,1.8,1.9L1.3,1.7
					c0,0-0.1,0-0.1-0.1l0,0l-0.1,0L1.1,1.8L0.9,1.9L1,1.9l0,0C1,2,1,2,1.1,2l0.4,0.4c0.1,0.2,0.1,0.5,0,0.8C1.4,3.5,1.1,3.7,0.9,3.8
					l-0.5,0c0,0-0.1,0-0.1,0l0,0H0.2v0.2L0.1,4.1l0.1,0v0c0,0,0.1,0,0.1,0l0.5,0.2c0.2,0.2,0.4,0.4,0.4,0.7c0,0,0,0.1,0,0.1
					c0.2,0,0.4-0.1,0.6-0.1c0.2,0,0.3,0,0.5,0v0c0-2.1,1.7-3.8,3.8-3.8c2.1,0,3.8,1.7,3.8,3.8C9.9,7.3,8.1,9,6,9c0,0,0,0,0,0h0
					c0,0.2,0,0.3,0,0.5c0,0.2,0,0.4,0,0.6c0.3,0,0.6,0.1,0.7,0.4l0.2,0.5c0,0,0,0.1,0,0.1h0l0,0.1l0.2-0.1h0.2V11l0,0
					c0,0,0-0.1,0-0.1v-0.5c0.1-0.3,0.3-0.5,0.5-0.6c0.3-0.1,0.6-0.1,0.8,0.1L9,10.2c0,0,0.1,0.1,0.1,0.1l0,0l0.1,0.1l0.1-0.1
					l0.2-0.1l0-0.1l0,0c0,0,0-0.1-0.1-0.1L9.2,9.4c0-0.3,0.1-0.6,0.3-0.8c0.2-0.2,0.5-0.3,0.8-0.3l0.5,0.2c0,0,0.1,0,0.1,0.1l0,0
					l0.1,0L11,8.5l0.1-0.1L11,8.3l0,0c0,0-0.1-0.1-0.1-0.1l-0.4-0.4c-0.1-0.2-0.2-0.5,0-0.8c0.1-0.3,0.3-0.5,0.6-0.5h0.5
					c0,0,0.1,0,0.1,0l0,0h0.1V6.4L11.9,6.2L11.9,6.2L11.9,6.2z"/>
				<circle class="st10" cx="6" cy="5.2" r="1.4"/>
			</g>
		</g>
	</g>
	<g transform="translate(451.977 525.258)">
		<path class="st11" d="M2.9-2.3h21.9c1.6,0,2.9,1.3,2.9,2.9v13.7c0,1.6-1.3,2.9-2.9,2.9H2.9c-1.6,0-2.9-1.3-2.9-2.9V0.6
			C0-1,1.3-2.3,2.9-2.3z"/>
		<line class="st12" x1="5.1" y1="3.7" x2="12.3" y2="3.7"/>
		<line class="st12" x1="5.1" y1="7.5" x2="12.3" y2="7.5"/>
		<line class="st12" x1="5.1" y1="11.2" x2="20.7" y2="11.2"/>
		<circle class="st10" cx="19" cy="5.2" r="2.6"/>
	</g>
</g>
<g>
	<path class="st11" d="M202.2,327.2c0,0.7-0.3,1.4-0.8,1.9l-0.4,0.4c0,0,0,0,0,0c-0.4,0.3-0.9,0.6-1.4,0.8c-0.5,0.2-1,0.3-1.4,0.4
		c0,0-0.2,0-0.4,0c-1.2,0-5.3-0.4-10.2-5.3c-4.1-4.1-5.6-7.2-5.2-10.6c0-0.4,0.2-0.9,0.3-1.4c0,0,0,0,0,0c0.2-0.5,0.5-1,0.8-1.4
		c0,0,0,0,0-0.1l0.4-0.4c0.5-0.5,1.2-0.8,1.9-0.8c0.7,0,1.4,0.3,1.9,0.8l1.6,1.6c0.5,0.5,0.8,1.2,0.8,1.9c0,0.7-0.3,1.4-0.8,1.9
		l-0.1,0.1c0,0,0,0,0,0l-0.6,0.6c0.5,0.9,1.6,2.5,2.9,3.7c1.3,1.3,2.9,2.4,3.8,2.9l0.7-0.7c0.5-0.5,1.2-0.8,1.9-0.8s1.4,0.3,1.9,0.8
		l1.5,1.5C201.9,325.7,202.2,326.4,202.2,327.2z"/>
	<path class="st10" d="M201.2,316.9c-0.2,0-0.4,0-0.5-0.1c-0.4-0.2-0.6-0.6-0.6-1h-3.3c-1,0-1.8-0.8-1.8-1.8v-1.2
		c0-1,0.8-1.8,1.8-1.8h0.4c0.4,0,0.7,0.3,0.7,0.7c0,0.4-0.3,0.7-0.7,0.7h-0.4c-0.3,0-0.5,0.2-0.5,0.5v1.2c0,0.3,0.2,0.5,0.5,0.5h3.9
		c0.4,0,0.7,0.3,0.7,0.7v0.3l2.9-2.1l-2.9-2.1v0.3c0,0.4-0.3,0.7-0.7,0.7h-1.1c-0.4,0-0.7-0.3-0.7-0.7s0.3-0.7,0.7-0.7h0.4
		c0-0.4,0.2-0.8,0.6-1c0.4-0.2,0.9-0.2,1.2,0.1l3.3,2.4c0.3,0.2,0.5,0.6,0.5,1c0,0.4-0.2,0.7-0.5,1l-3.3,2.4
		C201.7,316.8,201.4,316.9,201.2,316.9z"/>
</g>
<path class="st13" d="M270.7,219.9h-45.8c-0.7,0-1.3-0.6-1.3-1.3v-1.4c0-0.7,0.6-1.3,1.3-1.3h45.8c0.7,0,1.3,0.6,1.3,1.3v1.4
	C272,219.3,271.4,219.9,270.7,219.9z"/>
<path class="st14" d="M270.7,110.4h-45.8c-0.7,0-1.3-0.6-1.3-1.3v-0.8c0-0.7,0.6-1.3,1.3-1.3h45.8c0.7,0,1.3,0.6,1.3,1.3v0.8
	C272,109.8,271.4,110.4,270.7,110.4z"/>
<path class="st2" d="M297.2,229.5h-72.1c-0.8,0-1.5-0.7-1.5-1.5v-1.2c0-0.8,0.7-1.5,1.5-1.5h72.1c0.8,0,1.5,0.7,1.5,1.5v1.2
	C298.7,228.8,298,229.5,297.2,229.5z"/>
<path class="st1" d="M270.7,162.4h-45.8c-0.7,0-1.3-0.6-1.3-1.3v-1.4c0-0.7,0.6-1.3,1.3-1.3h45.8c0.7,0,1.3,0.6,1.3,1.3v1.4
	C272,161.8,271.4,162.4,270.7,162.4z"/>
<path class="st1" d="M297.2,172h-72.1c-0.8,0-1.5-0.7-1.5-1.5v-1.2c0-0.8,0.7-1.5,1.5-1.5h72.1c0.8,0,1.5,0.7,1.5,1.5v1.2
	C298.7,171.3,298,172,297.2,172z"/>
<path class="st13" d="M270.7,267h-45.8c-0.7,0-1.3-0.6-1.3-1.3v-1.4c0-0.7,0.6-1.3,1.3-1.3h45.8c0.7,0,1.3,0.6,1.3,1.3v1.4
	C272,266.4,271.4,267,270.7,267z"/>
<path class="st2" d="M297.2,276.6h-72.1c-0.8,0-1.5-0.7-1.5-1.5v-1.2c0-0.8,0.7-1.5,1.5-1.5h72.1c0.8,0,1.5,0.7,1.5,1.5v1.2
	C298.7,275.9,298,276.6,297.2,276.6z"/>
<path class="st13" d="M270.7,318h-45.8c-0.7,0-1.3-0.6-1.3-1.3v-1.4c0-0.7,0.6-1.3,1.3-1.3h45.8c0.7,0,1.3,0.6,1.3,1.3v1.4
	C272,317.4,271.4,318,270.7,318z"/>
<path class="st2" d="M297.2,327.6h-72.1c-0.8,0-1.5-0.7-1.5-1.5v-1.2c0-0.8,0.7-1.5,1.5-1.5h72.1c0.8,0,1.5,0.7,1.5,1.5v1.2
	C298.7,326.9,298,327.6,297.2,327.6z"/>
<path class="st13" d="M270.7,368.9h-45.8c-0.7,0-1.3-0.6-1.3-1.3v-1.4c0-0.7,0.6-1.3,1.3-1.3h45.8c0.7,0,1.3,0.6,1.3,1.3v1.4
	C272,368.3,271.4,368.9,270.7,368.9z"/>
<path class="st2" d="M297.2,378.5h-72.1c-0.8,0-1.5-0.7-1.5-1.5v-1.2c0-0.8,0.7-1.5,1.5-1.5h72.1c0.8,0,1.5,0.7,1.5,1.5v1.2
	C298.7,377.9,298,378.5,297.2,378.5z"/>
<circle class="st2" cx="188.7" cy="108.7" r="12.3"/>
</svg>
