<svg xmlns="http://www.w3.org/2000/svg" width="30.321" height="30.318" viewBox="0 0 30.321 30.318">
  <g id="Phone" transform="translate(-404 -373)">
    <path id="Path_3" data-name="Path 3" d="M132.038,97.546a7.229,7.229,0,0,0-7.219,7.216v15.882a7.232,7.232,0,0,0,7.219,7.219h15.882a7.232,7.232,0,0,0,7.219-7.219V104.762a7.229,7.229,0,0,0-7.219-7.216Zm2.893,5.805a1.415,1.415,0,0,1,1.12.666c.285.448.73,1.139,1.309,2.042a2.719,2.719,0,0,1,.093,2.749l-1.056,1.5a1.433,1.433,0,0,0-.154,1.386A8.827,8.827,0,0,0,141,116.446a1.432,1.432,0,0,0,1.386-.15l1.5-1.056a2.713,2.713,0,0,1,2.746.093c.9.576,1.6,1.021,2.042,1.306a1.42,1.42,0,0,1,.669,1.123,3.316,3.316,0,0,1-2.464,3.613c-.4,0-5.226.55-10.669-4.893s-4.893-10.266-4.893-10.669a3.321,3.321,0,0,1,3.616-2.461" transform="translate(279.181 275.454)" fill="#41529f"/>
  </g>
</svg>
