<svg xmlns="http://www.w3.org/2000/svg" width="407.98" height="409.473" viewBox="0 0 407.98 409.473">
  <g id="Product" transform="translate(-1375.992 -458)">
    <g id="Group_248" data-name="Group 248" transform="translate(1379.012 460)">
      <g id="Group_246" data-name="Group 246">
        <path id="Path_965" data-name="Path 965" d="M184.192,359.59a4.668,4.668,0,0,0-4.822,4.484v38.415a4.667,4.667,0,0,0,4.822,4.484h50.747a4.667,4.667,0,0,0,4.822-4.484V364.074a4.668,4.668,0,0,0-4.822-4.484Z" transform="translate(-6)" fill="none" stroke="#adadad" stroke-miterlimit="10" stroke-width="1"/>
        <path id="Path_966" data-name="Path 966" d="M226.921,387.713H192.212a3.188,3.188,0,0,1,0-6.375h34.709a3.188,3.188,0,0,1,0,6.375Z" transform="translate(-6)" fill="#6c63ff"/>
        <path id="Path_967" data-name="Path 967" d="M219.837,374.6H199.295a3.188,3.188,0,1,1,0-6.375h20.542a3.188,3.188,0,0,1,0,6.375Z" transform="translate(-6)" fill="#6c63ff"/>
        <path id="Path_968" data-name="Path 968" d="M226.921,398.333H192.212a3.188,3.188,0,0,1,0-6.375h34.709a3.188,3.188,0,1,1,0,6.375Z" transform="translate(-6)" fill="#6c63ff"/>
      </g>
      <circle id="Ellipse_132" data-name="Ellipse 132" cx="8.193" cy="8.193" r="8.193" transform="translate(291.669 111.131)" fill="#c4c4c4"/>
      <circle id="Ellipse_133" data-name="Ellipse 133" cx="13.881" cy="13.881" r="13.881" transform="translate(285.981 105.443)" fill="none" stroke="#c4c4c4" stroke-miterlimit="10" stroke-width="2"/>
      <circle id="Ellipse_134" data-name="Ellipse 134" cx="12.583" cy="12.583" r="12.583" transform="translate(29.4 283.515)" fill="#c4c4c4"/>
      <g id="Ellipse_135" data-name="Ellipse 135">
        <path id="Path_1377" data-name="Path 1377" d="M252.1,388.09l-.72-3.29v-.46l.72,3.29Zm14.53-4.24-.88-2.87.05-.01c3.78-1.16,7.57-2.44,11.269-3.83,4.611-1.73,9.221-3.66,13.7-5.75l.049-.021,1.261,2.721-.04.02c-4.55,2.12-9.21,4.08-13.87,5.82v.01l-.05.01c-3.75,1.41-7.6,2.71-11.44,3.89ZM144.9,381.34h-.11l1.03-2.83h.07ZM133.6,377l-.05-.019c-4.63-1.96-9.24-4.12-13.69-6.42-3.57-1.851-7.12-3.83-10.57-5.89l-.04-.03,1.54-2.57.05.02c3.39,2.029,6.89,3.989,10.4,5.8,4.4,2.28,8.93,4.41,13.48,6.33l.03.05-.01.01Zm169.15-8.349-1.391-2.54.091-.05,1.39,2.55Zm13-7.67-1.63-2.521.04-.029c3.31-2.141,6.6-4.42,9.779-6.78,3.951-2.93,7.841-6.04,11.561-9.26l-.04-.05h.24l-.051.05,1.9,2.189-.04.04c-3.79,3.281-7.75,6.46-11.79,9.451l-.05.03h0c-3.17,2.35-6.49,4.649-9.87,6.85ZM96.71,356.39l-.08-.061,1.67-2.359.08.06Zm-9.68-7.25-.04-.03c-3.9-3.151-7.73-6.491-11.39-9.93-2.93-2.76-5.8-5.641-8.54-8.561l-.03-.029,2.18-2.06.04.04c2.7,2.88,5.53,5.71,8.41,8.42,3.57,3.37,7.33,6.65,11.18,9.75l.05-.05.02.11Zm259.449-12.7-.16-.02-2.109-2.15.16.01Zm24.191-34.27-.061-.06h.171v.02l2.449,1.61-.029.04m-8.761,12.31c-2.46,3.19-5.04,6.34-7.669,9.35l-.041.04-2.25-1.981.031-.04c2.6-2.979,5.139-6.069,7.55-9.2M57.21,319.24h-.16l2.37-1.911.06.081Zm322.31-25.73L376.9,292v-.089l2.621,1.52Zm-350.08-20.8-.04-.09,2.68-1.129.04.1ZM25.06,261.47l-.02-.05c-1.65-4.72-3.14-9.57-4.42-14.4l-.01-.04c-1.03-3.89-1.94-7.85-2.72-11.771l-.01-.049,2.94-.59.01.049c.77,3.871,1.67,7.761,2.67,11.561l.02.08h0c1.26,4.75,2.73,9.529,4.35,14.18l.02.04Zm374.4-18.42-3.22-.78h.43l2.82.68Zm3.03-14.8-2.96-.479.01-.05c.63-3.87,1.14-7.84,1.529-11.8.481-4.9.781-9.89.891-14.84l.05-.06,2.95.07v.05c-.11,5.01-.41,10.09-.9,15.069-.4,4.011-.92,8.04-1.56,11.991Zm-386.92-7.92-.01-.1,2.88-.34.01.1ZM14.46,208.3v-.051c-.22-3.739-.33-7.559-.33-11.369,0-1.31.01-2.53.04-3.74.07-4.01.27-8.07.59-12.07l.01-.05,2.99.24-.01.05c-.31,3.96-.51,7.95-.58,11.89-.03,1.25-.04,2.49-.04,3.68,0,3.73.11,7.5.32,11.19v.049ZM401.9,189.22v-.1l2.891-.12.01.1Zm-1.2-14.83-.011-.05c-.449-3.9-1.04-7.86-1.739-11.77-.87-4.84-1.94-9.72-3.19-14.49h-.35l3.23-.84.009.04c1.271,4.84,2.361,9.8,3.25,14.76.71,3.94,1.311,7.97,1.781,11.95v.05ZM19.45,166.58l-2.86-.45.01-.1,2.87.46Zm372.989-29.92h-.33l3.071-1h.31Zm-5.229-13.91-.021-.04c-1.529-3.65-3.179-7.27-4.909-10.79h-.19l.15-.08c-2.18-4.41-4.551-8.79-7.06-13.02l-.031-.04,2.58-1.54.031.05c2.55,4.31,4.98,8.78,7.19,13.27,1.779,3.6,3.46,7.3,5,10.99l.02.05ZM35.09,115.49l-2.63-1.23.04-.09,2.63,1.23ZM368.859,88.8l-.049-.09,2.419-1.63h.161ZM359.99,76.86l-.03-.04c-2.45-3.07-5.04-6.12-7.71-9.06-3.32-3.66-6.811-7.24-10.4-10.64l-.04-.04,2.06-2.17.04.03c3.63,3.44,7.19,7.07,10.56,10.8,2.7,2.98,5.33,6.08,7.83,9.2l.04.04ZM333.02,49.2l-.07-.07,1.86-2.22.07.06Zm-11.8-9.07-.04-.03c-3.21-2.28-6.52-4.5-9.861-6.59l-.069.1v-.14c-4.19-2.61-8.53-5.09-12.9-7.37l-.05-.02,1.389-2.66.04.02c4.42,2.3,8.811,4.81,13.051,7.46v-.01l.079.05c3.4,2.12,6.79,4.38,10.061,6.72l.04.03ZM114.66,29.45l-.03-.05-1.45-2.57.04-.03c4.35-2.47,8.86-4.8,13.41-6.94,3.63-1.7,7.36-3.31,11.08-4.78l.05-.02,1.1,2.79-.05.02c-3.69,1.46-7.36,3.05-10.9,4.71-4.46,2.09-8.9,4.39-13.21,6.83Zm173.02-8.54-.09-.05,1.18-2.65.089.05Zm-13.85-5.47-.05-.02c-3.74-1.32-7.551-2.54-11.33-3.62-4.75-1.35-9.61-2.54-14.46-3.52l-.04-.05.59-2.9.05.01c4.94,1,9.88,2.21,14.68,3.58,3.87,1.1,7.74,2.34,11.51,3.67l.05.02ZM152.78,12.91l-.85-2.78.1-.03.85,2.78Zm83.539-6.67-.1-.01.4-2.88.1.02ZM221.51,4.81h-.05c-3.94-.24-7.94-.37-11.891-.37l-.049-.05.049-2.94c4.04,0,8.1.12,12.08.36l.04.01Zm-16-.37-.06-2.9h.1l.059,2.9Z" fill="#c4c4c4"/>
      </g>
      <g id="Ellipse_136" data-name="Ellipse 136">
        <path id="Path_1378" data-name="Path 1378" d="M209.569,317.369c-1.34,0-2.71-.029-4.1-.069-4.04-.14-8.11-.48-12.09-1.011l-.05-.009.4-2.97h.05c3.89.519,7.86.86,11.789.99,1.351.04,2.7.069,4,.069,3.591,0,7.221-.169,10.8-.5h.05v.051l.269,2.94h-.049C216.96,317.2,213.24,317.369,209.569,317.369ZM232.6,315.11l-.55-2.84.1-.021.551,2.841Zm-54.04-1.83-.1-.02.74-2.8.1.021Zm68.74-1.94-.941-2.85.051-.02a117.249,117.249,0,0,0,11.01-4.261v-.179l.07.15a117.692,117.692,0,0,0,13.05-6.86l.069-.04v.08l1.531,2.5-.04.03a122.81,122.81,0,0,1-13.43,7.05,120.565,120.565,0,0,1-11.32,4.38Zm-80.32-1.721-.05-.019a119.438,119.438,0,0,1-13.83-6.26,120.937,120.937,0,0,1-10.42-6.23l-.05-.031,1.67-2.489.05.02a116.02,116.02,0,0,0,10.16,6.08,117.756,117.756,0,0,0,13.48,6.11l.05.02ZM282.16,293.17l-1.841-2.43.08-.06,1.761,2.34Zm-151.49-5.26h-.13l1.97-2.28.08.07Zm162.939-4.7-2.089-2.149.03-.03c2.809-2.741,5.519-5.661,8.059-8.68a119.2,119.2,0,0,0,8.781-11.9v-.081l.07.051,2.479,1.6-.019.04a124.022,124.022,0,0,1-8.981,12.18l-.029.04c-2.591,3.089-5.37,6.08-8.261,8.9ZM121.89,279.52l-.04-.03a122.986,122.986,0,0,1-9.69-11.68c-2.38-3.271-4.62-6.691-6.65-10.15l-.03-.05,2.59-1.51.03.04a116.391,116.391,0,0,0,6.49,9.9,117.816,117.816,0,0,0,9.45,11.391l.03.04Zm195.02-27.97-2.591-1.31.051-.09,2.58,1.309ZM98.76,244.14l-.04-.1,2.68-1.139h.25Zm224.219-6.5-2.819-1.01.02-.051a117.655,117.655,0,0,0,3.42-11.33,115.716,115.716,0,0,0,2.65-14.559v-.05l2.979.35v.049a122.359,122.359,0,0,1-2.709,14.931A120.781,120.781,0,0,1,323,237.59ZM94.51,232.76l-.01-.051a119.851,119.851,0,0,1-3.58-14.739c-.7-3.971-1.21-8.02-1.51-12.05v-.05l2.99-.22v.05c.3,3.93.79,7.879,1.47,11.74a116.8,116.8,0,0,0,3.49,14.38l.02.049Zm235.469-33.78-2.9-.05v-.1l2.95.09v.06Zm-237.8-8.03-2.9-.15.01-.1,2.89.15Zm234.19-6.81-.011-.05a116.208,116.208,0,0,0-5.839-25.94l-.02-.04,2.84-.99.01.04a119.287,119.287,0,0,1,4.08,14.62,121.123,121.123,0,0,1,1.92,11.99v.05ZM93.41,179.17l-2.97-.45.01-.05a120.1,120.1,0,0,1,3.22-14.83,117.864,117.864,0,0,1,3.91-11.5l.02-.05,2.79,1.11-.02.05a116.484,116.484,0,0,0-3.82,11.21,117.776,117.776,0,0,0-3.14,14.46Zm222.64-31.93.03-.12,2.63-1.23.04.09Zm-209.42-7.15-2.53-1.41.05-.08,2.53,1.4Zm6.29-10.04-2.46-1.71.03-.04a121.737,121.737,0,0,1,9.41-11.9c2.7-3,5.58-5.9,8.56-8.62l.04-.03,2.02,2.22-.04.03c-2.91,2.65-5.72,5.48-8.35,8.4a120.938,120.938,0,0,0-9.18,11.61Zm170.64-24.49-.07-.07,1.82-2.25.08.06Zm-141.61-4.83-1.67-2.37.08-.06,1.67,2.37Zm129.529-3.72-.049-.03c-3.35-2.08-6.84-4-10.361-5.73a117.16,117.16,0,0,0-13.689-5.64l-.05-.01.97-2.84.05.01a120.115,120.115,0,0,1,13.99,5.77h0l.05.02c3.62,1.77,7.2,3.75,10.62,5.87l.05.03ZM151.99,94.45l-1.47-2.62.04-.02a119.981,119.981,0,0,1,13.66-6.59c3.75-1.52,7.61-2.87,11.47-4l.05-.01.84,2.88-.05.01A118.248,118.248,0,0,0,165.35,88a116.532,116.532,0,0,0-13.32,6.42Zm84.05-12.07h-.1l.71-2.93h.061l-.01.06Zm-45.13-1.56-.46-2.87.1-.01.46,2.86Zm30.529-.83-.049-.01a121,121,0,0,0-18.65-.39h-.05l-.18-2.99.05-.01a123.53,123.53,0,0,1,19.129.41h.051Z" fill="#c4c4c4"/>
      </g>
      <g id="Group_41" data-name="Group 41">
        <circle id="Ellipse_220" data-name="Ellipse 220" cx="54.184" cy="54.184" r="54.184" transform="translate(155.383 142.696)" fill="#6c63ff"/>
        <path id="Path_1106" data-name="Path 1106" d="M232.067,192.329H213.644V173.907a4.335,4.335,0,0,0-4.335-4.335h0a4.336,4.336,0,0,0-4.335,4.335h0v18.422H186.552a4.335,4.335,0,0,0-4.335,4.335h0A4.336,4.336,0,0,0,186.552,201h18.422v18.422a4.336,4.336,0,0,0,4.335,4.335h0a4.335,4.335,0,0,0,4.335-4.335h0V201h18.423a4.335,4.335,0,0,0,4.335-4.335h0a4.335,4.335,0,0,0-4.333-4.335Z" fill="#fff"/>
      </g>
      <circle id="Ellipse_137" data-name="Ellipse 137" cx="8.193" cy="8.193" r="8.193" transform="translate(164.646 -2)" fill="#6c63ff"/>
      <circle id="Ellipse_138" data-name="Ellipse 138" cx="8.193" cy="8.193" r="8.193" transform="translate(378.588 267.832)" fill="#6c63ff"/>
      <circle id="Ellipse_139" data-name="Ellipse 139" cx="14.239" cy="14.239" r="14.239" transform="translate(372.543 261.786)" fill="none" stroke="#6c63ff" stroke-miterlimit="10" stroke-width="2"/>
      <g id="Group_247" data-name="Group 247" transform="translate(-3.508 3.907)">
        <path id="Path_969" data-name="Path 969" d="M8.388,52.594C4.3,52.6,1,55.633.988,59.376v57.452C1,120.571,4.3,123.6,8.388,123.61h77c4.084-.006,7.394-3.039,7.4-6.782V59.38c-.006-3.744-3.316-6.777-7.4-6.782Z" fill="none" stroke="#9e9e9e" stroke-miterlimit="10" stroke-width="1"/>
        <path id="b42f7784-d7aa-4130-a713-c57f7e285794" d="M76.782,66.973l-34.569.147c-.63.027-1.164-.851-1.221-2.009-.035-1.174.452-2.179,1.089-2.246h.062l35.189-.15c1.158,1.874.458,4.264-.55,4.268Z" fill="#ccc"/>
        <path id="fef78de7-8139-4292-a735-dfc1826a946d" d="M76.779,76.056H42.21c-.63.024-1.163-.858-1.218-2.016-.034-1.174.455-2.177,1.091-2.241H77.334c1.157,1.878.453,4.265-.555,4.265Z" fill="#ccc"/>
        <path id="bc3a1040-a005-4464-8914-0d26e9886da7" d="M31.972,78.2H17.5a1.647,1.647,0,0,1-1.782-1.461v-14A1.647,1.647,0,0,1,17.5,61.275H31.972a1.646,1.646,0,0,1,1.78,1.466v14A1.648,1.648,0,0,1,31.972,78.2Z" fill="#6c63ff"/>
        <path id="ef5725be-974e-4818-8827-9633ad97864d" d="M76.523,89.978H17.217c-.708.025-1.307-.927-1.37-2.179-.037-1.269.511-2.353,1.227-2.423h60.07c1.3,2.031.509,4.612-.624,4.612Z" fill="#ccc"/>
        <path id="b6ceb078-02d4-45e5-a259-b4aa725e8656" d="M76.523,102.073H17.217c-.708.025-1.307-.926-1.37-2.179-.037-1.269.511-2.353,1.227-2.423h60.07c1.3,2.031.509,4.612-.624,4.612Z" fill="#ccc"/>
        <path id="b70683a0-764f-4858-8fd1-ac4cf933a79b" d="M76.523,114.159H17.217c-.709.027-1.308-.926-1.37-2.178-.037-1.27.511-2.354,1.227-2.424h60.07c1.3,2.032.509,4.613-.624,4.613Z" fill="#ccc"/>
      </g>
    </g>
  </g>
</svg>
