<?xml version="1.0" encoding="utf-8"?>
<!-- Generator: Adobe Illustrator 27.1.1, SVG Export Plug-In . SVG Version: 6.00 Build 0)  -->
<svg version="1.1" id="Layer_1" xmlns="http://www.w3.org/2000/svg" xmlns:xlink="http://www.w3.org/1999/xlink" x="0px" y="0px"
	 viewBox="0 0 627.9 460.2" style="enable-background:new 0 0 627.9 460.2;" xml:space="preserve">
<style type="text/css">
	.st0{fill:#F2F2F9;}
	.st1{fill:#B5B5B5;stroke:#E6E6FF;stroke-miterlimit:10;}
	.st2{fill:none;stroke:#FFFFFF;stroke-miterlimit:10;}
	.st3{opacity:0.15;fill:none;stroke:#FFFFFF;stroke-width:2;stroke-linecap:round;stroke-miterlimit:10;enable-background:new    ;}
	.st4{fill:#5555C9;}
	.st5{fill:none;stroke:#FFFFFF;stroke-width:4;stroke-linecap:round;stroke-linejoin:round;}
	.st6{opacity:0.15;fill:#FFFFFF;enable-background:new    ;}
	
		.st7{opacity:0.15;fill:none;stroke:#FFFFFF;stroke-width:4;stroke-linecap:round;stroke-linejoin:round;enable-background:new    ;}
	.st8{fill:#FFFFFF;}
	.st9{opacity:0.4;fill:#FFFFFF;enable-background:new    ;}
	.st10{fill:none;stroke:#5555C9;stroke-width:2;stroke-linecap:round;stroke-linejoin:round;}
	.st11{fill:none;stroke:#5555C9;stroke-width:4;stroke-linecap:round;stroke-linejoin:round;}
	.st12{fill:#8C71FF;}
	.st13{opacity:0.71;fill:#EDEDED;enable-background:new    ;}
	.st14{opacity:0.31;fill:#EDEDED;enable-background:new    ;}
	.st15{opacity:0.33;fill:#EDEDED;enable-background:new    ;}
	.st16{fill:none;stroke:#FFFFFF;stroke-width:2;stroke-miterlimit:10;}
	.st17{fill:#F4F4F4;}
	.st18{fill:#716EFF;}
	.st19{fill:#C7C7FF;}
	.st20{fill:none;stroke:#000000;stroke-width:0.5;stroke-miterlimit:10;}
	.st21{fill:#9F9FA3;}
	.st22{fill:none;stroke:#EAEAEA;stroke-miterlimit:10;}
	.st23{fill:#FFFFFF;stroke:#EAEAEA;stroke-miterlimit:10;}
	.st24{fill:#E0E0E0;}
	.st25{fill:#7CC5FC;}
	.st26{opacity:0.31;fill:#FFFFFF;enable-background:new    ;}
	.st27{opacity:0.28;}
	.st28{fill:#BBBBFF;}
	.st29{fill:#6C63FF;}
	.st30{fill:none;stroke:#8C71FF;stroke-miterlimit:10;}
	.st31{fill:#F7F7F7;}
	.st32{opacity:0.17;fill:#8E8E8E;enable-background:new    ;}
	.st33{fill:none;}
	.st34{fill:none;stroke:#E6E6FF;stroke-miterlimit:10;}
	.st35{fill:none;stroke:#CCCCCC;stroke-miterlimit:10;}
	.st36{fill:#CCCCCC;}
	.st37{fill:#B5B5B5;}
	.st38{font-family:'SegoeUI';}
	.st39{font-size:9.134px;}
	.st40{fill:none;stroke:#444444;stroke-miterlimit:10;}
	.st41{fill:none;stroke:#BABABA;stroke-miterlimit:10;}
	.st42{fill:none;stroke:#5B5B5B;stroke-miterlimit:10;}
	.st43{fill:none;stroke:#5B5B5B;stroke-linecap:round;stroke-linejoin:round;}
	.st44{fill:#F95F5F;}
	.st45{fill:#BCBCBC;}
	.st46{fill:#A0A0A0;}
	.st47{font-size:6.942px;}
	.st48{fill:none;stroke:#C4C4C4;stroke-miterlimit:10;}
	.st49{fill:#C4C4C4;}
	.st50{fill-rule:evenodd;clip-rule:evenodd;fill:#716EFF;}
	.st51{fill-rule:evenodd;clip-rule:evenodd;fill:#C4C4C4;}
	.st52{fill:none;stroke:#FFFFFF;stroke-width:2;stroke-linecap:round;stroke-miterlimit:10;}
	.st53{opacity:0.12;fill:#7D7DFF;enable-background:new    ;}
	.st54{fill:none;stroke:#716EFF;stroke-width:2;stroke-miterlimit:10;}
	.st55{fill:none;stroke:#EAEAEA;stroke-width:3;stroke-miterlimit:10;}
</style>
<g transform="translate(-1875.761 -1433.184)">
	<g transform="translate(1902.679 1479.646)">
		<g transform="translate(19.482 0.061)">
			<rect x="0" y="0" class="st0" width="577.3" height="413.7"/>
		</g>
		<path class="st1" d="M20.3,0"/>
		<path class="st2" d="M0,329.7"/>
		<path class="st3" d="M394.6,182.9"/>
		<path class="st3" d="M298.6,182.9"/>
		<g transform="translate(280.971 138.801)">
			<path class="st4" d="M139.6,7v63.6c0,3.9-2.9,7-6.4,7H6.4c-3.5,0-6.4-3.2-6.4-7V7c0-3.9,2.9-7,6.4-7h126.8
				C136.7,0,139.6,3.2,139.6,7z"/>
			<line class="st5" x1="17.7" y1="59.8" x2="90.7" y2="59.8"/>
			<path class="st6" d="M139.6,6.9v22.7c-12.4,10.6-31.1,9.2-41.8-3.3c-4.6-5.4-7.1-12.2-7.1-19.3c0-2.4,0.3-4.7,0.8-7h41.2
				C136.5,0,139.6,3.1,139.6,6.9C139.6,6.9,139.6,6.9,139.6,6.9z"/>
			<line class="st7" x1="17.4" y1="59.8" x2="113.3" y2="59.8"/>
			<path class="st8" d="M18,22.5h43.5c0.5,0,0.9,0.4,0.9,0.9v2.5c0,0.5-0.4,0.9-0.9,0.9H18c-0.5,0-0.9-0.4-0.9-0.9v-2.5
				C17.1,22.9,17.5,22.5,18,22.5z"/>
			<path class="st9" d="M18,33.3h55.9c0.5,0,0.9,0.4,0.9,0.9v2.5c0,0.5-0.4,0.9-0.9,0.9H18c-0.5,0-0.9-0.4-0.9-0.9v-2.5
				C17.1,33.7,17.5,33.3,18,33.3z"/>
			<g transform="translate(109.035 10.092)">
				<path class="st0" d="M2.5,0h14.4c1.4,0,2.5,1.1,2.5,2.5v7.3c0,1.4-1.1,2.5-2.5,2.5H2.5C1.1,12.4,0,11.3,0,9.9V2.5
					C0,1.1,1.1,0,2.5,0z"/>
				<line class="st10" x1="3.8" y1="4.3" x2="10.2" y2="4.3"/>
				<line class="st10" x1="3.8" y1="8.1" x2="14.8" y2="8.1"/>
				<path class="st11" d="M13.7,11.4"/>
				<path class="st11" d="M3.8,11.4"/>
			</g>
		</g>
		<g transform="translate(436.768 23.95)">
			<path class="st8" d="M7.6,0h122c4.2,0,7.6,3.4,7.6,7.6v177c0,4.2-3.4,7.6-7.6,7.6H7.6c-4.2,0-7.6-3.4-7.6-7.6V7.6
				C0,3.4,3.4,0,7.6,0z"/>
			<g transform="translate(10.821 11.104)">
				<path class="st12" d="M5.2,0h107c2.9,0,5.2,2.3,5.2,5.2V60c0,2.9-2.3,5.2-5.2,5.2H5.2C2.3,65.2,0,62.9,0,60V5.2
					C0,2.3,2.3,0,5.2,0z"/>
				<circle class="st13" cx="14.2" cy="14.4" r="4"/>
				<circle class="st8" cx="19.6" cy="14.4" r="4"/>
				<path class="st14" d="M117.3,4v25c-2.4,0.8-4.9,1.2-7.4,1.2c-13,0-23.5-10.5-23.5-23.5c0-2.3,0.3-4.6,1-6.8h25.8
					C115.5,0,117.3,1.8,117.3,4C117.3,4,117.3,4,117.3,4z"/>
				<path class="st15" d="M39.2,65.2H4.1c-2.2,0-4-1.8-4-4c0,0,0,0,0,0V32.6C18.9,33.4,35,46.7,39.2,65.2z"/>
				<line class="st16" x1="22.6" y1="40.3" x2="31.2" y2="40.3"/>
				<line class="st16" x1="35.9" y1="40.3" x2="44.4" y2="40.3"/>
				<line class="st16" x1="49.1" y1="40.3" x2="57.7" y2="40.3"/>
				<line class="st16" x1="62.4" y1="40.3" x2="70.9" y2="40.3"/>
				<line class="st16" x1="75.6" y1="40.3" x2="84.2" y2="40.3"/>
			</g>
		</g>
		<g transform="translate(38.008 23.95)">
			<path class="st8" d="M7.6,0h102.1c4.2,0,7.6,3.4,7.6,7.6v177.3c0,4.2-3.4,7.6-7.6,7.6H7.6c-4.2,0-7.6-3.4-7.6-7.6V7.6
				C0,3.4,3.4,0,7.6,0z"/>
			<path class="st12" d="M6.2,0h104.9c3.3,0,5.9,2.7,5.9,5.9v95.6l0,0H0.2l0,0V5.9C0.2,2.7,2.9,0,6.2,0z"/>
			<circle class="st8" cx="26" cy="31.4" r="12.3"/>
			<g transform="translate(15.723 172.824)">
				<path class="st17" d="M92.1,3.7H1.4C0.5,3.5-0.1,2.7,0,1.8l0,0C-0.1,0.9,0.5,0.1,1.4,0h90.7c0.9,0.1,1.5,0.9,1.4,1.8l0,0
					C93.6,2.7,93,3.5,92.1,3.7z"/>
				<path class="st18" d="M70.5,3.7H1.1C0.5,3.7,0,2.8,0,1.8l0,0C0,0.8,0.5,0,1.1,0h69.5c0.6,0,1.1,0.8,1.1,1.8l0,0
					C71.6,2.8,71.1,3.7,70.5,3.7z"/>
			</g>
			<path class="st8" d="M16.7,69.4h43.5c0.5,0,0.9,0.4,0.9,0.9v2.5c0,0.5-0.4,0.9-0.9,0.9H16.7c-0.5,0-0.9-0.4-0.9-0.9v-2.5
				C15.7,69.8,16.1,69.4,16.7,69.4z"/>
			<path class="st8" d="M16.7,60h43.5c0.5,0,0.9,0.4,0.9,0.9v2.5c0,0.5-0.4,0.9-0.9,0.9H16.7c-0.5,0-0.9-0.4-0.9-0.9v-2.5
				C15.7,60.4,16.1,60,16.7,60z"/>
			<path class="st9" d="M16.7,80.2h55.9c0.5,0,0.9,0.4,0.9,0.9v2.5c0,0.5-0.4,0.9-0.9,0.9H16.7c-0.5,0-0.9-0.4-0.9-0.9v-2.5
				C15.7,80.6,16.1,80.2,16.7,80.2z"/>
		</g>
		<g transform="translate(171.826 23.884)">
			<path class="st8" d="M8.8,0h231.1c4.9,0,8.8,3.9,8.8,8.8v84c0,4.9-3.9,8.8-8.8,8.8H8.8c-4.9,0-8.8-3.9-8.8-8.8v-84
				C0,3.9,3.9,0,8.8,0z"/>
		</g>
		<g transform="translate(171.826 138.8)">
			<path class="st8" d="M6.3,0h79.3c3.5,0,6.3,2.8,6.3,6.3v65.1c0,3.5-2.8,6.3-6.3,6.3H6.3c-3.5,0-6.3-2.8-6.3-6.3V6.3
				C0,2.8,2.8,0,6.3,0z"/>
			<circle class="st18" cx="22" cy="28.8" r="9.6"/>
			<path class="st18" d="M14.8,48.3h30c0.6,0,1.1,0.5,1.1,1.1v2.5c0,0.6-0.5,1.1-1.1,1.1h-30c-0.6,0-1.1-0.5-1.1-1.1v-2.5
				C13.7,48.8,14.2,48.3,14.8,48.3z"/>
			<path class="st19" d="M14.8,61.1h60.4c0.6,0,1.1,0.5,1.1,1.1v2.5c0,0.6-0.5,1.1-1.1,1.1H14.8c-0.6,0-1.1-0.5-1.1-1.1v-2.5
				C13.7,61.6,14.2,61.1,14.8,61.1z"/>
			<path class="st19" d="M75.2-54.9"/>
			<path class="st19" d="M14.8-54.9"/>
		</g>
		<g transform="translate(40.193 229.726)">
			<path class="st8" d="M6.3,0h183.3c3.5,0,6.3,2.8,6.3,6.3V158c0,3.5-2.8,6.3-6.3,6.3H6.3c-3.5,0-6.3-2.8-6.3-6.3V6.3
				C0,2.8,2.8,0,6.3,0z"/>
			<g transform="translate(24.011 26.658)">
				<path class="st0" d="M3.1,0h32.2c1.7,0,3.1,1.4,3.1,3.1v8.3c0,1.7-1.4,3.1-3.1,3.1H3.1c-1.7,0-3.1-1.4-3.1-3.1V3.1
					C0,1.4,1.4,0,3.1,0z"/>
				<g transform="translate(32.437 5.592)">
					<line class="st20" x1="2.7" y1="0" x2="0" y2="2.7"/>
					<line class="st20" x1="2.7" y1="2.7" x2="0" y2="0"/>
				</g>
				<rect x="4.4" y="6.1" class="st21" width="13.5" height="2.1"/>
			</g>
			<g transform="translate(69.104 26.658)">
				<path class="st0" d="M3.1,0h32.2c1.7,0,3.1,1.4,3.1,3.1v8.3c0,1.7-1.4,3.1-3.1,3.1H3.1c-1.7,0-3.1-1.4-3.1-3.1V3.1
					C0,1.4,1.4,0,3.1,0z"/>
				<g transform="translate(32.03 5.592)">
					<line class="st20" x1="2.7" y1="0" x2="0" y2="2.7"/>
					<line class="st20" x1="2.7" y1="2.7" x2="0" y2="0"/>
				</g>
				<rect x="5.9" y="6.1" class="st21" width="13.5" height="2.1"/>
			</g>
			<g transform="translate(114.197 26.658)">
				<path class="st0" d="M3.1,0h32.2c1.7,0,3.1,1.4,3.1,3.1v8.3c0,1.7-1.4,3.1-3.1,3.1H3.1c-1.7,0-3.1-1.4-3.1-3.1V3.1
					C0,1.4,1.4,0,3.1,0z"/>
				<g transform="translate(31.623 5.592)">
					<line class="st20" x1="2.7" y1="0" x2="0" y2="2.7"/>
					<line class="st20" x1="2.7" y1="2.7" x2="0" y2="0"/>
				</g>
				<rect x="5.7" y="6.1" class="st21" width="13.5" height="2.1"/>
			</g>
			<line class="st22" x1="24" y1="62.9" x2="174.5" y2="62.9"/>
			<line class="st22" x1="24" y1="83.1" x2="174.5" y2="83.1"/>
			<line class="st22" x1="24" y1="103.2" x2="174.5" y2="103.2"/>
			<line class="st22" x1="24" y1="123.3" x2="174.5" y2="123.3"/>
			<line class="st22" x1="24" y1="143.4" x2="174.5" y2="143.4"/>
			<line class="st22" x1="55.5" y1="62.9" x2="55.5" y2="143.4"/>
			<line class="st22" x1="79.3" y1="62.9" x2="79.3" y2="143.4"/>
			<line class="st22" x1="103.1" y1="62.9" x2="103.1" y2="143.4"/>
			<line class="st22" x1="126.8" y1="62.9" x2="126.8" y2="143.4"/>
			<line class="st22" x1="150.6" y1="62.9" x2="150.6" y2="143.4"/>
			<path class="st23" d="M174.4,143.4"/>
			<path class="st24" d="M27.6,136.9h20.8c0.4,0,0.8,0.4,0.8,0.8v1.4c0,0.4-0.4,0.8-0.8,0.8H27.6c-0.4,0-0.8-0.4-0.8-0.8v-1.4
				C26.9,137.2,27.2,136.9,27.6,136.9z"/>
			<path class="st24" d="M27.6,115.9h20.8c0.4,0,0.8,0.4,0.8,0.8v1.4c0,0.4-0.4,0.8-0.8,0.8H27.6c-0.4,0-0.8-0.4-0.8-0.8v-1.4
				C26.9,116.3,27.2,115.9,27.6,115.9z"/>
			<path class="st24" d="M55.1,150.7h9.6c0.4,0,0.8,0.4,0.8,0.8v1.4c0,0.4-0.4,0.8-0.8,0.8h-9.6c-0.4,0-0.8-0.4-0.8-0.8v-1.4
				C54.3,151,54.6,150.7,55.1,150.7z"/>
			<path class="st24" d="M79.5,150.7h9.6c0.4,0,0.8,0.4,0.8,0.8v1.4c0,0.4-0.4,0.8-0.8,0.8h-9.6c-0.4,0-0.8-0.4-0.8-0.8v-1.4
				C78.7,151,79,150.7,79.5,150.7z"/>
			<path class="st24" d="M102.7,150.7h9.6c0.4,0,0.8,0.4,0.8,0.8v1.4c0,0.4-0.4,0.8-0.8,0.8h-9.6c-0.4,0-0.8-0.4-0.8-0.8v-1.4
				C101.9,151,102.2,150.7,102.7,150.7z"/>
			<path class="st24" d="M126.7,150.7h9.6c0.4,0,0.8,0.4,0.8,0.8v1.4c0,0.4-0.4,0.8-0.8,0.8h-9.6c-0.4,0-0.8-0.4-0.8-0.8v-1.4
				C125.9,151,126.3,150.7,126.7,150.7z"/>
			<path class="st24" d="M150.6,150.7h9.6c0.4,0,0.8,0.4,0.8,0.8v1.4c0,0.4-0.4,0.8-0.8,0.8h-9.6c-0.4,0-0.8-0.4-0.8-0.8v-1.4
				C149.8,151,150.2,150.7,150.6,150.7z"/>
			<path class="st24" d="M27.6,95.7h20.8c0.4,0,0.8,0.4,0.8,0.8v1.4c0,0.4-0.4,0.8-0.8,0.8H27.6c-0.4,0-0.8-0.4-0.8-0.8v-1.4
				C26.9,96,27.2,95.7,27.6,95.7z"/>
			<path class="st24" d="M27.6,75.5h20.8c0.4,0,0.8,0.4,0.8,0.8v1.4c0,0.4-0.4,0.8-0.8,0.8H27.6c-0.4,0-0.8-0.4-0.8-0.8v-1.4
				C26.9,75.8,27.2,75.5,27.6,75.5z"/>
			<line class="st22" x1="150.5" y1="-194.6" x2="363.5" y2="-194.6"/>
			<line class="st22" x1="150.5" y1="-174.5" x2="363.5" y2="-174.5"/>
			<line class="st22" x1="150.5" y1="-154.3" x2="363.5" y2="-154.3"/>
			<line class="st22" x1="150.5" y1="-134.2" x2="363.5" y2="-134.2"/>
			<line class="st22" x1="150.5" y1="-114.1" x2="363.5" y2="-114.1"/>
			<path class="st12" d="M155.6-125.8h29.5c0.6,0,1.1,0.4,1.1,0.8v1.4c0,0.4-0.5,0.8-1.1,0.8h-29.5c-0.6,0-1.1-0.4-1.1-0.8v-1.4
				C154.5-125.5,155-125.8,155.6-125.8z"/>
			<path class="st24" d="M155.6-146.8h29.5c0.6,0,1.1,0.4,1.1,0.8v1.4c0,0.4-0.5,0.8-1.1,0.8h-29.5c-0.6,0-1.1-0.4-1.1-0.8v-1.4
				C154.5-146.5,155-146.8,155.6-146.8z"/>
			<path class="st12" d="M155.6-167h29.5c0.6,0,1.1,0.4,1.1,0.8v1.4c0,0.4-0.5,0.8-1.1,0.8h-29.5c-0.6,0-1.1-0.4-1.1-0.8v-1.4
				C154.5-166.7,155-167,155.6-167z"/>
			<path class="st24" d="M155.6-187.3h29.5c0.6,0,1.1,0.4,1.1,0.8v1.4c0,0.4-0.5,0.8-1.1,0.8h-29.5c-0.6,0-1.1-0.4-1.1-0.8v-1.4
				C154.5-186.9,155-187.3,155.6-187.3z"/>
			<rect x="55.5" y="72" class="st12" width="9.9" height="71.5"/>
			<rect x="79.3" y="91.8" class="st12" width="9.9" height="51.7"/>
			<rect x="102.5" y="105" class="st25" width="9.9" height="38.4"/>
			<rect x="126.6" y="83.1" class="st12" width="9.9" height="60.4"/>
			<rect x="150.5" y="91.8" class="st25" width="9.9" height="51.7"/>
		</g>
		<g transform="translate(252.497 229.726)">
			<path class="st8" d="M6.3,0h155.6c3.5,0,6.3,2.8,6.3,6.3V158c0,3.5-2.8,6.3-6.3,6.3H6.3c-3.5,0-6.3-2.8-6.3-6.3V6.3
				C0,2.8,2.8,0,6.3,0z"/>
			<g transform="translate(12.371 19.718)">
				<path class="st12" d="M10.1,0h113.1c5.6,0,10.1,4.5,10.1,10.1v10.6c0,5.6-4.5,10.1-10.1,10.1H10.1C4.5,30.8,0,26.3,0,20.7V10.1
					C0,4.5,4.5,0,10.1,0z"/>
			</g>
			<g transform="translate(25.309 27.387)">
				<g transform="translate(22.014 2.312)">
					<path class="st8" d="M0.6,0h31.5c0.3,0,0.6,0.3,0.6,0.6v1.1c0,0.3-0.3,0.6-0.6,0.6H0.6C0.3,2.4,0,2.1,0,1.7V0.6
						C0,0.3,0.3,0,0.6,0z"/>
					<path class="st26" d="M0.6,8.9h60.8c0.3,0,0.6,0.3,0.6,0.6v1.1c0,0.3-0.3,0.6-0.6,0.6H0.6c-0.3,0-0.6-0.3-0.6-0.6V9.5
						C0,9.1,0.3,8.9,0.6,8.9z"/>
				</g>
				<circle class="st8" cx="6.8" cy="6.8" r="6.8"/>
			</g>
			<g transform="translate(24.698 67.253)" class="st27">
				<g transform="translate(22.625 2.923)">
					<path class="st28" d="M0.6,0h31.5c0.3,0,0.6,0.3,0.6,0.6v1.1c0,0.3-0.3,0.6-0.6,0.6H0.6C0.3,2.4,0,2.1,0,1.7V0.6
						C0,0.3,0.3,0,0.6,0z"/>
					<path class="st29" d="M0.6,8.9h60.8c0.3,0,0.6,0.3,0.6,0.6v1.1c0,0.3-0.3,0.6-0.6,0.6H0.6C0.3,11.3,0,11,0,10.6V9.5
						C0,9.2,0.3,8.9,0.6,8.9z"/>
				</g>
				<circle class="st29" cx="7.4" cy="7.4" r="7.4"/>
			</g>
			<g transform="translate(24.698 100.337)" class="st27">
				<g transform="translate(22.625 2.922)">
					<path class="st28" d="M0.6,0h31.5c0.3,0,0.6,0.3,0.6,0.6v1.1c0,0.3-0.3,0.6-0.6,0.6H0.6C0.3,2.4,0,2.1,0,1.7V0.6
						C0,0.3,0.3,0,0.6,0z"/>
					<path class="st29" d="M0.6,9.5h60.8c0.3,0,0.6,0.3,0.6,0.6v1.1c0,0.3-0.3,0.6-0.6,0.6H0.6c-0.3,0-0.6-0.3-0.6-0.6v-1.1
						C0,9.7,0.3,9.5,0.6,9.5z"/>
				</g>
				<circle class="st29" cx="7.4" cy="7.4" r="7.4"/>
			</g>
			<path class="st12" d="M29.9,135.3h43.9c2.5,0,4.6,2,4.6,4.6v7.2c0,2.5-2,4.6-4.6,4.6H29.9c-2.5,0-4.6-2-4.6-4.6v-7.2
				C25.3,137.3,27.4,135.3,29.9,135.3z"/>
			<path class="st30" d="M97.2,134.3h43.9c2.5,0,4.6,2,4.6,4.6v7.2c0,2.5-2,4.6-4.6,4.6H97.2c-2.5,0-4.6-2-4.6-4.6v-7.2
				C92.7,136.3,94.7,134.3,97.2,134.3z"/>
			<path class="st8" d="M46.7,142.5H57c0.4,0,0.7,0.3,0.7,0.7v0.5c0,0.4-0.3,0.7-0.7,0.7H46.7c-0.4,0-0.7-0.3-0.7-0.7v-0.5
				C45.9,142.8,46.3,142.5,46.7,142.5z"/>
			<path class="st12" d="M114,142.5h10.3c0.4,0,0.7,0.3,0.7,0.7v0.5c0,0.4-0.3,0.7-0.7,0.7H114c-0.4,0-0.7-0.3-0.7-0.7v-0.5
				C113.3,142.8,113.6,142.5,114,142.5z"/>
		</g>
		<g transform="translate(437.025 229.726)">
			<path class="st8" d="M7.7,0h121.9c4.2,0,7.7,3.4,7.7,7.7v27.2c0,4.2-3.4,7.7-7.7,7.7H7.7c-4.2,0-7.7-3.4-7.7-7.7V7.7
				C0,3.4,3.4,0,7.7,0z"/>
			<circle class="st31" cx="25.1" cy="21.3" r="12"/>
			<path class="st12" d="M48.3,16.4h21.9c0.6,0,1,0.5,1,1v1.3c0,0.6-0.5,1-1,1H48.3c-0.6,0-1-0.5-1-1v-1.3
				C47.2,16.8,47.7,16.4,48.3,16.4z"/>
			<path class="st24" d="M48.3,25.1h46.5c0.6,0,1,0.5,1,1v1.3c0,0.6-0.5,1-1,1H48.3c-0.6,0-1-0.5-1-1v-1.3
				C47.2,25.6,47.7,25.1,48.3,25.1z"/>
			<g transform="translate(17.006 15.578)">
				<path class="st12" d="M12.6,0L0.3,4.9C0.1,4.9-0.1,5.2,0,5.4c0,0.1,0.2,0.2,0.3,0.3l2.3,0.7c0.5,0.1,0.9,0.5,1.1,1l0.9,2.9
					c0.1,0.3,0.4,0.4,0.7,0.4c0.1,0,0.2-0.1,0.2-0.1l1.3-1.3C7,9.1,7.3,9.1,7.5,9.2l2.8,2c0.3,0.2,0.7,0.2,0.9-0.1
					c0.1-0.1,0.1-0.2,0.1-0.3l2.1-10.1c0.1-0.3-0.1-0.7-0.4-0.8C12.9,0,12.8,0,12.6,0z M11.1,2.3l-5,4.4C5.9,6.9,5.7,7.2,5.6,7.6
					c0,0.2-0.2,0.3-0.4,0.3C5.1,7.9,5,7.8,5,7.7L4.8,6.9c-0.2-0.5,0-1.1,0.5-1.4l5.7-3.5c0.1,0,0.1,0,0.2,0
					C11.2,2.1,11.1,2.2,11.1,2.3L11.1,2.3z"/>
			</g>
			<path class="st25" d="M121.8,9.3h2.6c0.9,0,1.6,0.7,1.6,1.6v2.6c0,0.9-0.7,1.6-1.6,1.6h-2.6c-0.9,0-1.6-0.7-1.6-1.6v-2.6
				C120.2,10,120.9,9.3,121.8,9.3z"/>
		</g>
		<g transform="translate(437.025 290.598)">
			<path class="st8" d="M7.7,0h121.9c4.2,0,7.7,3.4,7.7,7.7v27.2c0,4.2-3.4,7.7-7.7,7.7H7.7c-4.2,0-7.7-3.4-7.7-7.7V7.7
				C0,3.4,3.4,0,7.7,0z"/>
			<circle class="st31" cx="25.1" cy="21.3" r="12"/>
			<path class="st12" d="M48.3,16.4h21.9c0.6,0,1,0.5,1,1v1.3c0,0.6-0.5,1-1,1H48.3c-0.6,0-1-0.5-1-1v-1.3
				C47.2,16.8,47.7,16.4,48.3,16.4z"/>
			<path class="st24" d="M48.3,25.1h46.5c0.6,0,1,0.5,1,1v1.3c0,0.6-0.5,1-1,1H48.3c-0.6,0-1-0.5-1-1v-1.3
				C47.2,25.6,47.7,25.1,48.3,25.1z"/>
			<g transform="translate(20.034 15.62)">
				<path class="st12" d="M0.6,9c-0.1,0.3-0.2,0.7-0.3,1c-0.1,0.4,0.1,0.9,0.6,1c0.1,0,0.3,0,0.4,0l1-0.3c0.3-0.1,0.7,0,1,0.1
					c1,0.4,2.1,0.6,3.1,0.4c3.1-0.5,5.2-3.3,4.7-6.4c-0.5-3.1-3.3-5.2-6.4-4.7C1.7,0.5-0.4,3.4,0.1,6.5c0.1,0.5,0.2,1,0.4,1.4
					C0.6,8.3,0.7,8.6,0.6,9z M3.5,3.2C3.6,3.1,3.7,3,3.8,3c0.1,0,0.5,0,0.6,0.2s0.4,0.9,0.4,1c0,0.1,0.1,0.2,0,0.2
					c0,0.1-0.1,0.2-0.1,0.2C4.7,4.8,4.6,4.9,4.5,5C4.4,5,4.4,5.2,4.5,5.3c0.2,0.4,0.5,0.7,0.8,0.9c0.3,0.3,0.7,0.5,1.1,0.7
					C6.5,7,6.6,7,6.6,6.9S7,6.5,7.1,6.3s0.2-0.1,0.3-0.1c0.1,0,0.8,0.4,0.9,0.4c0.1,0,0.2,0.1,0.3,0.2c0,0.2,0,0.4-0.1,0.6
					C8.4,7.8,8.2,8.1,7.9,8.2C7.6,8.3,7.3,8.3,6,7.8C5,7.4,4.2,6.6,3.6,5.7C3.3,5.3,3.1,4.8,3,4.3C3,3.9,3.2,3.5,3.5,3.2L3.5,3.2z"
					/>
			</g>
			<path class="st25" d="M121.8,10.6h2.6c0.9,0,1.6,0.7,1.6,1.6v2.6c0,0.9-0.7,1.6-1.6,1.6h-2.6c-0.9,0-1.6-0.7-1.6-1.6v-2.6
				C120.2,11.3,120.9,10.6,121.8,10.6z"/>
		</g>
		<g transform="translate(437.025 350.933)">
			<path class="st8" d="M7.7,0h121.9c4.2,0,7.7,3.4,7.7,7.7v27.2c0,4.2-3.4,7.7-7.7,7.7H7.7c-4.2,0-7.7-3.4-7.7-7.7V7.7
				C0,3.4,3.4,0,7.7,0z"/>
			<circle class="st31" cx="25.1" cy="21.8" r="12"/>
			<path class="st29" d="M48.3,16.9h21.9c0.6,0,1,0.5,1,1v1.3c0,0.6-0.5,1-1,1H48.3c-0.6,0-1-0.5-1-1v-1.3
				C47.2,17.4,47.7,16.9,48.3,16.9z"/>
			<path class="st24" d="M48.3,25.7h46.5c0.6,0,1,0.5,1,1V28c0,0.6-0.5,1-1,1H48.3c-0.6,0-1-0.5-1-1v-1.3
				C47.2,26.1,47.7,25.7,48.3,25.7z"/>
			<g transform="translate(22.068 16.782)">
				<path class="st12" d="M0.5,6.9h0.7c0.1,0,0.1,0.1,0.1,0.1v4.7c0,0.2,0.2,0.4,0.4,0.4h1.7c0.2,0,0.4-0.2,0.4-0.4V7.1
					C3.9,7,4,6.9,4,6.9h1.2c0.2,0,0.4-0.2,0.4-0.4L6,4.9c0-0.3-0.1-0.5-0.4-0.5c0,0,0,0,0,0H4.1C4,4.3,3.9,4.3,3.9,4.1V3.1
					c0-0.2,0.1-0.4,0.3-0.4c0,0,0.1,0,0.1,0h1.3c0.2,0,0.4-0.2,0.4-0.4V0.4C6.1,0.2,5.9,0,5.6,0H4.1C1.2,0,1.3,2.3,1.3,2.6v1.6
					c0,0.1-0.1,0.1-0.1,0.1H0.4C0.2,4.3,0,4.5,0,4.8v1.7C0,6.7,0.2,6.9,0.5,6.9z"/>
			</g>
			<path class="st25" d="M121.8,9.9h2.6c0.9,0,1.6,0.7,1.6,1.6V14c0,0.9-0.7,1.6-1.6,1.6h-2.6c-0.9,0-1.6-0.7-1.6-1.6v-2.6
				C120.2,10.6,120.9,9.9,121.8,9.9z"/>
		</g>
	</g>
	<g transform="translate(1875.761 1433.184)">
		<rect x="50" y="46.5" class="st32" width="573.7" height="1.6"/>
		<g transform="translate(0 46.462)">
			<line class="st33" x1="0" y1="0" x2="623.7" y2="0"/>
		</g>
		<path class="st8" d="M623.7,46.5V6c0-3.3-2.7-5.9-5.9-5.9H0v46.5"/>
		<line class="st34" x1="47.2" y1="0" x2="47.2" y2="46.5"/>
		<path class="st35" d="M482.5,21"/>
		<path class="st1" d="M47.2,0"/>
		<g transform="translate(79.318 10.818)">
			<path class="st0" d="M6.5,0h233.3c3.6,0,6.5,2.9,6.5,6.5v11.9c0,3.6-2.9,6.5-6.5,6.5H6.5c-3.6,0-6.5-2.9-6.5-6.5V6.5
				C0,2.9,2.9,0,6.5,0z"/>
			<g transform="translate(19.151 5.775)">
				<path class="st36" d="M7.7,1.4c-1.6-1.8-4.3-1.9-6-0.4C1.5,1.2,1.4,1.3,1.3,1.4c-1.8,2-1.8,4.9,0,6.9c1.6,1.8,4.3,1.9,6,0.3
					c0.1-0.1,0.2-0.2,0.3-0.3C9.4,6.4,9.4,3.4,7.7,1.4z M2.3,7.3C1,5.9,1,3.8,2.3,2.5c1.1-1.2,3-1.3,4.2-0.2
					c0.1,0.1,0.2,0.2,0.2,0.2C8,3.8,8,5.9,6.7,7.3l0,0c-1.1,1.2-3,1.3-4.2,0.2C2.4,7.5,2.4,7.4,2.3,7.3L2.3,7.3z"/>
				<path class="st36" d="M7,8.5l0.9-0.9l0,0l3.5,3.8c0,0,0,0.1,0,0.1l0,0l-0.8,0.8c0,0-0.1,0-0.1,0c0,0,0,0,0,0l0,0L7,8.5L7,8.5z"
					/>
				<text transform="matrix(1 0 0 1 22.946 10.0611)" class="st37 st38 st39">Search for your topic , authour</text>
			</g>
			<g transform="translate(364.672 1.72)">
				<g transform="translate(0 5.101)">
					<path class="st40" d="M1.3,0h8.7c0.7,0,1.3,0.6,1.3,1.3v4.5c0,0.7-0.6,1.3-1.3,1.3H1.3C0.6,7.1,0,6.5,0,5.8V1.3
						C0,0.6,0.6,0,1.3,0z"/>
					<path class="st40" d="M0.4,0.2l4.6,2.9c0.5,0.3,1,0.3,1.5,0L11,0.2"/>
				</g>
				<line class="st41" x1="27.3" y1="0" x2="27.3" y2="17.3"/>
				<line class="st41" x1="63.4" y1="0" x2="63.4" y2="17.3"/>
				<line class="st41" x1="99.6" y1="0" x2="99.6" y2="17.3"/>
				<g transform="translate(40.529 5.102)">
					<path class="st42" d="M0.9,4.5V2.2C0.8,1.1,1.7,0.1,2.9,0h6.2c1.2,0.1,2,1.1,1.9,2.2v1.4c0.1,1.2-0.8,2.1-1.9,2.2L3.3,6"/>
					<path class="st42" d="M0.9,4.5L0,7.7C0,7.9,0.1,8,0.2,7.9l3.2-2"/>
				</g>
				<g transform="translate(79.212 3.118)">
					<path class="st43" d="M5.6,10H0l1-0.7c0,0-0.1-5.4,0-6.1s2.6-1.4,2.6-1.4"/>
					<path class="st43" d="M4.5,1.7c0,0,2.5,0.7,2.6,1.4s0,6.1,0,6.1L8,10H5.6"/>
					<line class="st43" x1="4" y1="1.7" x2="4" y2="0"/>
					<circle class="st44" cx="7" cy="2.1" r="2.1"/>
				</g>
				<circle class="st45" cx="118.4" cy="8.1" r="7.4"/>
				<text transform="matrix(1 0 0 1 134.935 11.158)" class="st46 st38 st47">Androw</text>
			</g>
		</g>
	</g>
	<g transform="translate(1875.761 1479.646)">
		<rect y="0" class="st8" width="46.4" height="413.7"/>
		<g transform="translate(20.445 62.969)">
			<circle class="st48" cx="3.2" cy="2.5" r="2.5"/>
			<path class="st48" d="M2.5,4.9c0,0-2.5,0.8-2.5,2.5v2.4"/>
			<path class="st48" d="M4.5,4.9c0,0,2.5,0.8,2.5,2.5v2.4"/>
		</g>
		<g transform="translate(18.534 105.025)">
			<g transform="translate(5.344)">
				<circle class="st48" cx="2" cy="2" r="2"/>
				<path class="st48" d="M1.4,4"/>
				<path class="st48" d="M3,4c0,0,2,0.6,2,2v2.2"/>
			</g>
			<g transform="translate(0 2.836)">
				<circle class="st48" cx="2.8" cy="2.1" r="2.1"/>
				<path class="st48" d="M2.1,4.2c0,0-2.1,0.7-2.1,2.2v2.1"/>
				<path class="st48" d="M3.8,4.2c0,0,2.1,0.7,2.1,2.2v2.1"/>
			</g>
		</g>
		<g transform="translate(14.223 156.333)">
			<path class="st49" d="M9.7,0c1.8,0,3.4,0.7,4.7,1.9l0,0c2.6,2.6,2.6,6.8,0,9.3c0,0,0,0,0,0l0,0c-2.6,2.6-6.8,2.6-9.3,0
				c0,0,0,0,0,0l0,0c-0.6-0.6-1.1-1.3-1.4-2.1C3.5,8.9,3.4,8.6,3.3,8.4c0.1,0,0.3,0,0.4,0c0.3,0,0.5,0,0.8-0.1
				c0,0.1,0.1,0.3,0.1,0.4c1.1,2.8,4.3,4.1,7.1,2.9c2.8-1.1,4.1-4.3,2.9-7.1c-1.1-2.8-4.3-4.1-7.1-2.9c-0.1,0-0.1,0.1-0.2,0.1
				C7.2,1.3,7,1,6.7,0.7C6.8,0.7,7,0.6,7.2,0.5C8,0.2,8.8,0,9.7,0L9.7,0z M8.9,3.5c0-0.2,0.1-0.3,0.2-0.4c0.2-0.2,0.6-0.2,0.8,0
				c0.1,0.1,0.2,0.3,0.2,0.4v3.1l2.3,1.4c0.1,0.1,0.2,0.2,0.3,0.4c0,0.1,0,0.3-0.1,0.4l0,0l0,0c-0.1,0.1-0.2,0.2-0.4,0.3
				c-0.1,0-0.3,0-0.4-0.1l0,0L9.2,7.4C9.1,7.3,8.9,7.1,8.9,6.9L8.9,3.5L8.9,3.5z"/>
			<path class="st50" d="M3.6,0.4c2,0,3.6,1.6,3.6,3.6S5.6,7.5,3.6,7.5C1.6,7.5,0,5.9,0,3.9C0,2,1.6,0.4,3.6,0.4L3.6,0.4z M3.6,6
				l1.9-2.4H4.3V2.3H2.9v1.3H1.7L3.6,6L3.6,6z"/>
		</g>
		<g transform="translate(13.336 208.922)">
			<path class="st49" d="M12.5,0c-0.3,0-0.6,0.2-0.7,0.6v2.4c0.1,0.4,0.4,0.6,0.8,0.5c0.3-0.1,0.5-0.3,0.5-0.5V0.6
				C13.1,0.2,12.8,0,12.5,0z M11.9,7h-1.8C10,7,10,7.1,10,7.3s0,0.4,0.1,0.4h1.8c0,0,0.1-0.2,0.1-0.4S11.9,7,11.9,7L11.9,7z M14.9,7
				h-1.8c0,0-0.1,0.2-0.1,0.4s0,0.4,0.1,0.4h1.8c0,0,0.1-0.2,0.1-0.4S15,7,14.9,7L14.9,7z M9,9.1H7.2c0,0-0.1,0.2-0.1,0.4
				s0,0.4,0.1,0.4H9c0,0,0.1-0.2,0.1-0.4S9,9.1,9,9.1L9,9.1z M11.9,9.1h-1.8c0,0-0.1,0.2-0.1,0.4s0,0.4,0.1,0.4h1.8
				c0,0,0.1-0.2,0.1-0.4S11.9,9.1,11.9,9.1L11.9,9.1z M14.9,9.1h-1.8c0,0-0.1,0.2-0.1,0.4s0,0.4,0.1,0.4h1.8c0,0,0.1-0.2,0.1-0.4
				S15,9.1,14.9,9.1L14.9,9.1z M6.1,11.2H4.3c0,0-0.1,0.2-0.1,0.4s0,0.4,0.1,0.4h1.8c0,0,0.1-0.2,0.1-0.4S6.1,11.2,6.1,11.2
				L6.1,11.2z M9,11.2H7.2c0,0-0.1,0.2-0.1,0.4s0,0.4,0.1,0.4H9c0,0,0.1-0.2,0.1-0.4S9,11.2,9,11.2L9,11.2z M11.9,11.2h-1.8
				c0,0-0.1,0.2-0.1,0.4s0,0.4,0.1,0.4h1.8c0,0,0.1-0.2,0.1-0.4S11.9,11.2,11.9,11.2L11.9,11.2z M14.9,11.2h-1.8
				c0,0-0.1,0.2-0.1,0.4s0,0.4,0.1,0.4h1.8c0,0,0.1-0.2,0.1-0.4S15,11.2,14.9,11.2L14.9,11.2z M10.7,1.4H8.3c-0.2,0-0.4,0.2-0.4,0.4
				c0,0,0,0,0,0c0,0.2,0.2,0.4,0.4,0.4h2.5c0.2,0,0.4-0.2,0.4-0.4C11.1,1.6,10.9,1.4,10.7,1.4C10.7,1.4,10.7,1.4,10.7,1.4L10.7,1.4z
				"/>
			<path class="st50" d="M6.1,1.1c-1.4-1.4-3.7-1.4-5.1,0s-1.4,3.7,0,5.1l0,0c0.7,0.7,1.6,1.1,2.5,1.1c2,0,3.6-1.6,3.6-3.6
				C7.2,2.7,6.8,1.8,6.1,1.1L6.1,1.1z M5.2,3C5.1,3,5.1,3,5.2,3c0,0.1,0,0.1-0.1,0.1c0,0,0,0,0,0.1L3.5,4.8c0,0,0,0-0.1,0
				c0,0,0,0-0.1,0c0,0-0.1,0-0.1,0c0,0-0.1,0-0.1,0H3.1c0,0,0,0-0.1,0l-0.1,0h0c0,0,0,0-0.1,0C2.8,4.8,2.7,4.7,2.6,4.6
				C2.4,4.4,2.2,4.2,2,4.1C2,4,2,4,2,4c0,0,0,0,0-0.1c0-0.1,0-0.2,0-0.2c0-0.1,0-0.1,0.1-0.2l0,0c0.1-0.1,0.3-0.2,0.5-0.1
				c0,0,0,0,0.1,0v0C2.7,3.6,2.9,3.8,3,3.9L3.1,4l1.3-1.4c0,0,0,0,0.1-0.1c0,0,0,0,0.1,0s0.1,0,0.1,0h0.2c0,0,0.1,0,0.1,0l0.1,0
				c0,0,0,0,0.1,0l0,0c0,0,0,0,0,0.1c0,0,0,0,0,0.1l0,0.1L5.2,3z"/>
			<path class="st51" d="M16.6,2.5v11c0,0.3-0.3,0.6-0.6,0.6H3.5c-0.3,0-0.6-0.1-0.8-0.3c-0.2-0.2-0.3-0.5-0.3-0.8V8.3h0.7v4.8
				c0,0.1,0,0.2,0.1,0.2c0.1,0.1,0.1,0.1,0.2,0.1h11.7c0.3,0,0.6-0.3,0.6-0.6V5.9h-8V5.2h8V2.5c0-0.1,0-0.2-0.1-0.2
				c-0.1-0.1-0.1-0.1-0.2-0.1h-1.2c-0.2,0-0.4-0.2-0.4-0.4c0-0.2,0.2-0.4,0.4-0.4c0,0,0,0,0,0h1.2C16.1,1.4,16.6,1.9,16.6,2.5
				C16.6,2.5,16.6,2.5,16.6,2.5L16.6,2.5z"/>
		</g>
		<g transform="translate(11.907 326.516)">
			<circle class="st18" cx="11.4" cy="11.4" r="11.4"/>
			<g transform="translate(6.215 7.052)">
				<line class="st52" x1="10.7" y1="4.3" x2="0" y2="4.3"/>
				<path class="st52" d="M6.7,0L11,4.3L6.7,8.6"/>
			</g>
		</g>
		<path class="st49" d="M22.3,262.5c0.1-0.1,0.1-0.1,0.2-0.1c0,0,0,0,0.1,0H28c0.2,0,0.4,0.1,0.5,0.2c0.1,0.1,0.2,0.3,0.2,0.5v12.9
			c0,0.4-0.3,0.8-0.8,0.8h-9.1c-0.4,0-0.8-0.3-0.8-0.8v-9.2c0,0,0-0.1,0-0.1c0-0.1,0-0.2,0.1-0.3L22.3,262.5
			C22.2,262.5,22.2,262.5,22.3,262.5L22.3,262.5z M28.1,263.2C28.1,263.2,28.1,263.2,28.1,263.2C28,263.1,28,263.1,28.1,263.2
			l-5.2-0.1v3c0,0.6-0.5,1-1,1h-3v8.9c0,0,0,0,0,0.1c0,0,0,0,0.1,0H28c0,0,0,0,0.1,0c0,0,0,0,0-0.1L28.1,263.2L28.1,263.2z
			 M20.8,274.4c-0.2,0-0.3-0.2-0.3-0.3c0-0.2,0.1-0.3,0.3-0.3h3.3c0.2,0,0.3,0.1,0.3,0.3s-0.1,0.3-0.3,0.3c0,0,0,0,0,0H20.8z
			 M20.8,272.3c-0.2,0-0.3-0.2-0.3-0.3c0-0.2,0.1-0.3,0.3-0.3h5c0.2,0,0.3,0.2,0.3,0.3c0,0.2-0.1,0.3-0.3,0.3H20.8z M20.8,270.2
			c-0.2,0-0.3-0.2-0.3-0.3c0-0.2,0.1-0.3,0.3-0.3h5.8c0.2,0,0.3,0.1,0.3,0.3s-0.1,0.3-0.3,0.3c0,0,0,0,0,0H20.8z M22.2,266.1v-2.5
			l-2.9,2.9h2.5c0.1,0,0.2,0,0.2-0.1C22.1,266.3,22.2,266.2,22.2,266.1L22.2,266.1z"/>
		<rect y="0" class="st53" width="47.2" height="36.6"/>
		<g transform="translate(0 0.061)">
			<rect y="0" class="st18" width="2" height="36.5"/>
		</g>
		<g transform="translate(14.545 10.141)">
			<path class="st18" d="M0.5,3C0.2,3,0,2.8,0,2.5C0,2.2,0.2,2,0.5,2h0.8c0.4,0,0.9,0.1,1.3,0.3C3,2.6,3.3,3,3.4,3.5c0,0,0,0,0,0
				l0.1,0.5h1.5c0.1,0.4,0.3,0.8,0.6,1H3.9L5,9.6h8.4l1.1-4.5h-1.8c0.3-0.3,0.5-0.6,0.6-1h1.9c0.3,0,0.5,0.2,0.5,0.5
				c0,0.1,0,0.1,0,0.2l-1.4,5.5c-0.1,0.2-0.3,0.4-0.5,0.4H5.3c0.1,0.5,0.3,0.9,0.6,1.2c0.6,0.2,1.1,0.3,1.7,0.2h6
				c0.3,0,0.5,0.2,0.5,0.5s-0.2,0.5-0.5,0.5h-6c-0.8,0.1-1.6,0-2.3-0.4c-0.6-0.6-1.1-1.3-1.1-2.2l0,0L2.4,3.8c0,0,0,0,0,0
				c0-0.2-0.2-0.5-0.4-0.6C1.8,3.1,1.5,3,1.3,3h0L0.5,3L0.5,3z M8.8,5.9L6.7,4.1C6.4,3.9,6.4,3.5,6.6,3.2C6.8,3,7.2,2.9,7.5,3.1
				l1.2,1V0.6C8.6,0.3,8.9,0,9.2,0s0.6,0.3,0.6,0.6c0,0,0,0,0,0v3.5l1.2-1c0.3-0.2,0.7-0.2,0.9,0.1s0.2,0.7-0.1,0.9l0,0L9.6,5.9l0,0
				C9.4,6,9.1,6,8.8,5.9L8.8,5.9L8.8,5.9z M10.8,7.7c0-0.2,0.2-0.3,0.4-0.3c0.1,0,0.3,0.1,0.3,0.3v0.6c0,0.2-0.2,0.3-0.4,0.3
				c-0.1,0-0.3-0.1-0.3-0.3V7.7z M8.6,7.7c0-0.2,0.2-0.3,0.4-0.3c0.1,0,0.3,0.1,0.3,0.3v0.6c0,0.2-0.2,0.3-0.4,0.3
				c-0.1,0-0.3-0.1-0.3-0.3V7.7z M6.5,7.7c0-0.2,0.2-0.3,0.4-0.3c0.1,0,0.3,0.1,0.3,0.3v0.6c0,0.2-0.2,0.3-0.4,0.3
				c-0.1,0-0.3-0.1-0.3-0.3V7.7z M12.2,13.7c0.7,0,1.3,0.6,1.3,1.3s-0.6,1.3-1.3,1.3s-1.3-0.6-1.3-1.3c0,0,0,0,0,0
				C10.9,14.3,11.5,13.7,12.2,13.7L12.2,13.7z M6.5,13.7c0.7,0,1.3,0.6,1.3,1.3s-0.6,1.3-1.3,1.3S5.3,15.7,5.3,15c0,0,0,0,0,0
				C5.3,14.3,5.8,13.7,6.5,13.7z"/>
		</g>
	</g>
</g>
<path class="st54" d="M279.4,142c0,0,25-43.3,55.7,0s47.3-19.2,47.3-19.2"/>
<path class="st55" d="M279.4,108.7c0,0,25-43.3,55.7,0s47.3-19.2,47.3-19.2"/>
<path class="st24" d="M423.5,97.8H418c-1.7,0-3.2-1.4-3.2-3.2v-5.5c0-1.7,1.4-3.2,3.2-3.2h5.5c1.7,0,3.2,1.4,3.2,3.2v5.5
	C426.6,96.4,425.2,97.8,423.5,97.8z"/>
<path class="st12" d="M423.5,118.5H418c-1.7,0-3.2-1.4-3.2-3.2v-5.5c0-1.7,1.4-3.2,3.2-3.2h5.5c1.7,0,3.2,1.4,3.2,3.2v5.5
	C426.6,117.1,425.2,118.5,423.5,118.5z"/>
<path class="st24" d="M423.5,139.1H418c-1.7,0-3.2-1.4-3.2-3.2v-5.5c0-1.7,1.4-3.2,3.2-3.2h5.5c1.7,0,3.2,1.4,3.2,3.2v5.5
	C426.6,137.7,425.2,139.1,423.5,139.1z"/>
<path class="st12" d="M423.5,159.7H418c-1.7,0-3.2-1.4-3.2-3.2v-5.5c0-1.7,1.4-3.2,3.2-3.2h5.5c1.7,0,3.2,1.4,3.2,3.2v5.5
	C426.6,158.3,425.2,159.7,423.5,159.7z"/>
</svg>
