<svg xmlns="http://www.w3.org/2000/svg" width="627.872" height="460.19" viewBox="0 0 627.872 460.19"><g transform="translate(-1875.761 -1433.184)"><g transform="translate(1902.679 1479.646)"><g transform="translate(19.482 0.061)"><rect width="577.265" height="413.667" fill="#f2f2f9"/></g><path d="M1929.074,1485.664" transform="translate(-1908.793 -1485.664)" fill="#b5b5b5" stroke="#e6e6ff" stroke-miterlimit="10" stroke-width="1"/><path d="M1906.166,1858.019" transform="translate(-1906.166 -1528.364)" fill="none" stroke="#fff" stroke-miterlimit="10" stroke-width="1"/><path d="M2351.826,1692.294" transform="translate(-1957.272 -1509.359)" fill="none" stroke="#fff" stroke-linecap="round" stroke-miterlimit="10" stroke-width="2" opacity="0.15"/><path d="M2243.475,1692.294" transform="translate(-1944.847 -1509.359)" fill="none" stroke="#fff" stroke-linecap="round" stroke-miterlimit="10" stroke-width="2" opacity="0.15"/><g transform="translate(280.971 138.801)"><path d="M2363.12,1649.48v63.575c0,3.887-2.868,7.037-6.407,7.037H2229.938c-3.539,0-6.407-3.151-6.407-7.037V1649.48c0-3.887,2.868-7.036,6.407-7.036h126.775C2360.252,1642.444,2363.12,1645.594,2363.12,1649.48Z" transform="translate(-2223.531 -1642.444)" fill="#5555c9"/><line x2="73.043" transform="translate(17.657 59.804)" fill="none" stroke="#fff" stroke-linecap="round" stroke-linejoin="round" stroke-width="4"/><path d="M2374.868,1649.312v22.662a29.634,29.634,0,0,1-48.889-22.534,29.2,29.2,0,0,1,.84-7H2368A6.868,6.868,0,0,1,2374.868,1649.312Z" transform="translate(-2235.279 -1642.444)" fill="#fff" opacity="0.15"/><line x2="95.925" transform="translate(17.38 59.804)" fill="none" stroke="#fff" stroke-linecap="round" stroke-linejoin="round" stroke-width="4" opacity="0.15"/><rect width="45.311" height="4.323" rx="0.93" transform="translate(17.065 22.491)" fill="#fff"/><rect width="57.753" height="4.323" rx="0.93" transform="translate(17.065 33.308)" fill="#fff" opacity="0.4"/><g transform="translate(109.035 10.092)"><rect width="19.42" height="12.4" rx="2.534" fill="#f2f2f9"/><line x2="6.361" transform="translate(3.81 4.317)" fill="none" stroke="#5555c9" stroke-linecap="round" stroke-linejoin="round" stroke-width="2"/><line x2="11.039" transform="translate(3.81 8.062)" fill="none" stroke="#5555c9" stroke-linecap="round" stroke-linejoin="round" stroke-width="2"/><path d="M2362.191,1666.693" transform="translate(-2348.466 -1655.316)" fill="none" stroke="#5555c9" stroke-linecap="round" stroke-linejoin="round" stroke-width="4"/><path d="M2350.993,1666.693" transform="translate(-2347.182 -1655.316)" fill="none" stroke="#5555c9" stroke-linecap="round" stroke-linejoin="round" stroke-width="4"/></g></g><g transform="translate(436.768 23.95)"><rect width="137.172" height="192.204" rx="7.59" fill="#fff"/><g transform="translate(10.821 11.104)"><rect width="117.288" height="65.212" rx="5.167" fill="#8c71ff"/><circle cx="3.988" cy="3.988" r="3.988" transform="translate(10.204 10.439)" fill="#ededed" opacity="0.71"/><circle cx="3.988" cy="3.988" r="3.988" transform="translate(15.6 10.439)" fill="#fff"/><path d="M2540.22,1529.3v25.032a23.118,23.118,0,0,1-7.35,1.183,23.462,23.462,0,0,1-22.451-30.26h25.755A4.041,4.041,0,0,1,2540.22,1529.3Z" transform="translate(-2422.932 -1525.259)" fill="#ededed" opacity="0.31"/><path d="M2450.9,1594.7h-35.118a4.042,4.042,0,0,1-4.046-4.047v-28.531A41.775,41.775,0,0,1,2450.9,1594.7Z" transform="translate(-2411.731 -1529.486)" fill="#ededed" opacity="0.33"/><line x2="8.537" transform="translate(22.63 40.341)" fill="none" stroke="#fff" stroke-miterlimit="10" stroke-width="2"/><line x2="8.537" transform="translate(35.883 40.341)" fill="none" stroke="#fff" stroke-miterlimit="10" stroke-width="2"/><line x2="8.537" transform="translate(49.137 40.341)" fill="none" stroke="#fff" stroke-miterlimit="10" stroke-width="2"/><line x2="8.537" transform="translate(62.39 40.341)" fill="none" stroke="#fff" stroke-miterlimit="10" stroke-width="2"/><line x2="8.537" transform="translate(75.644 40.341)" fill="none" stroke="#fff" stroke-miterlimit="10" stroke-width="2"/></g></g><g transform="translate(38.008 23.95)"><rect width="117.26" height="192.501" rx="7.59" fill="#fff"/><path d="M5.937,0H110.886a5.937,5.937,0,0,1,5.937,5.937V101.55a0,0,0,0,1,0,0H0a0,0,0,0,1,0,0V5.937A5.937,5.937,0,0,1,5.937,0Z" transform="translate(0.218)" fill="#8c71ff"/><circle cx="12.345" cy="12.345" r="12.345" transform="translate(13.684 31.365)" fill="#fff"/><g transform="translate(15.723 172.824)"><path d="M2058.934,1711.589h-90.672a1.661,1.661,0,0,1-1.406-1.831h0a1.662,1.662,0,0,1,1.406-1.832h90.672a1.662,1.662,0,0,1,1.406,1.832h0A1.661,1.661,0,0,1,2058.934,1711.589Z" transform="translate(-1966.856 -1707.926)" fill="#f4f4f4"/><path d="M2037.391,1711.589h-69.458c-.594,0-1.077-.82-1.077-1.831h0c0-1.012.483-1.832,1.077-1.832h69.458c.594,0,1.077.82,1.077,1.832h0C2038.467,1710.769,2037.985,1711.589,2037.391,1711.589Z" transform="translate(-1966.856 -1707.926)" fill="#716eff"/></g><rect width="45.311" height="4.323" rx="0.93" transform="translate(15.723 69.352)" fill="#fff"/><rect width="57.753" height="4.323" rx="0.93" transform="translate(15.723 80.169)" fill="#fff" opacity="0.4"/></g><g transform="translate(171.826 23.884)"><rect width="248.734" height="101.616" rx="8.795" fill="#fff"/></g><g transform="translate(171.826 138.8)"><rect width="91.824" height="77.651" rx="6.254" fill="#fff"/><circle cx="9.634" cy="9.634" r="9.634" transform="translate(12.367 19.181)" fill="#716eff"/><rect width="32.203" height="4.729" rx="1.112" transform="translate(13.709 48.312)" fill="#716eff"/><rect width="62.628" height="4.729" rx="1.112" transform="translate(13.709 61.098)" fill="#c7c7ff"/></g><g transform="translate(40.193 229.726)"><rect width="195.768" height="164.284" rx="6.254" fill="#fff"/><g transform="translate(24.011 26.658)"><rect width="38.349" height="14.464" rx="3.057" fill="#f2f2f9"/><g transform="translate(32.437 5.592)"><line x1="2.694" y2="2.694" fill="none" stroke="#000" stroke-miterlimit="10" stroke-width="0.5"/><line x1="2.694" y1="2.694" fill="none" stroke="#000" stroke-miterlimit="10" stroke-width="0.5"/></g><rect width="13.521" height="2.146" transform="translate(4.408 6.14)" fill="#9f9fa3"/></g><g transform="translate(69.104 26.658)"><rect width="38.349" height="14.464" rx="3.057" fill="#f2f2f9"/><g transform="translate(32.03 5.592)"><line x1="2.694" y2="2.694" fill="none" stroke="#000" stroke-miterlimit="10" stroke-width="0.5"/><line x1="2.694" y1="2.694" fill="none" stroke="#000" stroke-miterlimit="10" stroke-width="0.5"/></g><rect width="13.521" height="2.146" transform="translate(5.883 6.14)" fill="#9f9fa3"/></g><g transform="translate(114.197 26.658)"><rect width="38.349" height="14.464" rx="3.057" fill="#f2f2f9"/><g transform="translate(31.623 5.592)"><line x1="2.694" y2="2.694" fill="none" stroke="#000" stroke-miterlimit="10" stroke-width="0.5"/><line x1="2.694" y1="2.694" fill="none" stroke="#000" stroke-miterlimit="10" stroke-width="0.5"/></g><rect width="13.521" height="2.146" transform="translate(5.679 6.14)" fill="#9f9fa3"/></g><line x2="150.471" transform="translate(24.011 62.92)" fill="#fff" stroke="#eaeaea" stroke-miterlimit="10" stroke-width="1"/><line x2="150.471" transform="translate(24.011 83.05)" fill="#fff" stroke="#eaeaea" stroke-miterlimit="10" stroke-width="1"/><line x2="150.471" transform="translate(24.011 103.18)" fill="#fff" stroke="#eaeaea" stroke-miterlimit="10" stroke-width="1"/><line x2="150.471" transform="translate(24.011 123.31)" fill="#fff" stroke="#eaeaea" stroke-miterlimit="10" stroke-width="1"/><line x2="150.471" transform="translate(24.011 143.44)" fill="#fff" stroke="#eaeaea" stroke-miterlimit="10" stroke-width="1"/><line y2="80.521" transform="translate(55.546 62.92)" fill="#fff" stroke="#eaeaea" stroke-miterlimit="10" stroke-width="1"/><line y2="80.521" transform="translate(79.308 62.92)" fill="#fff" stroke="#eaeaea" stroke-miterlimit="10" stroke-width="1"/><line y2="80.521" transform="translate(103.07 62.92)" fill="#fff" stroke="#eaeaea" stroke-miterlimit="10" stroke-width="1"/><line y2="80.521" transform="translate(126.831 62.92)" fill="#fff" stroke="#eaeaea" stroke-miterlimit="10" stroke-width="1"/><line y2="80.521" transform="translate(150.593 62.92)" fill="#fff" stroke="#eaeaea" stroke-miterlimit="10" stroke-width="1"/><path d="M2148.5,1907.166" transform="translate(-1974.149 -1763.726)" fill="#fff" stroke="#eaeaea" stroke-miterlimit="10" stroke-width="1"/><rect width="22.39" height="3.02" rx="0.786" transform="translate(26.861 136.898)" fill="#e0e0e0"/><rect width="22.39" height="3.02" rx="0.786" transform="translate(26.861 115.914)" fill="#e0e0e0"/><rect width="11.195" height="3.02" rx="0.786" transform="translate(54.274 150.651)" fill="#e0e0e0"/><rect width="11.195" height="3.02" rx="0.786" transform="translate(78.672 150.651)" fill="#e0e0e0"/><rect width="11.195" height="3.02" rx="0.786" transform="translate(101.893 150.651)" fill="#e0e0e0"/><rect width="11.195" height="3.02" rx="0.786" transform="translate(125.925 150.651)" fill="#e0e0e0"/><rect width="11.195" height="3.02" rx="0.786" transform="translate(149.821 150.651)" fill="#e0e0e0"/><rect width="22.39" height="3.02" rx="0.786" transform="translate(26.861 95.689)" fill="#e0e0e0"/><rect width="22.39" height="3.02" rx="0.786" transform="translate(26.861 75.465)" fill="#e0e0e0"/><rect width="9.922" height="71.462" transform="translate(55.546 71.978)" fill="#8c71ff"/><rect width="9.922" height="51.674" transform="translate(79.308 91.766)" fill="#8c71ff"/><rect width="9.922" height="38.393" transform="translate(102.529 105.048)" fill="#7cc5fc"/><rect width="9.922" height="60.391" transform="translate(126.561 83.05)" fill="#8c71ff"/><rect width="9.922" height="51.674" transform="translate(150.458 91.766)" fill="#7cc5fc"/></g><g transform="translate(252.497 229.726)"><rect width="168.064" height="164.284" rx="6.254" fill="#fff"/><g transform="translate(12.371 19.718)"><rect width="133.325" height="30.817" rx="10.099" fill="#8c71ff"/></g><g transform="translate(25.309 27.387)"><g transform="translate(22.014 2.312)"><rect width="32.762" height="2.359" rx="0.624" fill="#fff"/><rect width="62.084" height="2.359" rx="0.624" transform="translate(0 8.852)" fill="#fff" opacity="0.31"/></g><circle cx="6.761" cy="6.761" r="6.761" fill="#fff"/></g><g transform="translate(24.698 67.253)" opacity="0.28"><g transform="translate(22.625 2.923)"><rect width="32.762" height="2.359" rx="0.624" fill="#bbf"/><rect width="62.084" height="2.359" rx="0.624" transform="translate(0 8.899)" fill="#6c63ff"/></g><circle cx="7.372" cy="7.372" r="7.372" fill="#6c63ff"/></g><g transform="translate(24.698 100.337)" opacity="0.28"><g transform="translate(22.625 2.922)"><rect width="32.762" height="2.359" rx="0.624" fill="#bbf"/><rect width="62.084" height="2.359" rx="0.624" transform="translate(0 9.462)" fill="#6c63ff"/></g><circle cx="7.372" cy="7.372" r="7.372" fill="#6c63ff"/></g><rect width="53.043" height="16.35" rx="4.56" transform="translate(25.309 135.265)" fill="#8c71ff"/><rect width="53.043" height="16.35" rx="4.56" transform="translate(92.653 134.301)" fill="none" stroke="#8c71ff" stroke-miterlimit="10" stroke-width="1"/><rect width="11.792" height="1.928" rx="0.737" transform="translate(45.934 142.476)" fill="#fff"/><rect width="11.792" height="1.928" rx="0.737" transform="translate(113.279 142.476)" fill="#8c71ff"/></g><g transform="translate(437.025 229.726)"><rect width="137.172" height="42.54" rx="7.655" fill="#fff"/><circle cx="11.957" cy="11.957" r="11.957" transform="translate(13.145 9.313)" fill="#f7f7f7"/><rect width="23.983" height="3.342" rx="1.035" transform="translate(47.216 16.376)" fill="#8c71ff"/><rect width="48.525" height="3.342" rx="1.035" transform="translate(47.216 25.141)" fill="#e0e0e0"/><g transform="translate(17.006 15.578)"><path d="M2431.64,1762.791l-12.336,4.819a.443.443,0,0,0,.024.844l2.337.7a1.529,1.529,0,0,1,1.06,1.036l.916,2.915a.533.533,0,0,0,.891.217l1.254-1.276a.59.59,0,0,1,.771-.073l2.77,2.024a.657.657,0,0,0,1.037-.409l2.1-10.071A.6.6,0,0,0,2431.64,1762.791Zm-1.542,2.217-4.963,4.385a1.429,1.429,0,0,0-.481.94.35.35,0,0,1-.675.072l-.217-.722a1.19,1.19,0,0,1,.505-1.374l5.663-3.517A.138.138,0,0,1,2430.1,1765.008Z" transform="translate(-2419.008 -1762.742)" fill="#8c71ff"/></g><rect width="5.788" height="5.788" rx="1.618" transform="translate(120.177 9.313)" fill="#7cc5fc"/></g><g transform="translate(437.025 290.598)"><rect width="137.172" height="42.54" rx="7.655" fill="#fff"/><circle cx="11.957" cy="11.957" r="11.957" transform="translate(13.145 9.313)" fill="#f7f7f7"/><rect width="23.983" height="3.342" rx="1.035" transform="translate(47.216 16.376)" fill="#8c71ff"/><rect width="48.525" height="3.342" rx="1.035" transform="translate(47.216 25.141)" fill="#e0e0e0"/><g transform="translate(20.034 15.62)"><path d="M2423.013,1840.5c-.081.3-.161.665-.262,1.048a.794.794,0,0,0,.968.967l1.028-.261a1.637,1.637,0,0,1,1.028.1,5.5,5.5,0,0,0,3.145.423,5.644,5.644,0,1,0-6.007-3.285A1.562,1.562,0,0,1,2423.013,1840.5Zm2.9-5.764a.759.759,0,0,1,.363-.182c.081,0,.464-.041.584.242s.4.947.424,1.028a.249.249,0,0,1,.02.242.517.517,0,0,1-.141.222,2.425,2.425,0,0,1-.2.242.206.206,0,0,0-.06.282,4.244,4.244,0,0,0,.766.947,4.539,4.539,0,0,0,1.108.685c.142.06.222.06.3-.041s.343-.4.444-.543.181-.121.322-.061c.121.041.806.383.947.444a.59.59,0,0,1,.262.161,1.024,1.024,0,0,1-.081.645,1.322,1.322,0,0,1-.646.706c-.262.1-.564.141-1.874-.383a6.032,6.032,0,0,1-2.439-2.076,2.787,2.787,0,0,1-.564-1.431A1.431,1.431,0,0,1,2425.915,1834.733Z" transform="translate(-2422.428 -1831.546)" fill="#8c71ff"/></g><rect width="5.788" height="5.788" rx="1.618" transform="translate(120.177 10.588)" fill="#7cc5fc"/></g><g transform="translate(437.025 350.933)"><rect width="137.172" height="42.54" rx="7.655" fill="#fff"/><circle cx="11.957" cy="11.957" r="11.957" transform="translate(13.145 9.85)" fill="#f7f7f7"/><rect width="23.983" height="3.342" rx="1.035" transform="translate(47.216 16.913)" fill="#6c63ff"/><rect width="48.525" height="3.342" rx="1.035" transform="translate(47.216 25.678)" fill="#e0e0e0"/><g transform="translate(22.068 16.782)"><path d="M2425.184,1907.949h.742a.141.141,0,0,1,.131.131v4.671a.438.438,0,0,0,.436.437h1.7a.438.438,0,0,0,.436-.437v-4.671a.141.141,0,0,1,.131-.131h1.223a.428.428,0,0,0,.437-.371l.283-1.7a.459.459,0,0,0-.436-.523h-1.44a.2.2,0,0,1-.2-.2v-1.092a.392.392,0,0,1,.437-.436h1.288a.438.438,0,0,0,.437-.437v-1.746a.438.438,0,0,0-.437-.437h-1.55c-2.838,0-2.772,2.292-2.772,2.62v1.594a.141.141,0,0,1-.131.131h-.742a.437.437,0,0,0-.437.436v1.7A.476.476,0,0,0,2425.184,1907.949Z" transform="translate(-2424.725 -1901.008)" fill="#8c71ff"/></g><rect width="5.788" height="5.788" rx="1.618" transform="translate(120.177 9.85)" fill="#7cc5fc"/></g></g><g transform="translate(1875.761 1433.184)"><rect width="573.654" height="1.598" transform="translate(50.011 46.462)" fill="#8e8e8e" opacity="0.17"/><g transform="translate(0 46.462)"><line x2="623.665" fill="#fff"/></g><path d="M2499.427,1479.646v-40.512a5.95,5.95,0,0,0-5.949-5.949H1875.761v46.462" transform="translate(-1875.761 -1433.184)" fill="#fff"/><line y2="46.461" transform="translate(47.199 0)" fill="#b5b5b5" stroke="#e6e6ff" stroke-miterlimit="10" stroke-width="1"/><path d="M2420.807,1456.878" transform="translate(-1938.264 -1435.901)" fill="none" stroke="#ccc" stroke-miterlimit="10" stroke-width="1"/><path d="M1929.074,1433.184" transform="translate(-1881.875 -1433.184)" fill="#b5b5b5" stroke="#e6e6ff" stroke-miterlimit="10" stroke-width="1"/><g transform="translate(79.318 10.818)"><rect width="246.229" height="24.827" rx="6.488" fill="#f2f2f9"/><g transform="translate(19.151 5.775)"><path d="M1994.666,1453.353a4.26,4.26,0,0,0-6.365,0,5.167,5.167,0,0,0,0,6.895,4.26,4.26,0,0,0,6.363,0A5.172,5.172,0,0,0,1994.666,1453.353Zm-5.406,5.861a3.614,3.614,0,0,1,0-4.823,2.982,2.982,0,0,1,4.453,0,3.615,3.615,0,0,1,0,4.823l0,0a2.981,2.981,0,0,1-4.452,0Z" transform="translate(-1986.984 -1451.926)" fill="#ccc"/><path d="M1994.865,1461.4l.868-.939h0l3.511,3.8a.078.078,0,0,1,0,.1h0l-.773.837a.063.063,0,0,1-.095,0h0l-3.511-3.8Z" transform="translate(-1987.888 -1452.905)" fill="#ccc"/><text transform="translate(22.946 0.061)" fill="#b5b5b5" font-size="9.134" font-family="SegoeUI, Segoe UI"><tspan x="0" y="10">Search for your topic , authour </tspan></text></g><g transform="translate(364.672 1.72)"><g transform="translate(0 5.101)"><rect width="11.406" height="7.129" rx="1.332" fill="none" stroke="#444" stroke-miterlimit="10" stroke-width="1"/><path d="M2377.691,1453.377l4.567,2.855a1.427,1.427,0,0,0,1.509,0l4.567-2.855" transform="translate(-2377.309 -1453.138)" fill="none" stroke="#444" stroke-miterlimit="10" stroke-width="1"/></g><line y2="17.331" transform="translate(27.29)" fill="none" stroke="#bababa" stroke-miterlimit="10" stroke-width="1"/><line y2="17.331" transform="translate(63.426)" fill="none" stroke="#bababa" stroke-miterlimit="10" stroke-width="1"/><line y2="17.331" transform="translate(99.563)" fill="none" stroke="#bababa" stroke-miterlimit="10" stroke-width="1"/><g transform="translate(40.529 5.102)"><path d="M2424.059,1457.594v-2.259a2.1,2.1,0,0,1,1.948-2.227h6.208a2.1,2.1,0,0,1,1.948,2.227v1.444a2.1,2.1,0,0,1-1.948,2.228l-5.729.093" transform="translate(-2423.155 -1453.108)" fill="none" stroke="#5b5b5b" stroke-miterlimit="10" stroke-width="1"/><path d="M2423.942,1458.175l-.892,3.249c-.057.156.1.3.221.21l3.224-2.045" transform="translate(-2423.038 -1453.689)" fill="none" stroke="#5b5b5b" stroke-miterlimit="10" stroke-width="1"/></g><g transform="translate(79.212 3.118)"><path d="M2472.355,1461.051h-5.623l.955-.735s-.073-5.366,0-6.1,2.573-1.4,2.573-1.4" transform="translate(-2466.732 -1451.091)" fill="none" stroke="#5b5b5b" stroke-linecap="round" stroke-linejoin="round" stroke-width="1"/><path d="M2471.762,1452.818s2.5.662,2.573,1.4,0,6.1,0,6.1l.955.735h-2.359" transform="translate(-2467.309 -1451.091)" fill="none" stroke="#5b5b5b" stroke-linecap="round" stroke-linejoin="round" stroke-width="1"/><line y1="1.727" transform="translate(3.991)" fill="none" stroke="#5b5b5b" stroke-linecap="round" stroke-linejoin="round" stroke-width="1"/><circle cx="2.055" cy="2.055" r="2.055" transform="translate(4.961)" fill="#f95f5f"/></g><circle cx="7.375" cy="7.375" r="7.375" transform="translate(110.994 0.723)" fill="#bcbcbc"/><text transform="translate(134.935 4.158)" fill="#a0a0a0" font-size="6.942" font-family="SegoeUI, Segoe UI"><tspan x="0" y="7">Androw</tspan></text></g></g></g><g transform="translate(1875.761 1479.646)"><rect width="46.4" height="413.728" fill="#fff"/><g transform="translate(20.445 62.969)"><circle cx="2.467" cy="2.467" r="2.467" transform="translate(0.766)" fill="none" stroke="#c4c4c4" stroke-miterlimit="10" stroke-width="1"/><path d="M1901.322,1562.361s-2.467.789-2.467,2.536v2.361" transform="translate(-1898.855 -1557.428)" fill="none" stroke="#c4c4c4" stroke-miterlimit="10" stroke-width="1"/><path d="M1903.9,1562.361s2.467.789,2.467,2.536v2.361" transform="translate(-1899.433 -1557.428)" fill="none" stroke="#c4c4c4" stroke-miterlimit="10" stroke-width="1"/></g><g transform="translate(18.534 105.025)"><g transform="translate(5.344)"><circle cx="1.978" cy="1.978" r="1.978" fill="none" stroke="#c4c4c4" stroke-miterlimit="10" stroke-width="1"/><path d="M1904.272,1608.76" transform="translate(-1902.909 -1604.805)" fill="none" stroke="#c4c4c4" stroke-miterlimit="10" stroke-width="1"/><path d="M1906.083,1608.76s1.978.632,1.978,2.034v2.233" transform="translate(-1903.117 -1604.805)" fill="none" stroke="#c4c4c4" stroke-miterlimit="10" stroke-width="1"/></g><g transform="translate(0 2.836)"><circle cx="2.123" cy="2.123" r="2.123" transform="translate(0.66)" fill="none" stroke="#c4c4c4" stroke-miterlimit="10" stroke-width="1"/><path d="M1898.819,1612.293s-2.123.678-2.123,2.183v2.075" transform="translate(-1896.696 -1608.046)" fill="none" stroke="#c4c4c4" stroke-miterlimit="10" stroke-width="1"/><path d="M1901.039,1612.293s2.123.678,2.123,2.183v2.075" transform="translate(-1897.194 -1608.046)" fill="none" stroke="#c4c4c4" stroke-miterlimit="10" stroke-width="1"/></g></g><g transform="translate(14.223 156.333)"><path d="M1901.965,1662.246a6.594,6.594,0,0,1,4.671,1.935h0a6.6,6.6,0,0,1,0,9.342h0a6.6,6.6,0,0,1-9.34,0h0a6.6,6.6,0,0,1-1.434-2.144,6.794,6.794,0,0,1-.266-.772c.138.013.279.02.421.02a4.445,4.445,0,0,0,.788-.07c.042.128.089.253.14.377a5.431,5.431,0,1,0,2.943-7.1c-.058.024-.114.05-.17.074a4.414,4.414,0,0,0-.782-.922q.247-.127.5-.235a6.552,6.552,0,0,1,2.528-.5Zm-.758,3.466a.591.591,0,0,1,.171-.414.585.585,0,0,1,1,.414v3.082l2.3,1.366a.59.59,0,0,1,.267.359.578.578,0,0,1-.062.442v0h0a.585.585,0,0,1-.358.268.579.579,0,0,1-.442-.063h0l-2.576-1.528a.582.582,0,0,1-.3-.511v-3.417Z" transform="translate(-1892.259 -1662.246)" fill="#c4c4c4"/><path d="M1895.408,1662.642a3.581,3.581,0,1,1-3.581,3.581,3.581,3.581,0,0,1,3.581-3.581Zm0,5.635,1.922-2.376h-1.193v-1.263h-1.457v1.263h-1.193l1.922,2.376Z" transform="translate(-1891.827 -1662.291)" fill="#716eff" fill-rule="evenodd"/></g><g transform="translate(13.336 208.922)"><path d="M1903.879,1721.647a.614.614,0,0,0-.665.551v2.375a.677.677,0,0,0,1.33,0V1722.2A.614.614,0,0,0,1903.879,1721.647Zm-.627,6.983h-1.815c-.047,0-.075.162-.075.361s.037.37.075.37h1.815c.038,0,.066-.161.066-.37S1903.28,1728.63,1903.252,1728.63Zm3.05,0h-1.815c-.038,0-.067.162-.067.361s.028.37.067.37h1.815c.048,0,.076-.161.076-.37S1906.34,1728.63,1906.3,1728.63Zm-5.938,2.109h-1.815c-.047,0-.076.162-.076.361s.038.371.076.371h1.815c.038,0,.066-.162.066-.371S1900.4,1730.739,1900.364,1730.739Zm2.888,0h-1.815c-.047,0-.075.162-.075.361s.037.371.075.371h1.815c.038,0,.066-.162.066-.371S1903.28,1730.739,1903.252,1730.739Zm3.05,0h-1.815c-.038,0-.067.162-.067.361s.028.371.067.371h1.815c.048,0,.076-.162.076-.371S1906.34,1730.739,1906.3,1730.739Zm-8.826,2.11h-1.815c-.038,0-.076.161-.076.361s.038.37.076.37h1.815c.038,0,.067-.161.067-.37S1897.514,1732.848,1897.476,1732.848Zm2.888,0h-1.815c-.038,0-.066.161-.066.361s.028.37.066.37h1.815c.048,0,.076-.161.076-.37S1900.4,1732.848,1900.364,1732.848Zm2.888,0h-1.815c-.047,0-.075.161-.075.361s.037.37.075.37h1.815c.038,0,.066-.161.066-.37S1903.28,1732.848,1903.252,1732.848Zm3.05,0h-1.815c-.038,0-.067.161-.067.361s.028.37.067.37h1.815c.048,0,.076-.161.076-.37S1906.34,1732.848,1906.3,1732.848Zm-4.2-9.8h-2.461a.365.365,0,0,0-.37.371.37.37,0,0,0,.37.37h2.461a.37.37,0,0,0,.37-.37A.365.365,0,0,0,1902.1,1723.043Z" transform="translate(-1891.371 -1721.647)" fill="#c4c4c4"/><path d="M1896.961,1722.8a3.59,3.59,0,1,0-5.077,5.078,3.592,3.592,0,0,0,2.544,1.058,3.59,3.59,0,0,0,2.533-6.136Zm-.979,1.813c-.012.022-.012.045-.023.067a.554.554,0,0,1-.034.079.267.267,0,0,1-.045.057l-1.6,1.678c-.022.01-.034.034-.056.044a.223.223,0,0,1-.067.045.291.291,0,0,1-.079.023.2.2,0,0,1-.08.011h-.089c-.023-.011-.045-.011-.068-.022l-.067-.034h-.011a.245.245,0,0,0-.056-.045c-.1-.09-.191-.18-.293-.27a6.634,6.634,0,0,1-.574-.53.223.223,0,0,1-.045-.057.235.235,0,0,1-.035-.056.444.444,0,0,1-.022-.237.346.346,0,0,1,.1-.2l.022-.022a.408.408,0,0,1,.495-.057c.023.011.045.034.068.045v.011c.113.1.3.281.428.394l.1.089,1.328-1.373a.138.138,0,0,1,.057-.057c.022-.011.045-.033.067-.033s.057-.022.079-.034h.158a.3.3,0,0,1,.079.022l.068.034c.022.011.044.034.067.045l.011.011c.011.023.035.045.045.067a.324.324,0,0,1,.034.068l.035.067Z" transform="translate(-1890.825 -1721.658)" fill="#716eff" fill-rule="evenodd"/><path d="M1907.739,1724.3v11.03a.633.633,0,0,1-.628.627h-12.417a1.089,1.089,0,0,1-.76-.313,1.033,1.033,0,0,1-.313-.76v-4.76h.732v4.76a.357.357,0,0,0,.095.238.377.377,0,0,0,.237.095h11.686a.633.633,0,0,0,.627-.627v-6.813h-7.952v-.731h7.961V1724.3a.311.311,0,0,0-.1-.237.339.339,0,0,0-.238-.1h-1.207a.37.37,0,0,1-.37-.37.365.365,0,0,1,.37-.371h1.207a1.07,1.07,0,0,1,1.074,1.074Z" transform="translate(-1891.146 -1721.828)" fill="#c4c4c4" fill-rule="evenodd"/></g><g transform="translate(11.907 326.516)"><circle cx="11.354" cy="11.354" r="11.354" fill="#716eff"/><g transform="translate(6.215 7.052)"><line x1="10.709" transform="translate(0 4.302)" fill="none" stroke="#fff" stroke-linecap="round" stroke-miterlimit="10" stroke-width="2"/><path d="M1903.745,1862.438l4.3,4.3-4.3,4.3" transform="translate(-1897.093 -1862.438)" fill="none" stroke="#fff" stroke-linecap="round" stroke-miterlimit="10" stroke-width="2"/></g></g><path d="M1900.375,1782.174a.353.353,0,0,1,.235-.092.193.193,0,0,1,.056.006h5.438a.777.777,0,0,1,.544.229.766.766,0,0,1,.226.546v12.911a.774.774,0,0,1-.772.772h-9.091a.773.773,0,0,1-.772-.772v-9.18a.328.328,0,0,1-.013-.092.376.376,0,0,1,.118-.263l3.989-4.04a.211.211,0,0,1,.031-.025Zm5.811.687a.058.058,0,0,0-.025-.055.082.082,0,0,0-.052-.025h-5.153v3.023a1.046,1.046,0,0,1-1.044,1.048h-2.972v8.92a.069.069,0,0,0,.023.056.083.083,0,0,0,.056.025h9.09a.069.069,0,0,0,.055-.025.082.082,0,0,0,.025-.056v-12.911Zm-7.3,11.149a.311.311,0,0,1,0-.621h3.3a.311.311,0,1,1,0,.621Zm0-2.089a.311.311,0,0,1,0-.621h5.039a.311.311,0,0,1,0,.621Zm0-2.09a.311.311,0,0,1,0-.621h5.808a.311.311,0,1,1,0,.621Zm1.377-4.027v-2.532l-2.853,2.887h2.495a.372.372,0,0,0,.25-.1.358.358,0,0,0,.105-.251Z" transform="translate(-1878.108 -1519.656)" fill="#c4c4c4"/><rect width="47.199" height="36.586" transform="translate(0)" fill="#7d7dff" opacity="0.12"/><g transform="translate(0 0.061)"><rect width="2.049" height="36.463" fill="#716eff"/></g><g transform="translate(14.545 10.141)"><path d="M1892.711,1500.142a.527.527,0,0,1,0-1.054h.775a2.43,2.43,0,0,1,1.266.333,2,2,0,0,1,.854,1.214.049.049,0,0,0,.013.04l.133.535h1.538a2.018,2.018,0,0,0,.634,1.039h-1.879l1.186,4.467h8.412l1.1-4.467h-1.826a2.028,2.028,0,0,0,.634-1.039h1.861a.521.521,0,0,1,.52.521.735.735,0,0,1-.026.16l-1.36,5.478a.513.513,0,0,1-.506.4h-8.535a2.141,2.141,0,0,0,.626,1.241,3.5,3.5,0,0,0,1.734.2h6.041a.52.52,0,0,1,0,1.04h-6.027a4.071,4.071,0,0,1-2.334-.373,3.353,3.353,0,0,1-1.147-2.173h0l-1.786-6.76c0-.013,0-.013-.013-.026a.924.924,0,0,0-.4-.6,1.352,1.352,0,0,0-.732-.172h-.04l-.722,0Zm8.319,2.829-2.158-1.772a.616.616,0,0,1,.771-.96l1.163.969v-3.477a.614.614,0,1,1,1.227,0l0,3.478,1.165-.969a.615.615,0,1,1,.77.96l-2.157,1.77-.006.005a.607.607,0,0,1-.768,0l-.008-.005Zm1.973,1.854a.369.369,0,0,1,.724,0v.625a.369.369,0,0,1-.724,0v-.625Zm-2.173,0a.37.37,0,0,1,.725,0v.625a.37.37,0,0,1-.725,0v-.625Zm-2.171,0a.37.37,0,0,1,.725,0v.625a.37.37,0,0,1-.725,0v-.625Zm5.69,6.037a1.281,1.281,0,1,1-1.28,1.28,1.28,1.28,0,0,1,1.28-1.28Zm-5.613,0a1.281,1.281,0,1,1-1.28,1.28,1.282,1.282,0,0,1,1.28-1.28Z" transform="translate(-1892.19 -1497.118)" fill="#716eff"/></g></g></g></svg>